<mxfile host="65bd71144e">
    <diagram id="dVP8-aJStafJ6W_Tg27J" name="data flow">
        <mxGraphModel dx="1852" dy="667" grid="1" gridSize="10" guides="1" tooltips="1" connect="1" arrows="1" fold="1" page="1" pageScale="1" pageWidth="850" pageHeight="1100" math="0" shadow="0">
            <root>
                <mxCell id="0"/>
                <mxCell id="1" parent="0"/>
                <mxCell id="jQntayPm49At65_9_Z-b-1" value="" style="rounded=0;whiteSpace=wrap;html=1;" parent="1" vertex="1">
                    <mxGeometry x="-1" y="210" width="810" height="600" as="geometry"/>
                </mxCell>
                <mxCell id="OOMqpFdLKZyl2KqQgccM-20" value="" style="rounded=1;whiteSpace=wrap;html=1;strokeWidth=4;fillColor=#FFFFFF;strokeColor=light-dark(#20a0c7, #ededed);arcSize=8;" parent="1" vertex="1">
                    <mxGeometry x="20" y="566" width="450" height="200" as="geometry"/>
                </mxCell>
                <mxCell id="OOMqpFdLKZyl2KqQgccM-19" value="" style="rounded=1;whiteSpace=wrap;html=1;strokeWidth=4;fillColor=#FFFFFF;strokeColor=light-dark(#20a0c7, #ededed);arcSize=8;" parent="1" vertex="1">
                    <mxGeometry x="20" y="310" width="450" height="200" as="geometry"/>
                </mxCell>
                <mxCell id="7jOleRoAw1yiY5oRN9Lo-1" value="Sensor Data" style="text;html=1;align=center;verticalAlign=middle;whiteSpace=wrap;rounded=0;fontStyle=1;fontSize=16;fontColor=light-dark(#6abd46, #ededed);" parent="1" vertex="1">
                    <mxGeometry x="68" y="470" width="130" height="30" as="geometry"/>
                </mxCell>
                <mxCell id="7jOleRoAw1yiY5oRN9Lo-2" value="" style="rounded=1;whiteSpace=wrap;html=1;strokeWidth=4;fillColor=#FFFFFF;strokeColor=light-dark(#6abd46, #5c79a3);" parent="1" vertex="1">
                    <mxGeometry x="68" y="340" width="130" height="130" as="geometry"/>
                </mxCell>
                <mxCell id="7jOleRoAw1yiY5oRN9Lo-3" value="" style="verticalLabelPosition=bottom;sketch=0;html=1;fillColor=#6ABD46;strokeColor=#ffffff;verticalAlign=top;align=center;points=[[0.085,0.085,0],[0.915,0.085,0],[0.915,0.915,0],[0.085,0.915,0],[0.25,0,0],[0.5,0,0],[0.75,0,0],[1,0.25,0],[1,0.5,0],[1,0.75,0],[0.75,1,0],[0.5,1,0],[0.25,1,0],[0,0.75,0],[0,0.5,0],[0,0.25,0]];pointerEvents=1;shape=mxgraph.cisco_safe.compositeIcon;bgIcon=mxgraph.cisco_safe.architecture.generic_appliance;resIcon=mxgraph.cisco_safe.architecture.flow_sensor;" parent="1" vertex="1">
                    <mxGeometry x="85.5" y="357.5" width="95" height="95" as="geometry"/>
                </mxCell>
                <mxCell id="7jOleRoAw1yiY5oRN9Lo-4" value="" style="rounded=1;whiteSpace=wrap;html=1;strokeWidth=4;fillColor=#FFFFFF;strokeColor=light-dark(#647687, #5c79a3);" parent="1" vertex="1">
                    <mxGeometry x="308" y="340" width="130" height="130" as="geometry"/>
                </mxCell>
                <mxCell id="7jOleRoAw1yiY5oRN9Lo-5" value="" style="sketch=0;dashed=0;connectable=0;html=1;fillColor=#647687;strokeColor=none;shape=mxgraph.gcp2.circuit_board;part=1;fontColor=#ffffff;" parent="1" vertex="1">
                    <mxGeometry x="328.55" y="365" width="88.9" height="80" as="geometry">
                        <mxPoint x="-25" y="12.5" as="offset"/>
                    </mxGeometry>
                </mxCell>
                <mxCell id="7jOleRoAw1yiY5oRN9Lo-6" value="Controler" style="text;html=1;align=center;verticalAlign=middle;whiteSpace=wrap;rounded=0;fontStyle=1;fontSize=16;fontColor=light-dark(#647687, #ededed);" parent="1" vertex="1">
                    <mxGeometry x="308" y="470" width="130" height="30" as="geometry"/>
                </mxCell>
                <mxCell id="msLcUi3r976sDLJcwtmN-1" value="" style="rounded=1;whiteSpace=wrap;html=1;strokeWidth=4;fillColor=#FFFFFF;strokeColor=light-dark(#20a0c7, #5c79a3);arcSize=8;" parent="1" vertex="1">
                    <mxGeometry x="546" y="310" width="240" height="450" as="geometry"/>
                </mxCell>
                <mxCell id="msLcUi3r976sDLJcwtmN-3" value="" style="rounded=1;whiteSpace=wrap;html=1;strokeWidth=4;fillColor=#FFFFFF;strokeColor=light-dark(#59b4d9, #5c79a3);" parent="1" vertex="1">
                    <mxGeometry x="600" y="360" width="130" height="130" as="geometry"/>
                </mxCell>
                <mxCell id="msLcUi3r976sDLJcwtmN-4" value="" style="image;sketch=0;aspect=fixed;html=1;points=[];align=center;fontSize=12;image=img/lib/mscae/Database_General.svg;" parent="1" vertex="1">
                    <mxGeometry x="632.7" y="382.5" width="64.6" height="85" as="geometry"/>
                </mxCell>
                <mxCell id="msLcUi3r976sDLJcwtmN-5" value="Data Store" style="text;html=1;align=center;verticalAlign=middle;whiteSpace=wrap;rounded=0;fontStyle=1;fontSize=16;fontColor=light-dark(#59b4d9, #ededed);" parent="1" vertex="1">
                    <mxGeometry x="600" y="490" width="130" height="30" as="geometry"/>
                </mxCell>
                <mxCell id="msLcUi3r976sDLJcwtmN-6" value="" style="rounded=1;whiteSpace=wrap;html=1;strokeWidth=4;fillColor=#FFFFFF;strokeColor=light-dark(#59b4d9, #5c79a3);" parent="1" vertex="1">
                    <mxGeometry x="600" y="570" width="130" height="130" as="geometry"/>
                </mxCell>
                <mxCell id="msLcUi3r976sDLJcwtmN-7" value="" style="verticalLabelPosition=bottom;html=1;verticalAlign=top;align=center;strokeColor=none;fillColor=#00BEF2;shape=mxgraph.azure.server_rack;" parent="1" vertex="1">
                    <mxGeometry x="626.25" y="596.25" width="77.5" height="77.5" as="geometry"/>
                </mxCell>
                <mxCell id="msLcUi3r976sDLJcwtmN-8" value="Server" style="text;html=1;align=center;verticalAlign=middle;whiteSpace=wrap;rounded=0;fontStyle=1;fontSize=16;fontColor=light-dark(#59b4d9, #ededed);" parent="1" vertex="1">
                    <mxGeometry x="600" y="700" width="130" height="30" as="geometry"/>
                </mxCell>
                <mxCell id="M6xtDaZEihsGPlqdiZi--1" value="" style="endArrow=classic;html=1;strokeWidth=4;exitX=1;exitY=0.5;exitDx=0;exitDy=0;entryX=0;entryY=0.5;entryDx=0;entryDy=0;strokeColor=light-dark(#6abd46, #ededed);" parent="1" source="7jOleRoAw1yiY5oRN9Lo-2" target="7jOleRoAw1yiY5oRN9Lo-4" edge="1">
                    <mxGeometry width="50" height="50" relative="1" as="geometry">
                        <mxPoint x="431" y="525" as="sourcePoint"/>
                        <mxPoint x="305" y="400" as="targetPoint"/>
                    </mxGeometry>
                </mxCell>
                <mxCell id="M6xtDaZEihsGPlqdiZi--2" value="" style="endArrow=classic;html=1;strokeWidth=4;exitX=1;exitY=0.5;exitDx=0;exitDy=0;entryX=0;entryY=0.25;entryDx=0;entryDy=0;strokeColor=light-dark(#647687, #ededed);edgeStyle=orthogonalEdgeStyle;" parent="1" source="7jOleRoAw1yiY5oRN9Lo-4" target="msLcUi3r976sDLJcwtmN-6" edge="1">
                    <mxGeometry width="50" height="50" relative="1" as="geometry">
                        <mxPoint x="208" y="385" as="sourcePoint"/>
                        <mxPoint x="318" y="385" as="targetPoint"/>
                    </mxGeometry>
                </mxCell>
                <mxCell id="M6xtDaZEihsGPlqdiZi--4" value="" style="endArrow=classic;startArrow=classic;html=1;strokeWidth=4;entryX=1;entryY=0.5;entryDx=0;entryDy=0;exitX=1;exitY=0.615;exitDx=0;exitDy=0;exitPerimeter=0;edgeStyle=orthogonalEdgeStyle;strokeColor=light-dark(#59b4d9, #ededed);" parent="1" source="msLcUi3r976sDLJcwtmN-6" target="msLcUi3r976sDLJcwtmN-3" edge="1">
                    <mxGeometry width="50" height="50" relative="1" as="geometry">
                        <mxPoint x="560" y="570" as="sourcePoint"/>
                        <mxPoint x="610" y="520" as="targetPoint"/>
                        <Array as="points">
                            <mxPoint x="760" y="650"/>
                            <mxPoint x="760" y="425"/>
                        </Array>
                    </mxGeometry>
                </mxCell>
                <mxCell id="M6xtDaZEihsGPlqdiZi--5" value="Cloud Server" style="text;html=1;align=center;verticalAlign=middle;whiteSpace=wrap;rounded=0;fontStyle=1;fontSize=16;fontColor=light-dark(#20a0c7, #ededed);" parent="1" vertex="1">
                    <mxGeometry x="601" y="760" width="130" height="30" as="geometry"/>
                </mxCell>
                <mxCell id="OOMqpFdLKZyl2KqQgccM-9" value="" style="rounded=1;whiteSpace=wrap;html=1;strokeWidth=4;fillColor=#FFFFFF;strokeColor=light-dark(#2fcbed, #5c79a3);" parent="1" vertex="1">
                    <mxGeometry x="307" y="591" width="130" height="130" as="geometry"/>
                </mxCell>
                <mxCell id="OOMqpFdLKZyl2KqQgccM-10" value="" style="image;aspect=fixed;html=1;points=[];align=center;fontSize=12;image=img/lib/azure2/app_services/API_Management_Services.svg;" parent="1" vertex="1">
                    <mxGeometry x="326.64" y="614.13" width="90.73" height="83.75" as="geometry"/>
                </mxCell>
                <mxCell id="OOMqpFdLKZyl2KqQgccM-11" value="" style="rounded=1;whiteSpace=wrap;html=1;strokeWidth=4;fillColor=#FFFFFF;strokeColor=light-dark(#7fba00, #5c79a3);" parent="1" vertex="1">
                    <mxGeometry x="68" y="589.5" width="130" height="130" as="geometry"/>
                </mxCell>
                <mxCell id="OOMqpFdLKZyl2KqQgccM-12" value="" style="image;sketch=0;aspect=fixed;html=1;points=[];align=center;fontSize=12;image=img/lib/mscae/Monitor.svg;" parent="1" vertex="1">
                    <mxGeometry x="85.5" y="607" width="95" height="95" as="geometry"/>
                </mxCell>
                <mxCell id="OOMqpFdLKZyl2KqQgccM-13" value="Monitoring" style="text;html=1;align=center;verticalAlign=middle;whiteSpace=wrap;rounded=0;fontStyle=1;fontSize=16;fontColor=light-dark(#7fba00, #ededed);" parent="1" vertex="1">
                    <mxGeometry x="68" y="719.5" width="130" height="30" as="geometry"/>
                </mxCell>
                <mxCell id="OOMqpFdLKZyl2KqQgccM-14" value="API" style="text;html=1;align=center;verticalAlign=middle;whiteSpace=wrap;rounded=0;fontStyle=1;fontSize=16;fontColor=light-dark(#2fcbed, #ededed);" parent="1" vertex="1">
                    <mxGeometry x="307" y="723.5" width="130" height="30" as="geometry"/>
                </mxCell>
                <mxCell id="OOMqpFdLKZyl2KqQgccM-16" value="Mobile Apps" style="text;html=1;align=center;verticalAlign=middle;whiteSpace=wrap;rounded=0;fontStyle=1;fontSize=16;fontColor=light-dark(#20a0c7, #ededed);" parent="1" vertex="1">
                    <mxGeometry x="197.64" y="766" width="130" height="30" as="geometry"/>
                </mxCell>
                <mxCell id="OOMqpFdLKZyl2KqQgccM-17" value="" style="endArrow=classic;html=1;strokeWidth=4;exitX=0;exitY=0.5;exitDx=0;exitDy=0;entryX=1;entryY=0.5;entryDx=0;entryDy=0;strokeColor=light-dark(#2fcbed, #ededed);" parent="1" source="OOMqpFdLKZyl2KqQgccM-9" target="OOMqpFdLKZyl2KqQgccM-11" edge="1">
                    <mxGeometry width="50" height="50" relative="1" as="geometry">
                        <mxPoint x="208" y="397" as="sourcePoint"/>
                        <mxPoint x="318" y="397" as="targetPoint"/>
                    </mxGeometry>
                </mxCell>
                <mxCell id="OOMqpFdLKZyl2KqQgccM-18" value="" style="endArrow=classic;html=1;strokeWidth=4;exitX=0;exitY=0.5;exitDx=0;exitDy=0;entryX=1;entryY=0.5;entryDx=0;entryDy=0;strokeColor=light-dark(#2fcbed, #ededed);edgeStyle=orthogonalEdgeStyle;" parent="1" source="msLcUi3r976sDLJcwtmN-6" target="OOMqpFdLKZyl2KqQgccM-9" edge="1">
                    <mxGeometry width="50" height="50" relative="1" as="geometry">
                        <mxPoint x="318" y="654" as="sourcePoint"/>
                        <mxPoint x="208" y="653" as="targetPoint"/>
                    </mxGeometry>
                </mxCell>
                <mxCell id="OOMqpFdLKZyl2KqQgccM-21" value="Device" style="text;html=1;align=center;verticalAlign=middle;whiteSpace=wrap;rounded=0;fontStyle=1;fontSize=16;fontColor=light-dark(#20a0c7, #ededed);" parent="1" vertex="1">
                    <mxGeometry x="190" y="510" width="130" height="30" as="geometry"/>
                </mxCell>
                <mxCell id="S57i8weEWApeeSsGZOkD-1" value="Data Flow" style="text;html=1;align=center;verticalAlign=middle;whiteSpace=wrap;rounded=0;fontStyle=1;fontSize=40;fontColor=light-dark(#20a0c7, #ededed);" parent="1" vertex="1">
                    <mxGeometry x="284" y="240" width="240" height="30" as="geometry"/>
                </mxCell>
            </root>
        </mxGraphModel>
    </diagram>
    <diagram id="TKq6ud48Nh5euHLddLCf" name="work flow">
        <mxGraphModel dx="1002" dy="1767" grid="1" gridSize="10" guides="1" tooltips="1" connect="1" arrows="1" fold="1" page="1" pageScale="1" pageWidth="850" pageHeight="1100" math="0" shadow="0">
            <root>
                <mxCell id="0"/>
                <mxCell id="1" parent="0"/>
                <mxCell id="LDbICWp428gaaFMlu-r1-38" value="" style="rounded=0;whiteSpace=wrap;html=1;" parent="1" vertex="1">
                    <mxGeometry x="23" y="-60" width="696" height="670" as="geometry"/>
                </mxCell>
                <mxCell id="3" value="" style="shape=image;verticalLabelPosition=bottom;labelBackgroundColor=default;verticalAlign=top;aspect=fixed;imageAspect=0;image=data:image/png,iVBORw0KGgoAAAANSUhEUgAAAgAAAAIACAYAAAD0eNT6AAAABHNCSVQICAgIfAhkiAAAAAlwSFlzAAAOxAAADsQBlSsOGwAAABl0RVh0U29mdHdhcmUAd3d3Lmlua3NjYXBlLm9yZ5vuPBoAACAASURBVHic7N15mBTVvT7w91u9TM8+wDCAqCwKyAw7A3jRRDHB4BqjEY0mJsYte1xY1GicGBNlE6PRRJO4Rm+CJiauMVeDN4mIMqAIAwIqqKisA7P3dHfV+f0x+rsEp2d6qapT1f1+nofnyeNMV71hhj5vnzp1SkCUquPrgoFSOUVZ8eOUMseKmTgCyqqEZRYoywxAKQOWKdryCSChIki4AAh1/ZFgAWAEADEghtH1v4n8ax+AVgBtEOyDhbcV8KZhqE2wjI2xBy7ZAIjSHZL8Qd+bNflC8LSfnmiZHRchET9GJaKDYCYM3ZkOJOFCSGEpJFICiRRzgKf8prBHQV4UwXID1v903v+tLbojkXexANCnnXbdMMPCjYi1n65iHWW64xxMAiFIcQWktC8kXKg7DpGXbVBQDyZMdR8e+vYu3WHIW1gA6P8LfOnHZ6v2jsWqs+1wKO/NIkqkBEZFFSRSxt9covTEAPxZLOPm2IOXvKE7DHkD30YJgdPqLladLTepzo4BgAcH/sIyGBUDuqb4iSgbSgmeFNP6WfzBb7+qOwzpxQKQz06vG2fE2h9XHa3DPTnwhwpg9BsMKfTcVQgi3xOlngqEAt/u+O0l23VnIT1YAPLR8XVBozhxn2rbdz6U5b3fARFIxQAEygcA4r14RDmkCZAb4m0Vv8Sjs03dYchdfHfNM6Ezrp9strW/oGLt5bqzdEdCERhVQyHhiO4oRPnknyEj+JX2ey/6UHcQco+nbukiZxmnXT8n0bz/Va8O/kZJXwQGj+TgT+S+z8bNxNrABfecpDsIuYczAHlCTrp6Odqbj/fitX4IYPQ7DEZpP91JiPKdpRR+nHjgsp/pDkLOYwHIdWfXhY2WjtdUR3O17ijdEoHRfyiMYk9OShDlqzvjQz/6AerqLN1ByDksALns+LoSI9K2QXW0HqY7SreMAAIDhvP2PiIPUqIeT6iC83D/hVHdWcgZ3Dc1V51dFzYSbVtUtPVQ3VG6ZRgIDDyCgz+RRwlktCHmOOuM2sfw4oucCchBXASYk+oMo6X9DdXZOlh3km6JIFA1FFLAwZ/Iy0Th9NC7g+7UnYOcwQKQgwInR/+pOlpG6c7RLQGMyiHc3IfILxQuDV/465/ojkH2YwHIMcZpP15stTUdoztHMkb5ABglFbpjEFEalJLrwxfc8yXdOcheXASYQ4KnXX+c2dK43JO7+wGQgmIEBh3J3f2I/Gl/wDQmRR+6ZKvuIGQPzgDkitPqiqyO1qe8OvgjEIRRNYSDP5F/VZgB6484e1lYdxCyBwtAjhCz8xkVj5bozpGM0XcwJMj3DSKfmxIs3jdfdwiyBz+O5YDgGT/5nLl/1/NQ3rxTRyIfT/3z140oF3QEDHNM9N7vvKM7CGWHMwA5wOpo/W+vDv4QA0blYeDgT5QzCi0rwFsDcwALgM8Zp/z4JhVt7a87RzJGWSUkxIf7EOUSBcwKfOPXJ+vOQdlhAfC7WMvluiMkJQakzLPdhIiyYEB+rDsDZYcFwMeMU6+7RsWint1OzyjtCwmGdMcgImdMC37915/THYIyxwLgZ7F2767GFYGUV+lOQUQOEkN+pDsDZY4FwKcCp/3ki6qzw7PP0DWKynjbH1GuU5gRvuhXY3THoMywAPiVGb1Wd4QelfTVnYCI3GAa5+uOQJlhAfCj4+uCVrR1su4YSRkBGHzYD1FesICv4exlfLS8D7EA+JBRkpgLM+HZf3BGSR9u+UuUJwQYHCxpOk53DkofC4AfJeJf1h2hJ1JYqjsCEbnIUNYs3RkofSwAfhSPjdYdITmBRDz7SAIicoBSmKE7A6WPBcBvzrjuCGVGC3XHSEYKCgHDs1cniMgJgok4764+umNQelgAfMYw5WIo3SmS46d/orwUKAgFP6M7BKWHBcBnlBmfqjtDj8Lc958oH5miuB+Az7AA+IxY1nDdGXrCB/8Q5ScRGaU7A6WHBcBvEglPP11HQgW6IxCRDkqxAPgMC4DPqERnke4MSQWCXABIlL9G6g5A6WEB8JNv1EWgLM/usCNGUHcEItKngjsC+gsLgJ/sTQzSHaFHBn+diPKYoM8+3gbkI3zH9pEQggN0Z+iR8NeJKJ8VWga3AfURztn6iKUsby8AtHEGoKTAQHFYUFTAUkH+1dZpoT2m0Npp6Y7iCtM0+RQwH2EB8JMQvH2PXYYPACqNGPj86CIcP6oQk4YUYOSAMMoLOfBT7tjfbmHLrhhWb+vEi5s78MLGdrREc68UKEFIdwZKHQsAaVM7pADfO6EPTp9QjKKwZ9c2EmWtosjAlKERTBkawbeOL0d7TOGJ19twxwv7sfq9qO54lKdYAMh1Rw0KYdGX+2NmtXfvaCRyUlFYcO7UEpw7tQTPrW/H3Mf2YPPOmO5YlGc4z0quCRjAdaf0xaofHc7Bn+hjXxhThPrrDsc1J/WFwYkwchELALmiX3EAz/xgMK47tS9CAb7LER0oHARuOL0vnv7BIehbxLdlcgd/08hxgyuCeP6qwThulGefYkzkCTOOKsLzVx2KQyp4dZacxwJAjqosDuCZHx6C0YPCuqMQ+UL1IWH8z5WDUVXKTfXIWSwA5JhwEPjTdwdh1EAO/kTpOKJ/CH+4bCAvl5GjWADIMTd9qRLThnl76wIir5p+RCFuPKOf7hiUw1gAyBFThkbwvRkVumMQ+doPP1fBEk2O4fySVy1bFi7eGZ1hGTheQSYI1FD1YUu/zn+v9+x2wEZxOYyqYTAEePnawzD+0ALdkYh8b/V7URx7y3YopTtJ74LVkQ9RLM0KstVQ8ropeLEz2LYcl10W152NPo0FwGtu/31ZURBzlVLfAlB54JesnS2I/e86TcF690kBOH1CMZZd5u0HFxL5yZm/+gjPvNGmO0avAmMikE9v471bgF+3R2KLcNFFLTpyUfd4CcArlJLCOx/6XmFAvaWUug4HDf5+csXMProjEOWUK/39b6q/Aq4vjIbfKvrlQ9+GUvzg6REsAF5w332Rwjsf+j2AOwB4doo/FUf0D+FoXrMkstWxR0YwYoDvn7NTpQR3Fd718B9x993cCtQDWAA0K7n93v6F7cEVEDlPdxY7fHlySaYPBSSiHnxxfInuCDZRZxcmiv5Vevcjvp3lzBUsADrdfXfIDAT/CGCi7ih2mXEUiz2RE2YclVM7aU5KJMzHsWwZNwnRiAVAo4hZdBcgM3TnsIuIYMpQTv8TOWHa8Eiuza4dG9ndebvuEPmMBUCTyF0PHicKF+vOYafD+hWguCC33qGIvKKkwMCg8tx6RoAAl0V+9eAJunPkKxYAHZQSUXKL7hh2O7w/P/0TOWloP98vBPwUMXEz7wzQgwVAg6I7HzwdwNG6c9itpCi3Pp0QeU1JJAfHSZGpRXc9dKruGPmIBUADBeObujM4oTDEp5cROakonJtv2QqSk++JXpebv01etmxZGILP647hBBEf7FVK5GM5+Pn/Eyfi9tu5d7jLWABcVrirYzIA3itHRPR/igqNigm6Q+QbFgCXKcM4SncGIiKv4Xuj+1gAXCZKBujOQETkNaIsvje6jAXAZaKsnNrOi4jIDqJQrDtDvmEBcJvk2F5eRER24Huj61gAiIiI8hALABERUR5iASAiIspDLAAuKwgYXARIRHSQSDDA/VFcxgLgoqtXvTF8dFXlhbpzEBF5zVH9+1145SsbR+rOkU9YAFwyb/WGo00xXg4aRj/dWYiIvCZoGH0DAXPF/PqGY3VnyRcsAC6Yu2r9WUqpfwCo0p2FiMjD+llQz89Ztf5c3UHyAQuAw+bWr/shBMsAxWv/RES9KxDBI/NWravTHSTXsQA4RSmZu2r9LwG5Dfx7JiJKhyiRG+bWN9wGpbhBkEM4MDng7GXLAnPXbPgtBN/VnYWIyL/UD+fWb3iwbvnyoO4kuYgFwGZ1y5cHhw6ruR9KfVN3FiIi3xP11baSqt9fWl8f0h0l17AA2Oj7W7YUtJVWPgpRX9WdhYgoZ4g6pwKFj9ct3xrRHSWXsADYpK6+vijSFHsSkDN0ZyEiyjUK6pS20rZn6xoaSnRnyRW8rmKD+fX15W2IPA2oY3RnoR5EFbDH6vrTqTuMBn0FqDSAPh7r/QkFNFrAbguICNA/AJRx3Rd16/jWDvXs/Pr6UxfU1jbpDuN3LABZuvqNN/qYMeNZANN0Z6FumACejXb9WR0D4roDecDgAHB8GDi3CDgkoC/Hy53AXzuBFZ1Am/rPrx0ZBI4vAM4t9F5hIa0EONZCwT+uqt/0hSW1o/bozuNn/JeVhWtXrhtgxowXwcHfm9bGgXP2Ajc0Ays5+P9/H5jAwx3AWXuB21u7SpKr57eAy/YB32sC/if66cEfAN5KAL9tA764F/h9O9DNt1A+k0kG4v+ct+bNQ3Qn8TMWgAxd8frrg+NB+ReAcbqzUDeeinYNMlvdHt18JAbggXbgu/uBFpdG2LVx4IJGoD7FNtamgKWtwLVNLHB0sNGwEsuveP31wbqD+BULQAauWbOmfzAR/DuAEbqzUDde7gRubOaAkapVMeDqJudnAt41gR82Afut9F/7907gpmb7M5GvKWBkKBH8x9xXGwbqzuJHLABpml9fX56wQn8DUK07C3VjnwVc0+z+tLbfrYwB97c7d3wTwPwmoCWDwf8TT0WBZ6K2RaLcoICRMNRzV6xo6Ks7i9+wAKRhztq1xSYiTwEySXcWSuKedvems3PN/W1dq/Gd8FQHsCWR/XHuaO26m4PoP40LhtUz8/79ZqnuIH7CApCiK1asKJR44CkB+KhKr4oCeMLBT7G5rl11fcp2wh877DnOLgv4Vz7ew0kpmKYiiWfnrF1brDuIX7AApKCuoSEcDJc+BuB43VmoBy93dpUAytyLDgyuH5nAZhs+/X/ixZh9x6Jcc4zEg49/f8uWAt1B/IAFoBdnL1sWaOtQvwfkZN1ZqBebuOova078HW5O2Hsb32b+nKknamakKfoHPkCodywAPahTyhg6vPpBAGfrzkIp2MNrw1mLwv41FLttXldg9/EoB8kZbSVV99UpxTGuB/zLSUYpaVuz/i4A5+mOQinib7M97P57tHuzQe4STKkQ9dXW+vW/hVL8jUmCb5lJzKnfsABKLtOdg9JQyV/nrBUJUGzz+2WlzQ2gSuP2xeQrInLh3NUNP9edw6v4jtmNOavXXyKi5urOQWkazceFZ0uNduCy6VFBez+1H8VLu5SWq+fVr/+O7hBexAJwkKtWNZwkCnfpzkEZmBrq+gRLGZPjHVg83d8Aqm0sZ05kpJymILfPWb3+NN05vIYF4ABXrmqYKKKWgU9J9KcCAc4s1J3Cv0oM4FSH/v7Os+m4gwPAsSwAlC4VEIWH577aMEF3Ei9hAfjYvDVvHhIQ9YQAJU6exxB+QnXURcVABX+tM3JZEVDm0O/niRGgxoZZgMuLAV7pocyUwlBPX/nqusN0B/EKvlMCmPfvN0stK/EMgEOdPlfY4AImR5UJsLicg0S6ji8Azi1y7vgGgAVlQJ8s3nLOKwROiNgWifLSIQEDz8yvry/XHcQL8r4AXFpfH1KRxGMCjHfjfGWFYTdOk98mhoCflwEcK1Lz2QLgpjLn3w0GBYBfVgBVGZzoS4XA5dzmnewgYywV4UZBYAFAOQp/AeBEt85XWcRr1K44IQLc2xeozvt/48kVCfC9YmBJOVDo0qWpo4LAQ31SX8hXYQDXlXb94eQZ2UUwq620/690x9AtrwvA3NXrrgXUt908Z2k4jIoIFzG5YlQQeLBv1yWBzxXwDoFPjAwBlxUDf+0HXFjs/rtAZaCrdNzXp+uT/cGXBQwA40LA5SVdGb/E0kyOuHje6nV5fbt33n48mreq4ctKqZt0nHtEvz5Y9cEOHafOPwJgRkHXH6Drcbd7LSCRh9sGlxldmyUVeKQIjQt1/bmuFGixup70V2wA/Qyu4SBXKCW3zFm97q3Fk8c+rjuLDnlZAOatWjtKifodNG0qOqaqEq9/tAtxi3uau66v0fWHvKXU6PpD5C4DSh68ak3DtCWTajboDuO2vPsXN+/fb5YqCfwZQJmuDMXhEMYP6q/r9ERE9DEBSgwLf/7+yi3axgRd8qsAKCWqMHEfgGrdUSYNGoiiEOc5iYj0U6MiwegD+fbgoLwqAHPXrL8GCmfpzgEA4YCBk0cMQ8DIqx8BEZFHyRnz1qyfozuFm/Jm9Jm3puFzUMaNunMcaGBpMY4fxk2piIi8QCnj5rn161y7LVy3vCgA8+sbDleW+gOgPHcn8ejKvvjCkcMQ4kwAEZFmKgDII1e/tnGo7iRuyPlRp2751oil1J8AVOrOksyIfhU4o3oESsJcE0BEpFk/0zT/+P0tW3J+w5acLwBtZe13QlCrO0dvBhQX4fzx1fivww9BOOi5iQoionwyNbK/83bdIZyW0wVgzqqGy6DUN3XnSFXIMDB50ABcML4axw4ZjIElxTDyak0qEZFHCC6du2qdb8aPTOTsRkBXrWmoFgtLdefIRCQYxISBVZgwsAoxy8S+9ihaOmN41/oIr+kOR0SUL0TunLNqw6uLp1Sv1x3FCTk5A/D9LVsKxFKPAMr3m4iHjQAGlBTjyH59cGg5n4ZGROSiiCHWg3UNDTn5GNecLACF+ztvcevxvkRElLsUMLEtqn6qO4cTcq4AzFu1bqYS/FB3DiIiyhEKc+atafic7hh2y6kCcFX9pkqIPABND/khIqKcZCgLD1zzysZ+uoPYKacKgIH4bxUwSHcOIiJKj/c/tanBiYD1G90p7JQzBWBe/bpvAfii7hxERJS+oOGH/U/Ul3Lp1sCcKABXr2440oIs0p2DiIgyUxT2yV3pIrfPW7V2lO4YdvB9Abi0vj5kKvWwACW6sxARUWb6RiK6I6SqGBJ8OBduDfR9AShH5EYAU3XnICKizISNACqL/bNti4Ka3NahrtedI1u+LgDz16wfD+Aq3TmIiChzh/cphSHeXwZ4kKvn1m+YpDtENnxbAOqWLw9alroXAB+hR0TkY9X9Pfuw1p4EAet3dcuX+2Txwqf5tgC0l1bNBcTX7YuIKN8dUlaCw/27zfmE9tIq324858sCMPe1DSMU4PvrL0RE+W76oYfojpAVBXXj3Pp1R+jOkQn/FQClBAnrV7nwoB8ionw2cVAVBpYW646RrSJAfgOlfLeIwXcFYM6ahoshyLk9mYmI8snh5aWYfvhg3THsMmPumg1f1x0iXb4qAHNfbRgoCgt05yAioswdUlqCWUcO88H2v2lQasm1K9cN0B0jHb4qAErUnQD66M5BRESZGVXZF6ePPgLhoB+2/k1L30RIbtMdIh2+KQBzV687VQRn6s5BRETpKy0IY+YRQzDziCEIim+GnrQohXPnrGrwzTNpfPFTmF9fXw4ld+vOQURE6SktCOOYwwfj/PGjMaqyr+44jhNRd8z795u+uK/RFxsYWBK5AQr+vlckS9FEAh2JhO4YRERJlReEUVhSgLKCEPoVFeKwslIMKPH9Kv90HWZFEj8CcLXuIL3xfAG4enXDkaZS39Gdw2172jrw1r592N7cisb2DsRMC9bOFt2xiIiSOmnEcPSvzLsB/1MEuGLuaxt+t2hi9RbdWXri+QJgKusXgBTozuGWHa1tWPH+h/iwuVV3FCIiykwYprkQwJd0B+mJp9cAzFm14fOAnKw7hxs6Eyb+tmUbHmvYzMGfiMj35Iy59etO1J2iJ54tAHXLlwdFzKW6c7hhf7QTj23YhLca9+mOQkREtpGlXn5YkGcLQGtp5XcAGaM7h9P2tLdjWcMm7Ovo1B2FiIjsVd1WWnmJ7hDJeLIAXP3GG30E8mPdOZzWHo/jqU3vIJYwdUchIiJHyE3XvLKxn+4U3fFkATA7jZ8C8ORfmF0UgGe2bEVrLK47ChEROaevaZjX6Q7RHc8VgKvWNFRDcJnuHE7buHsvdrS06Y5BREQOU4LvzX+1oUZ3joN5rgCIpW6FD25PzEbCUnh1+0e6YxARkTuCVsDy3HMCPFUArlrVcJIAX9Cdw2kbd+/l1D8RUT5R8vl5q9bN1B3jQJ4qAIaoOt0Z3LBpb6PuCERE5DIF+TmU8sxTkD1TAObVbzgDwFTdOZwWS5jYyWv/RET5R1A7Z/V6z2xu540CoJRYsOp0x3DDzvY2KN0hiIhICwFu9MosgCcKwJw1688WYLzuHG5o6ojpjkBERNrIpDlr1p+hOwXggQJw9rJlAVFSpzuHW6ImN/0hIspnouSndUppH3+1BxhyxOivABitO4dbTMvSHYGIiPSqaVuz/mzdIbQWgK5P/4Ynd0giIiJyiii5UfeDgrQWgKHDRn8dUKN0ZiAiInKbAka2l1R+RWcGbQXg0vr6EER+pOv8REREOimRGy6trw/pOr+2AlCBgosADNd1fiIiIs2OKFMFF+g6uZbrD5fW14cU5God56b89Nq2Nvzt9X14d3cUO5pi6IhxMSb9n8KwgUEVYQzpX4BZE/pgwpAS3ZEoT4jItXXLlz9QN2NGwu1zaykAFYicp4AhOs5N+eUvq/bix8vexYbt7bqjkE9c94d3UX1oEX56zhB8sTann0pO3jC8tbRqNoBH3D6x+5cAlBIFNcf181JeicYtXPDLTfjyrRs5+FPaNmxvx1lLNuKc295Eeydni8hZAjVfx+6ArheAefUbTgNkjNvnpfzR3mnhczeuwyMv7dYdhXzuT6/swYk3reclI3LauKvqN8xy+6SuFwAlap7b56T8cvHdm/HKWy26Y1COWPlWMy65e4vuGJTjDAPzXT+nmyebX99wLIBj3Dwn5ZdnXmvEspf36I5BOeYPK3bjubX7dMegXKbUcfNWbzjazVO6WgBMpa5w83yUf+qWvac7AuWoG/i7RQ5TlrrczfO5VgCuWrNhiIh80a3zUf7ZsiOKNdtadcegHFX/Tgs2f9ShOwblMlFnza9vONyt07lWAAzL/D6gAm6dj/LPc6836o5AOe5/3tivOwLltqAJ9R23TuZKAahraCgB5CI3zkX5693dUd0RKMe9t4e/Y+QsAS6ds3ZtsRvncqUAtHXgQgAVbpyL8ldjm+sbaVGe2dMS1x2Bcl8fiRuubA/sfAFQSuDilAblr34l2p6pQXmif2lYdwTKC/I9NzYGcrwAzHttwwkAjnL6PESHVRbojkA5jr9j5JLquavWfdbpkzheAJRS33b6HEQAMGtCX90RKMfNHMcrmeQOCRjfcvocjhaAy+s3DILC6U6eg+gTIwZGMH6IK2tnKA9NHFqMkYMKdcegPKEUzrx25boBTp7D0QIQgroEAC/MkmtunM2HTJIzfnrOUN0RKL+E40HjQidP4FgBOHvZsgCgLnbq+ETdOWVSX5w1rVJ3DMoxZx9diVkT+uiOQXlHXVanlGPjtGMHHjpszBcAHObU8YmSufdbI1E7vFR3DMoRU4aX4HffGqk7BuWnoa31G09w6uCOFQAllqNTF0TJFEcMPH/9GJwxpZ/uKORzJ0/si+d+NBZFBa4/OJUIACAOjqWO/FZf88rGfgKc5sSxiVJREgng0StG4w+XH8WFW5S2kYMK8cfLj8Jf51ajrIg7mJNWZ179xhuOXH8KOnHQeCBxvkB4wyxpJQJ8eVolzppaifqtrfjb6/uwdWcHdjbFkbCU7njkIUFDMKA8hOEDIpg1oQ8mDyuFOL4NC1FKIlZMzgHwa7sP7EgBEAin/8kzRLqu404ZXqI7ChFR2lTXmGp7AbD9EsD8NevHA5hg93GJiIjy1NT5rzbU2H1Q2wuAacr5dh+TiIgon1mC8+w+pr0FQCkRUbNtPSYREVG+E3W+3Q8IsrUAfPzwAm7FRkREZK8h81et/y87D2jvDIAYtk9R5JqAwfuJiYgofZaIrWOsbaPRpfX1IQjOsut4uaogwHuKiYgoAyKzL62vt+35OrYVgHIp+AIAbr3Wi4rCsO4IRETkS6p/uRR+zq6j2VYAlJIv23WsXDagqBjcX4SIiDKilG0z7bYUgEvr60Pc+jc14WAAA0r4zHoiIsrIGXXLl9uyiZ8tBaAcBTMA9LXjWPlgVCUfK0pERBmpbC/t/xk7DmTPJQDBmbYcJ0+M7l+JkrBt6ziIiCiPKGXPgvusC0CdUoYoOd2OMPkiaAimDh6kOwYREfmR4Kw6pbIev7M+QFt9w38pgKNZmkZX9eNaACIiysTA9jUbp2Z7kOwvAQhOzfoYeUgAnDJyGC8FEBFR2pSyTsn2GHasAeDq/wwVhUI4ecRwhLk5EBERpSfrD99ZFYCr1mwYAsD2RxTmk6qSIsweMxJ9IgW6oxARkX9M+HgMzlhWBcCwFBf/2aAiEsFZNSMxvG+57ihEROQTAcs8KZvXZ1UAFFTW1yCoSyQYxMkjhuPM6hEYWMrFgURE1DMFyWoMzrgAXLFiRaEAx2Vzcvq0Q0pL8OXqkZhdMwqTBg1AVXERgsInCBIR0aec8P0tWzK+fpzxdoLhgrLPWgqRTF9PPasqKUJVSREAQCmF9ngCmze+jxewTnMySsf2xk48Wd+If7/ZhA/3xdAZV+hfHsKoQYU4ZXJfHDuqHAHN/e6tHR34a30jXn2rBTv2xRCNW3oDaVJZFsKQ/gWYNb4PZo7rg8Iwizd5XlFBc+wYAP/I5MUZFwBLqZngY21cISIoDodQFOItg37x/t4Y6h7dht//axfMbsbTpwHc+vQHGDmoEDedOwRnTq10PePGDzpw3R+24a/1e10/t5fd8/wOVJaGcO2XDsO3Zg5COMj3OfIuUWomMiwAWVRcmZn5a4ly1/Pr9mPS/DV44H+7H/wPtPmjDsxe+ia+escmdMTc++S97OU9mPaj1zj4J7GnJY4rH3wHn//pOuxsiuuOQ5SUZDEWZ1QArl25bgCAsZmelChXPftaI05d0IB9bYm0XveHFbvx5Vs39loY7PCbF3bg/DveRHtnfk71p2PF5mYcX7cWjWn+PIncoqAmQ8yQjAAAIABJREFUXrNmTf9MXptRAYiFMBOc/yf6D5s/6sD5v9yEhKkyev1za/fhR/+9zdZMB/v3pmb84L63oTKLmJe27Iji3Nve5N8ZeZWRUKETMnphJi8SGDMyeR1RLpv38FY0t5tZHWPpM9vR8H67TYn+k6WAK+9/B/EMC0o++8f6/Vi2co/uGETds8S9AgClePsf0QHWbGvFU6sbsz6OaQE3/+V9GxJ92hP1e7FmW6sjx84HNz72ru4IRN0TfDaTl6VdAC6v3zAIwBGZnIwoV/3pZfs+HT61ptGRW/Ee4yfYrGz6sANvvNumOwZRd0Z9vDYvLWkXgCAUp/+JDvKP9fttO1Zr1MQrb7XYdrxP2JkxX/2jgX+H5EmSCBifSfdFaRcAESujqQaiXPb+3pitx9tu8/E64wq7W3g7W7bs/rkQ2UVlMDanvwZACQsA0UGao/beJrbf5tvOmqMJrmK3wb42lijyJoX0x+a0CsA1r2zsB+CodE9ClOv6l9q7S+OACnuP17c4pH3L4VwwsDysOwJRtwQYO7++Pq1Hyqb1lpAw1DTw/n+iTxk2wN7HYgyrsvd4AQMYUslHd2RrqM0/FyIbGUoVTE3rBWkdXqxpaX0/UZ6YNaGPbccaUB7CxKElth3vEydNtC9jPhIBZk3oqzsGUVKWyNHpfH+6k4JpHZwoX5x9dH/bHhpz3jH9YTgwz/aVYzPaLZQ+9tnR5TisHy8BkHcZkLQ+pKdeAJQSAFPSDUSUD4ZUFuDSzw/K+jilhQHM/eJhNiT6tKOPLMNptf0cOXY+uPGcIbojEPVIQR398VidkpQLwFWr140CwDlEoiRu+PLhGDmoMKtj3P6NI1BV5txjn2/7+nDbFyzmgx+cdAiOGVmmOwZRb/rNfX3jkal+c8oFIKCEn/6JetCnOIjH51RjQHlmA+y1ZxyGr322yuZU/2lIZQEevWo0SgsDjp4nl5wyqS8Wnj9MdwyilChTpTxWp7EGQCZlEoYon4w6pBArfzYRk9JYxFcQEvz6kiNdm2I+dlQZ/lk3HkfYfOdCrhEBLj95MP58VTWCAd78RP4gwMRUvzflAqAMSfmgRPnssH5hrLhpPH59yZEYVlWQ9PsiIQNf/UwVGpZMxsUnDHQxITD28CKsXTQJt5w/lPe2H8QQ4PNjK7DipglY/LVh3D+B/EWplMfqYIoHFKxuGJdxIKI8EwwILj5hIC4+YSBe29aGl95swof7YmjrNDGgIozRgwsxc2wflET0TcVHQgbmnHoorjzlUKzc0oxVb7di+54oWjvtfxCR1wUMQVV5CMP6R3Di+D4ZX8Yh0k4wIdVvTakAXF2/bpgpBhcAEmVg4tBiTBxarDtGUoYA00eWYToXuRHlgn7z6xsOX1Bb815v35jS5JaFAK//ExER+YCpUlsHkNrVLVGc/iciIvIBEYxP5ftSmwFQqMkuDhEREblCoTqVb0upAIikdjAiIiLSTKyUPrT3WgDqGhrCAFLeWYiIiIh0kpF1y5f3usi/1wLQ2i4jkertgkRERKRbuKW0X68f3HstAGKYvP5PRETkI4Yyeh27ey0ACsZR9sQhIiIiVwhG9/Ytvc8AKGuEPWmIiIjIDSqFtXsp3AUgXABIRETkI2JPAeAdAERERD6TXQG4/LXXKgD0sy0OERERuWHAvH+/WdrTN/RYAALxEK//ExER+ZAKm0f09PUeC4ARUMPtjUNERESuEJV5ARAlQ+3MQkRERO4QkaE9fb3HAqAUDrMzDBEREblDoecxvOe7AAwWACIiIj9SSmVeAIQzAERERL4kvXyI7/kSQC/TB0RERORRCof39OWkBeCKFSsKwT0AiIiI/KqqbvnWSLIvJi0AwXDpIQDEkUhERETkNIlWRAcm+2LSAmBYGOBMHiIiInKDlbCqkn0taQFQRiDpi4iIiMj7LEMl/TCftABYKvmLiIiIyAcslf4MgAgvARAREfmZGMnH8uSXAMAZACIiIl9TRvozAAZUpTNpiIiIyB0ZXAJQMPo4E4aIiIjcIIKKZF9LvhOgqKQvIiIiIu9TlmRQAFTy1kBEREQ+ICrpbH4PzwJI3hqIiIjIFzKYAYAqdyIJERERuSa9GYC6+voiAGHH4hAREZEbCpI9EKjbAtAaCpU4m4eIiIjc0FkULe7uv3dbAIJWuMjZOEREROSGTkl0O6Z3WwDiymIBICIiygFB6X5M734RoDILHU1DRERErlAq2O2Y3m0BMBDgDAAREVEOMJDGDIABxQJARESUA0zp/kN9twVAWVLgbBwiIiJygxhm6rcBWoYVcDYOERERuUFZRrdjeveXAJJ8MxEREfmLkeRDffeXADgDQERElBMsINjdf+++ACjOABAREeUCsST1GQBRqtu2QERERP6iDJV6AYAhPTwlkIiIiPxCYKR+CQCWshxNQ0RERK4QyzK7++/drwEQSTgbh4iIiNyg0P2Y3v0MgFgsAERERLkgyYf6bq8LiCUmxNk8RK5rVsAOE9indCchL+orwIAAUMY3P8otKsmH+m4LgIIkBHyTpBwQA/B4B/C3KLA+DnB1C/XEADAmBMyKAGcWAiHdgYiyJ0C8u//e/e1+YiXAKQDyu1fiwE3NwIfdrn8h+jQLwBvxrj8PtwHXlQFTw7pTEWXJSH0NQICLAMnvHu0Avr+Pgz9l7gML+N5+4LEO3UmIsqKsNBYBKoWYs3GIHLS8E1jYAnDsp2yZAG5pAf4nqjsJUcZEJbq9BND90wAh7c7GIXLIbgv4cTOv9ZN9FIAbW4A9bJTkTxKUtu7+e/eXACy0OhuHyCF3twHtXMBKNmtXwD38XET+ZFqq2zG92wKQCAoLAPlPuwKe4VQtOeTJDqCN5ZL8J5BIowDACnQ7XUDkaS/HgE6+QZNDYgBe5fIo8h+jKI1LAKUtYc4AkP9s5s0r5DD+jpEPNcZiqc8A1M0YFgXA33Tyl71c+UcO283fMfKdzntqa1O/C6BL91MGRJ7V7ROviWwU4gZp5DtJx/IeCoBqciIJkWMq2QDIYf1YAMh3mpN9IWkBEGCvM1mIHFLd/c7WRLYZw4cDkM8Idif7UtICoCB7nElD5JApYaCEn9DIIaUCTOZzAchfBEg6liefARDFGQDylzCA2YW6U1CuOqeITwck31GWJB3LkxYAq4fWQORZFxRzLQDZrzIAfK1IdwqitAlU+jMAhsUZAPKhUgEWlXXNBhDZoUCAxWW8vES+pCT5er7kawDEYAEgfxoXAhZX8A2bslcqwOJyYCzn/smfMpoBgEr+IiLPOyYM3N8XqOUbN2WoNgTc3weYzukk8i+F5B/mk943JYId3FWdfG1YALi7D7AyBvwtCrwUAxq5kxv1oJ/RVR5nFQLTWB7J/wzgo2RfS1oAVMDYDpNvlpQDjg53/QGAqOoqAWy3dCAB0NcAIrxsRLlFAsb2ZF9LWgASHfu3B8NlziQi0iUiwCG8S4CI8oJqKwkmnQFIugZg6fTpHQAaHYlERERETtt9x4gRncm+2MOzAAAASacOiIiIyLsE+KCnr/dYAER6fjERERF5k1I9f4jveQaglxcTERGRR4lkPgOgICwAREREvqSyKABivWNvGCIiInKFwts9fbnnSwCienwxEREReZNAsigAARYAIiIiP4rH8VZPX++xACweP34XgGZbExEREZHT9i+dXtPjXj697QMAAFwHQERE5CeCLb19S68FQKHnKQQiIiLyGNX72J3KDADXARAREflLr2N3rwXAENlkTxYiIiJygyi1ubfv6X0GwEKDLWmIiIjIFQkY63v7nl4LQFERNoBPTyciIvIJMVW86c3evqvXAlBXU9MK4F1bMhEREZHD1DtLp0/v6O27UlkECAC9TiUQERGRF0hKY3ZKBUCB6wCIiIj8QaU0ZgdT+SZDqQYlkl0eIp0UgC0J4CMTaLTyc1VLoQFVZUBGBoFSD/17/sAE3kkA+xRQIECVAYwOARHdwYj8SanUPrSnVACUMtZB8vEdk3xvvwXc3w481wnsMnWn0U4AIARgchi4oBiYFtITpFMBj3YAf+0A3unm5xIB8F8FwDeLgeqU3qaI6P/r/Q4AIMUC0GR0NJQjEgU7OfnJk1FgSQvQwvL6H+IAVsa6/nwmDNxYDpS5OCPwWhy4rgnYYSX/niiA5Z3Ai53AaRFgfikQ8dCsBZF3tZe07uz1DgAgxTUA99TWxiFYl10mIhfd0QrUNXPw782/YsAFjcCHLs2OPNsJfHtfz4P/gRSAJ6LAJfuAZv4siXqjBK/XzZiRSOV7U70LAFCyOuNERG5a1tE17U+ped8EfrDf+bL0ehz4SVPXDES6NiSA+U0Ar+IQ9chQUp/y96Z+WMUCQN73rgksadWdwn+2msBdDv69RQFck+Hg/4lXY8DDLHZEPVEq9bE69QJgpd4qiLS5qxVIcKo4I3+Ods0GOOGP7cCuFKf9e3JvO9Biw3GIcpSRxmx9ygWgyehoAKTXnYWItGmyuhaOUWYSCngq6syx/2LTW0eLBTzPnzFREu3vbGtIaQEgkEYBuKe2Ng4oLgQk7/p3jNeIs/VPBwbXd0zgPRt/MP+K2Xcsotzy2qOzZ6f8jy2NNQCAQFamn4fIJdtSWvhKPdmasH+TpG3ZXPjvxlb+nIm6Jy+n891pFQBLrJfSC0Pkor289p+1OIBmm6+x7/H48YhyhEDSGqPTmwEwjX+mF4fIRQW6A+SIAps33Imk9TbTO7vzEeUGZYXiK9J5QVr/MhdNrdkB4J20IhG5pX9AdwL/KzXs33Gvv93H48+Z6GACbFk8fvyudF6TdjVXkt4UA5FrxnPP+KxNcuDZAGNCXc8fsIsTGYl8zlIq7bE5/bk5CywA5E0TwkAfm6eb881xYfuPWWp0PXzILk5kJPI/5wtAQOHf6b6GyBUBABcU6U7hX4MCwCyHnvf1TZt+LjUhYAoLANHBDFhpj81pF4AFU6o3ANiT7uuIXHFOITCE14gz8sNi5xbYTQ4Dx2e5SjMAYE7Jx880JqID7FpYO25zui9Kf75URAFYnvbriNxQIMCtFUAJLwWk5atFwEyHn/Z9YxlwRBbrNK4sAcbx+j9RN174eGxOS0bvkkrJC5m8jsgVQwPAbyq6prSpd18pAn5Q4vx5igW4s6JrGj8dAXTlO5eXd4i6o5TKaEzOqACIWM9n8joi14wMAg/2AU6NZPhbngcODwBLyrum1d3qSv2NrnL2zSIglQmH0SHg7j7A1zn4EyUTDAYzKgAZzcctqh379tz6hq2AGpbJ64lc0dcAflIGfKMY+HsUeCkGfGgC+/J0J7mIAJUGMDYIzIh0raYParigXiDAd0u61mv8vRP4Z6xrG+dGCwgLMCAATAwBMwqA6WFe8yfq2ZZbJo7elskLs7ggp14AcHHmrydyybAAcFlx1x/yjsoAcF5R1x8iypBkPCOf8eSoUuA6ACIiIp0yvP4PZFEAQoHYCwDydC6ViIhINzETccn4rryMC8DNkybtBtSrmb6eiIiIsqFWLJ1e05jpq7NcHy1PZ/d6IiIiyoQAWY3BWRUAw8CT2byeiIiIMmMaktUYnFUBWDBpzFoA72ZzDCIiIkqXbF0yqWZDNkewYYsUeSb7YxAREVGqBNnPwGddABQsrgMgIiJykR1jb9YFwIy1/ANAe7bHISIiopS0RMsj/5vtQbIuAEunT+9QAC8DEBERueOpO0aM6Mz2ILY8JkVEPWbHcYiIiKhndo25thSAYtX5JIA2O45FRERESbVbQes5Ow5kSwGoq61tVwq2BCIiIqIklDy5ePx4Wz5w2/akdAF4GYCIiMhBdo61thWA4iJ5EpAOu45HRERE/6HdCieetetgthWAupqaVkD93a7jERER0QEEz9o1/Q/YWAC6yMP2Ho+IiIgAQEHZOsbaWgCKW4qeBLDfzmMSERERGjvLIrbuuWNrAaibMSwKLgYkIiKymfzRjs1/DmTzJQDAMoyH7D4mERFRPlOGafvYansBWDJx9L8AvGP3cYmIiPLU24snjl1p90FtLwAQUQAesf24REREeUiJPPTx2Gor+wsAANMMPATA9rBERER5Romyfu/EgR0pALdOG71ZlPqXE8cmIiLKI8sX1Y5924kDO1IAAMAy8Bunjk1ERJQPlHJuLHWsAJQ0lzwGoNGp4xMREeW4vZ0VBY87dXDHCkDXngDCWwKJiIgyIvfZfe//gRwrAAAgYt0NLgYkIiJKm4h1r5PHd7QALJw8diOAFU6eg4iIKAe9+PEY6hhHCwAAiFJ3O30OIiKinKJwj9OncLwAdFRElgHY4fR5iIiIcoEAHxUXyZ+cPo/jBeDjBQyONxkiIqJcoIC76mpqYk6fx/ECAAAqZN4JwLGVjERERDmiM5RQruyj40oBWDx+/C4oedSNcxEREfmVUuqRnx89dqcb53KlAACAZZi3uXUuIiIiPzICuMu1c7l1oiWTx62GkpfdOh8REZGfiFL/XDhpbL1b53OtAAAABEtdPR8REZFPWAZcnSl3tQBse6fhzwC2uHlOIiIi75NNJZPG/NXNM7paAB6dPdsUkcVunpOIiMjrRLCgTsRy85zuXgIA0FEWfgDAh26fl4iIyJvkg6IIHnb7rK4XgDtGjOgU4Ha3z0tERORFCrjVjY1/DuZ6AQCAjkTBrwDs13FuIiIiD2k0ogFXNv45mJYCcMfRI5oV1K90nJuIiMhDfrnw2KNadJxYSwEAAIXwrQC0/J8mIiLSTQGtQSP2S13n11YAltSO2gMBZwGIiCgviZLbb540abeu82srAAAQTAQWgrMARESUZxTQGgx0at0iX2sBuHna6L0KStv0BxERkQ4C3Kbz0z+guQAAQMgMLgHQrDsHERGRS5oTMdG+Nb72AnDztNF7wX0BiIgof9y2dHpNo+4Q2gsAAATC1q3gvgBERJT79gfCltZr/5/wRAG4Zdy4fYAs0J2DiIjISSLq511jnn6eKAAAUNxSdBuA93XnICIicoZ8UKQ679Sd4hOeKQB1M4ZFoVSd7hxEREROEKgf1dXWtuvO8QnPFAAA2LZ14wMAGnTnICIispes2/rOht/rTnEgTxWAR2fPNpXgGt05iIiI7GQpzH909mxTd44DeaoAAMDiyWOeBLBcdw4iIiJbiPzvkik1z+qOcTDPFYAuxhwAlu4UREREWbJErDm6Q3THkwVgUW31GqXUA7pzEBERZUXhtwsnja3XHaM7niwAAICwdTUgTbpjEBERZagZSm7QHSIZzxaAxePH7xKxfqY7BxERUSaU4IZFU2t26M6RjGcLAAAURYxfALJJdw4iIqI0bWxWUc9s+tMdTxeAupqamIJ1le4cREREaRG58p7a2rjuGD3xdAEAgMW1Y58WyNO6cxAREaXor4sm1/xNd4jeeL4AAIAA3wHQpjsHERFRL9oDgcDlukOkwhcFYEFtzXuA3KQ7BxERUU8U5PpbJo7epjtHKnxRAACguGXXYgWs1Z2DiIioe7KuGR136E6RKt8UgLoZMxKAXAbuEEhERN5jKcO8zOsL/w7kmwIAAItra14BcK/uHERERAdSwK8XTxr3su4c6fBVAQCAREzmA9ipOwcREREACPBRIhD/ke4c6fJdAVg6vaZRlFyqOwcREREAWKK+e9vEift150iX7woAACycUvOEQC3TnYOIiPKdenjx5LGP606RCV8WAAAwEf4ueCmAiIi0kd1BI36F7hSZ8m0BWFI7ao8S9QPdOYiIKE8p9e2bJ03arTtGpnxbAABg8eSxyyD4k+4cRESUZ5T8cdGUMb4ef3xdAAAgFFffBbBHdw4iIsoXsjsY6Py+7hTZ8n0B+PnRY3cKjEt05yAiovwgChf7eer/E74vAACwsLb6LwL5ne4cRESU40TdvXBKzRO6Y9ghJwoAAFihxA8F2Kw7BxER5ay3iyPGHN0h7JIzBWDx+PFtMNT5AHyzDzMREflGQkHOr6upadUdxC45UwAAYOGksfWi1M915yAiohwj6oaPn0eTM3KqAABAUeuem6DEVw9kICIiT/vXtrc3LtAdwm45VwDqZsxImMo6B8Be3VmIvExZJqxoC8zWvUi07obZ3ggr1ube+c04zI79MFv3ING6B2b7fqhEzLXzW7F2mO37uv6/t+6F1dEMZZmunZ98o9EyjK89Ont2zv1yBHUHcMKtU8e+P6d+3dcF8iQA0Z2HyEusRCcSzTthRZsBpT71dTGCCBT3RaCkEmIE7D9/tBmJ5t2w4u3dft0IRRAsrYJRWG77uaFUV9lo3QtldbNcSARGpBTB0gEwQhH7z09+o0TJhUsmVb+rO4gTcm4G4BOLa8c+DcFtunMQeUmidQ9iu7bA6mjqdvAHAGUlkGjZhdiuzbBi3Q/SmVCWiVjju4jtfTfp4A8AVjyKWON7iO3ZCqXs+9BlxaPo3LkJieYd3Q/+AKAUrI5mxHZtQaJll23nJn9SwMJcueWvOzlbAACgSUXnK8EK3TmIvCDR9BESTR8lHfgPpswEYnvegdWZ/aJnZZmI79kKq6M55ddYna2I73rblhJgxdoR2/M2lJn6TUKJ5p2I7/8g63OTb73SjOj1ukM4KacLwD21tXHLVOeC6wEoz3Vd685gx2ylEN/7HpSZ3bX5+P7tsOIdab/OSnQivve9rM6trDjie98FLCvt15ptjTBb+faRh/YFAoFz76mtzenbynO6AABd6wFEyTcBpPaxhyjHKMvs+uSf6euViXjTjoxfb3U0p/XJ/1Ov72yF2bE/49cnmndCWYmMXx9v2ZHV68l3LAX1tVsmjt6mO4jTcr4AAMDCKTVPCHCT7hxEOpjtjVmvbrc6mmAlOjN6baI1+y3TzQyvxyszDrNtX3YntyyYLXzeWP6QnyyuHfu07hRuyIsCAABFk2vqBJIXP1SiA1ntTfYcpyP94ygzYctCQivemVEByWbm4UBm1J7jkMcpPFk8uTpvPizmTQGoE7E6EuHzAGzUnYXINUpldO29O5kcR8Xt21dAZVAkerrbIK1zJzptvSOBvEeAzYZEv1Ynkv5iEZ/KmwIAAHccPaLZgnUmANZ5ygu2XrtOpL8eSiXsO386K/j/7zU2nj+D///kDwpoFUvOXFBba890mU/kVQEAgCW1495Uor4BLgokShP31KKcpATyzQVTaxp0B3Fb3hUAAFg8eezjIsKHBlHOE8PGzT6D6R9LMnhN0mMFQhm8xsbzB9M/P3mfKHXjotqaR3Xn0CEvCwAALJxUfT2A/9adg8hRIjBCRbYcyginfxwJFdtybgCQDM6fSeZujxMsgIj92yKTXgp4bGHtmJ/ozqFL3hYAiKhErPkiADn1eEeigxlFZfYcJ5L+cSQQtGUQNkIFMIIF6b8uUgZI9pcuMvn/Tt4mkNUliH4dInl7OTh/CwCApdOnd8CSMwC8rzsLkVMCRX2zvhRgFJZnNAADQLC0f1bn7jrGgIxeJ4EQAkV9sju5YSBQWpndMchrPowH41+sq62172EXPpTXBQAAFk2t2QFLTldA9hueE3mQGAEEywdl/noJIFQ+MOPXG5GyrD5BGwUlWT0ZMFg2AGJkfv0+VDrQ3rUUpJUCWg0DJy+dMCHvH/SQ9wUAABZNrXkdSr4KCG/0pZwUKKpAsCSDT7EiCPU7HBIIZ3X+UJ9DM3q8rhEsQKjf4VmdW4xg1zGM9N/uuh6L3C+r85OXiAnBeQsmjVmrO4kXsAB8bPGUmr8qhe/qzkHklGD5IITKB6V8TVwCIYQrh8MoKMn63GIEEKocDqMw9ZkAI1KCUNURtiy+M8JFCFcekdZK/mDZAIQqBmd9bvKUKxZPHvOk7hBewQJwgMVTau6G4u2BlLsCJZUIV43omlJPUgTECCJYWtX1fTatou86bgDhvkMQ7jukxzsTjFAE4b6HI9xvmK0r741QBAVVo7ouCSS7PVAERmEZwlUjECytsu3c5Ak3LqqtuUN3CC/hha2DLKqtvm7umg0DodQ3dWchcoIRLEC47+FQlgkVa4dKxKCUBQkEIMGIrYN+t+cvLEO4sAzKjEPF2qDMBBQ+vmMgVAQJZne5oUciCJZWIVhaBSveDhXvhDLjEAlAAiFIQTHE4O1+OUfJ7xfVVtfpjuE1LAAHE1Hbli27dOjw6n4Avqg7jp8kzLy9m8aXxAhAIqX6zh8IQQortJ3fCBUBNu2R4JaExX9j6RLI00Wtuy6E1PAv7yC8BNCNR2fPNosRPQ9KXtadxU9ao1xDSeSklmjePKfGHoJVVihxTt2MGTY+FCN3sAAkUVdb2x4MdH4RfHpgyhpb+LAUIic1trEApKEhmAictHj8ePseSZljWAB6cPOkSbsTwcRMAO/ozuIHb+1oh+IkG5EjlALe2c2SnaK3xQieePO00Xt1B/EyFoBeLJ0w4QMDMgPAe7qzeF1rh4l393KmjcgJW/fE0drJGYDeyQfKNGcunHTUh7qTeB0LQAoW1Na8Z5qBmQB26s7idf/cktc7axI55sVNHboj+IDsFrFmLp42fqvuJH7AApCiW6eN3mwY+AKAfbqzeNnf1rMAEDnhuQb+2+qZNAEya+HksVy3lSIWgDQsmDRmLRROA9CiO4tXPbOuDfvbOU1JZKemDgt/38AC0INmEZm1qLZ6je4gfsICkKZFU8a8ZFhqFoBm3Vm8KBpXeHgl/2qI7PTgy83oiLFYd0+aRIwvLJxcvVJ3Er9hAcjAgqljVyjDYglIYunz+xHjWkAiW0TjCrf+nVceuydNIjKLg39mWAAytHjSuJdZArq3fV8Cv1zONywiO/zihf34qImbbH2aNCmAn/yzwAKQhcWTxr1siXUCuDDwU37+9D6818hpAKJsbNuTwIJnG3XH8KCuwX9xbc0rupP4GQtAlpZMHrdaxDgZwH7dWbyktdPC+b/ZwUsBRBmKmwrfuG8H2mPcXesg+0ThRA7+2WMBsMHCydUrDUuOFeAj3Vm8ZNW2KK56dLdrNLOyAAAOO0lEQVTuGES+9IP/3o2V70R1x/CanYaBGQun1LyqO0guYAGwyYKpNQ1Q5gwA7+vO4iW/+WcTbnySU5hE6ah7Yi/ue4nLiw7ynmkGPrtg0pi1uoPkChYAGy2cMn6TATkWwBbdWbzk58804sple8AnmRL1TCngmj/twS3PclnRf5JNpqWOvXXa6M26k+QSFgCbLaiteS+UUJ9RAFvqAe5avh+n3P4hdrZwNTNRd/a0mTjjrg+x9HkuJzpIgxiBE26dOpazqzZjAXDAz48eu9OMyQlQ8rLuLF6y/M12HP2z9/Cn1a26oxB5yrL6Fkz56ft4jltpH+ylQNj6DB/s4wwWAIcsnV7TGK0IzwDwqO4sXvJRk4nzf7sDM2/9AMvf5Jsd5bcXNrbjc4u344Lf7cRHTbxl5j+pvyRizTNvGTeO10McEtQdIJfdMWJE59nLln1l6LDqXRB8V3ceL/nXlg6c9IsOjBkcxnnTSnH6+BIcWRXSHYvIcVt2xvHE2jY88koLGj7s1B3Hk5TglyWTxvywToT7HztIdAfIF/PqG65RUD9DFn/nmza8jyd/94SNqexlFJfDqBqW8esP7RPE5CERjBwQwuCKIEoiBorC/BUl/2qPKbRELXy4P4HNO+NY/W4U2/fl7if988+dgP6VxdkcQkHh6kVTxiy0KxMlxxkAlyysrbl53qp125XI7wDwo243tu9LYPs+rg8gylMxBblw8ZSaR3QHyRdcA+CihVPGPqQUdw0kIjpIowCzFtdy8HcTC4DLFk+pfj4gMgXAm7qzEBHppoC3LFjHLKwds1x3lnzDAqDBLZNr3krE5BgA/IUnovyl8EIwbE1dUjuOH4g0YAHQZOn0msbilt0nQuFO3VmIiNwmwG+aJHoSb/PTh4sANaqbMSMB4HtzV61/GyKLABXQnYmIyFliKlhXLqode7vuJPmOMwAesGjKmKVKWZ8HsEt3FiIiB+0FrJMXc/D3BBYAj1g8ZeyLpqVqIVilOwsRkd0EeE2Z5pRFtWP/rjsLdWEB8JBbp459P9HZfByAB3VnISKy0f1FLcXTF08bv1V3EPo/XAPgMUunT+8A8PV5qxteUkrdASCsOxMRUYYSAly3sHbMAt1B6NM4A+BRCyfX3AOFEwD5QHcWIqIMbDcsdRwHf+9iAfCwRVPGvGQhOAFQz+jOQkSUKoE8bSE0ccHUsSt0Z6HkWAA8bkntqD2LJo85FVCXA8jdp4gQUQ5Qpij1k6LJ1acvqR21R3ca6hnXAPiBiFoE/OLom/+wxwiFf2/FY7oTERH9h+KSgsS+xuiZ9886+kndWSg1fNaqz0y85t7qt99+f2XLzh2lurMcLNvHARORPx06uPz9ysElx6/6zqnv6M5CqWMB8Cnj1OuXqLZ9V8AyPfMzZAEgyjvNgHwvfv+lD+kOQunjGgCfsp766VXB8qopEilu1J2FiPKQ4OWAYU7k4O9fLAA+Fv/Lj1dbz5X0l5J+y2DwR0lELlBICPCTeGufz0Tv/Q6n/H3MM9PHlJ3AaXVnqI6mR1Q8WqgrAy8BEOW8NyE4P37fZWt0B6Hs8WNjjjCfrPuLFSofiOI+L7HXEZGtFBIQ3B43C2s5+OcOjhQ5KHDqdReqjpa7VCIWcfO8nAHwMgXV2Q7V0QrE2qHinYCyur4kAUgoDISLIIWlkIJC8K2BDrAOkIvi91/KB5XlGP4rz1UnzimWYPAvaG/+PJRy5ZQsAB6kFKyWvVBNu6ASqe0fIcECSEUVjJJ+fIfIb3GB3Bprq/gxHp3NzUdyEP9557jAaXWnqs7mR1Rnh+P7BrAAeIvV3gTV+GHXp/0MSKgARr/BkMIym5OR96mVIrgodt+3NuhOQs4J6A5AzlKbX9ysJh260DCGHIZE5wQo5Vjpk3AEUtzHqcNTyhTM/Tuh9nwAWFnsHm2ZUK37AViQSCk/LuSHDgV1faKt78Xmw1/fpTsMOYv/pPNI6Kwbp5ltbY+rjuZBThyfMwAeoBSs3dtgtTXZelijqAJG1RBA+JaRq0Sppwwr8IPoQ5ds1Z2F/l979x9bZXXHcfz9Pc/9QSvS0jFogSrrnJugWzLMdGiyZEETtyD7hUvcpvgDEA2L2YwaHds1zv2xuGXRqAFlNBJNFJL5ay7OxmzJpiaLM/5CnQOVQYsOaUtpb+997nO++wN1BkFouc89vbff119Nenu+3zS9fT73POc5pzbs3TwJuSVrb9LhwRtI4qqeBWEBIDy/5z/4ofdSGdsd34abcUIqY5ugtnmRq5ONKx8L3YipLXsMcBLyj978C822zXJN056yDNg4/L49qV38AfzQXvw+O+CtgRQFborJnWoX/8nJ/vtPctmla89ISqX7tTjUdaxj2QxAOFqJSXa9Ct6nW0iEaO58JJNNt45Jlag+5kTXjHavfit0LyYcCwAGAHf+2p8wsv8WjUfHvXeABYBw0pz6P5g7/lO4GZ01qWWq7g2PXp10X/F46EZMeHYLwADgH7n5t356ZxstM7YQZVL+GGmqSeMSfqh2Z0L5/e+hsT0WXmf2qnJNPDz9VLv4mw/YDID5uCWFE6JK+QFfHDzzw93ijoLNAITh+3fjB3bXtKZrbcdNb69pTTMuZYTumOzP2Hjpf0M3YyYWCwDmsLJL156RjJY26ej+z8GRdxO0ABBGsut1tFysaU3JNxPNPrmmNc2YKLAlStx19lifORwLAOaIovNu/IFWir/TcnHGJ73OAkAA3lPZ8eLR5LMqEzLzTgOxu4gTjtKD+mvje1c/H7oVM7FZADBHzS0tXENxqKClkeMO+X0LADWnpSJJ7+tBakdzPo/kgp0+bQ4mPK+q11W6r3gydCumPlh8N0fNP1y41f/51uOj1vbrJd88FLofA/g4XO0kYG3zUS+henF8Yt/pdvE3Y2EzAGbc3DdvvIFS8QaNi8eBzQCE4EcG8O+8FaS2m/UZXHNLkNoGgBcFflnuXrkFpOY3gUz9swBgjpk7f+21jOz/ueTyx1kAqC0t7iPZvT1I7aj9s0hT6odMmo97QeAWu/CbY2UBwFSLRN+5+VI3beYK4IzQzUwWWh4l2fVakNrR3C8g2XHvG2XGTJ918KtS96rH7MJvqsECgKm6zMXrznXCTxXOwf7G0qWeytsvM5b9GqpCHJkTT7PTAdOnAk94J7+p/H5lT+hmTGOxd69JTf6i9Sf7SK9CWQHYcvGUJL1voKXhmtaUKVOJOk6qac1Jpgw8IJH/dXnD6pdDN2MakwUAk74f3TUzF7krVbkK4RP3EjBj5wffxe/trWlN1zYH1/LpmtacFJQ9IrIh8sntxXtX7wrdjmlsFgBM7ay5LZ/dl/s+Tq5HOSV0Ow0jqVDZuTX9kwA/4ByZuadAZCcCVtE2kNvjnN7N+lUjoZsxk4MFAFN7hYKL3uw4T4RVAt8AotAt1Tvf34cfeKcmtewcgCpRKiryR/WsS7p6n6BQsEO4TE1ZADBh/XBdRyajFwlyBTAvdDt1yydUdr4KSSXdOlGGzNz54GwPsfFS6HXIJhe5u0Y3XP526H7M5GUBwEwMhYLL7Jj9dfG6EuXbCJnQLdWbA3sCvElqBwMIuJlduOZp6Yzf2DzKUyKsL8/r+wOFQspJzZgjswBgJpymS+7oTDRzmVcuE2Fu6H7qiR94B9/fl8rYrm02rmVmKmM3sB2qsiGryQZb1GcmGgsAZuIqFFxmR8ciUZbhudCeIDgait/bhx98t6qjupaZuLbZVR2zgQ0Cjzh0c2m47XE2X5CEbsiYQ7EAYOrDmtvy+aHcuR5ZBnwXaA7d0kTm9w/g97wNeoy3A0RwMzpxU9uq01jjKonqkwqb47xssZX8ph5YADD1Z/nG1qyWzhdYpiLnYU8RHJKWR/F7e9HivnH9vDRNw7XNRnK23e9heJBngM1xTu9j/ao9oRsyZiwsAJi61nTJHZ0Vjb4FshTla7Z48ON0dD9+4F20OMSRFwgK0jQV1zLTDvo5tBjlrzgezkTuoeI9K3aGbsiY8bIAYBrHhXdOz+WixQpLgKWALVf/qKSCHx2CchHiGPUHFqKLy0A2C7lm3JSpEFmGOsiIqD6lyKOx9w+xaXV1F1gYE4gFANOYlm+cknHx2aK6RJXvCdgKNnP0lD0IfxJ4tJw0Pc6mi2p72IIxNWABwDS+QsFlt886XcWdIyKLQRcBudBtmQmlhPC0Ik+K0hPP633OduYzjc4CgJl8Vq5rzlRkkfMsVnQx8GXsvTAZbUfoEaWnHJee4L4fj2+1pDF1yv7pGbP8jvYs2XMQFqN6NtAVuiWTim3A30S0p6xJD91X7Q7dkDEhWQAw5mCX3z0rX0m+oshCVc5COAtoCt2WGZMYeBHh73h9LqPyl+K9q3aEbsqYicQCgDFHsuzBXKZp70IcXwVZBJwpMCd0W+b/VNkJ8qw4fRp1z8TDLf9k8wXl0H0ZM5FZADBmPJZvbM248qniZSGi81FZALoQsF1z0qRUEP4FvCKwVdDnSiT/sOl8Y8bOAoAx1bLswVy26b0FuOhLqH4ROA3hJOAEwM7PHRsP7ED5N/ASjhdQeSEebt1qn+yNqQ4LAMakbeW67JRK0lkh0yWJdolIF+oXqMh84EQm91bG/SBbEX1FVbc7ZLuq2x77/Gv27L0x6bIAYExIa27L54cz8xLNtDt8p8e1i+ocoANlDkIHBzYxqrdFiEWgF6UPYRfQp8pOh+z2jp1RQl+p2PqWfZo3JhwLAMbUgwvvnJ7Luw6Pa9WElijyraq0KLQ43HRFW4EWgVYVWlByHHh/t344hjIN+XC2oRnIv/91CRh5/zUJwkefh+8HQCgLDKgyCAwKMuDx/QKDghtIPIMSMejwA+WS7+P+K/vT/HUYY47d/wBKxpswzAp7bQAAAABJRU5ErkJggg==;" parent="1" vertex="1">
                    <mxGeometry x="603.01" y="137" width="82" height="82" as="geometry"/>
                </mxCell>
                <mxCell id="26" value="" style="shape=image;verticalLabelPosition=bottom;labelBackgroundColor=default;verticalAlign=top;aspect=fixed;imageAspect=0;image=data:image/png,iVBORw0KGgoAAAANSUhEUgAAAgAAAAIACAYAAAD0eNT6AAAACXBIWXMAAA7DAAAOwwHHb6hkAAAAGXRFWHRTb2Z0d2FyZQB3d3cuaW5rc2NhcGUub3Jnm+48GgAAGO9JREFUeJzt3VuMXPd92PHfmd2ZJXeXXJIiKVJ3W5J1sxXJiC3abSEoiI0VJcVtYbjyQ18aExBURHqrgRRIDKO3vBRwDBhGCL/kxayRFk2kyIqENFDRVrIbqzQtmqHud1O8iFzuhdzZ3Zk+uGocR6Yus+ecmfP7fF6tM/+f9m/tfPe/O+dEAAAAAAAAAAAAAAAAAAAAAAAAAAAAAAAAAAAAAAAAAAAAAAAAAAAAAAAAAAAAAADA8CrqHuAdjz/++MzKysrdRb+4I4q4OSKuiogtEdGudzIA+FBWIuJMRLwcRfy46BV/1St6D+/du/ds3YNFDEEAPPzwwzeMFWP/Kor4ZxGxse55AKBE5/rRP1AUxR/ceeedR+scpLYAeOihhybHxsb+XRHFv4yI8brmAIAarEY/vjm/OP+vv/SlL52rY4BaAuCxxx67ZG117b9GxKfqWB8AhkERxcGxtbEvfO6ez71a/doVe/TRRz/Z7/UfjojdVa8NAEPozaJV3DM7O/t0lYtWGgCPPPLIZUUUPwxv/gDwi070+r1/eNdddz1b1YKtqhb63ve+t7HoF/85vPkDwC/b0Spa/+Whhx6arGrBygJgenr630cRn65qPQAYMTe1x9q/W9VilfwK4OGHH75hrDV2KPy1PwBcyNLY+Ni1n//8598se6FKTgDGWmNfDW/+APBeJtdW136/ioVKPwF45JFHNhdRHAs3+QGA92Opu9Ld9YUvfGG+zEWqOAG4J7z5A8D7Ndlut/eWvUjpAVD0izvKXgMAmqSI4jfKXqP8E4Aifq30NQCgQYooSn/vrOJXAFdVsAYANEY/+h8pe40qAmBzBWsAQJPMlL1AFQHQqWANAGiSibIXqOxOgADA8BAAAJCQAACAhAQAACQkAAAgIQEAAAkJAABIyCN638OjTzw10PWzt+9Zp0mGk6/PhWX/+gz67w91GvX//t6LEwAASEgAAEBCAgAAEhIAAJCQAACAhAQAACQkAAAgIQEAAAkJAABISAAAQEICAAASEgAAkJAAAICEBAAAJCQAACCh8boHABhWRw8fHOj66266xfoMLScAAJCQAACAhAQAACQkAAAgIQEAAAkJAABISAAAQEKNvw/AN7717VrXH/RztA/ef986TfLuvvnTjw32AjsGu/65nw62/O/c+OxgL/AefH2ApnICAAAJCQAASEgAAEBCAgAAEhIAAJCQAACAhAQAACQkAAAgIQEAAAkJAABISAAAQEICAAASEgAAkJAAAICEBAAAJDRe9wAAw2L5/PmYO30qlhbnY2WlO/DrHT18cB2mGt31nztyKNrtTkxOb4qZLRfFxIYNtc7D3yUAgPT6/X4cP/Z6nHn7VN2jNEqv14vl5fOxvHw+Tp86EVu3bY8duy6NoijqHo3wKwAguX6/H6+/8oI3/wqcfvtkvP7Ki9Hv9+sehRAAQHLHj70RS4sLdY+RxtLifJw49mbdYxACAEhs+fz5OPP2ybrHSOf02ydiefl83WOkJwCAtOZOO/avi699/QQAkNbi4nzdI6S15GtfOwEApLW6Dh/148NZ6fra183HAKFE++/tDHT9vgO5v0nW/Tl2ytPr9Urf3+tuuqXU1x91TgAAICEBAAAJCQAASEgAAEBCAgAAEhIAAJCQAACAhBp/H4A/emC17hEGcni0x4dG+27nWN0j1OrL3V11j8AAnAAAQEICAAASEgAAkJAAAICEBAAAJCQAACAhAQAACTX+PgBQp30HunWPMNLKfp77oM+jL/tz8IPeZ2DpD/9koOsnH/jiQNe/l7L3lwtzAgAACQkAAEhIAABAQgIAABISAACQkAAAgIQEAAAkJAAAICEBAAAJCQAASEgAAEBCAgAAEhIAAJCQAACAhAQAACQ0XvcA0GT77+0MdP2+A911mmQ0HT18sO4RLui7nWN1j3BBkw98se4RLqjs/b3upltKff1R5wQAABISAACQkAAAgIQEAAAkJAAAICEBAAAJCQAASKjx9wHYdenWukcYyOFX6p4AgCZyAgAACQkAAEhIAABAQgIAABISAACQkAAAgIQEAAAk1Pj7AECd9h3o1j3CSCv7ee5lP49+6Q//ZKDrJx/44kDXf7m7a6Dry1b2/nJhTgAAICEBAAAJCQAASEgAAEBCAgAAEhIAAJCQAACAhAQAACQkAAAgIQEAAAkJAABISAAAQEICAAASEgAAkJAAAICExuseAJps/72dga7fd6C7TpOMpqOHD9Y9wkAmH/hiret/t3Os1Nf/cnfXQNeXvb/X3XRLqa8/6pwAAEBCAgAAEhIAAJCQAACAhAQAACQkAAAgIQEAAAk1/j4Av/XV+bpHGMiD99c9AfCrDPo5eKiTEwAASEgAAEBCAgAAEhIAAJCQAACAhAQAACQkAAAgocbfBwDqtO9At+4RRlrZz3N/7sih6PV6pa7Bu2uNjcW113+i7jFScwIApDXe7tQ9QlrtdrvuEdITAEBaU9Ob6h4hrampzXWPkJ4AANKa2XJR3SOkNbN1W90jpCcAgLQmNmyIrdu21z1GOlu37YjOxIa6x0hPAACp7dh1aUxOTdc9RhpT05tix65L6x6DEABAckVRxGVXXh1bt+2oe5TG27ptR1x6xdVRFHVPQoSPAQJEURSxc/elMbPtopg7fSqWFudjpdv1EcEBtVqtaHc6MTW1OWa2bnPsP2QEAMD/MzGxIXb+wvH00cMHB3q9Qe9jMOrrX3vDzQNdT7n8CgAAEhIAAJCQAACAhAQAACQkAAAgIQEAAAkJAABIyH0AoET77x3scbP7DnTXaRKAv8sJAAAkJAAAICEBAAAJCQAASEgAAEBCAgAAEhIAAJCQAACAhAQAACQkAAAgIQEAAAkJAABISAAAQEICAAASEgAAkNB43QNAk+070K17BAZw3U23WJ/GcgIAAAkJAABISAAAQEICAAASEgAAkJAAAICEBAAAJCQAACAhAQAACQkAAEhIAABAQgIAABISAACQkAAAgIQEAAAkNF73AGV78P77Brr+0SeeGuj62dv3DHQ9o23/vZ2Brt93oLtOk9TD//9heDkBAICEBAAAJCQAACAhAQAACQkAAEhIAABAQgIAABISAACQkAAAgIQEAAAkJAAAICEBAAAJCQAASEgAAEBCAgAAEhqvewBosn0HunWPAPCunAAAQEICAAASEgAAkJAAAICEBAAAJCQAACAhAQAACbkPwHuYvX1P3SMAwLpzAgAACQkAAEhIAABAQgIAABISAACQkAAAgIQEAAAkJAAAICEBAAAJCQAASEgAAEBCAgAAEhIAAJCQAACAhAQAACQ0XvcAw+7RJ54a6PrZ2/es0yQAsH6cAABAQgIAABISAACQkAAAgIQEAAAkJAAAICEBAAAJuQ8AA9l/b2eg6/cd6K7TJGTUaZ2PLRuOx3R7LibbczHZno92qxtjrW6Mt1YjImK1Nx5rvU6s9DqxtLo5lrqbY35lJubO74xub0PN/wa52b96CQBgpGzunIqLp1+OiyaOxVRnLiL6F/zn261utFvd2BARmzpvR0y+878UsdidiVPnd8dbi1fF2e62kicnwv4NEwEADL3x1kpcOv187J5+PqbaZ9fpVfsx1TkTU50zccXmI7G4MhM/W7g63li4NlZ7vjWuJ/s3nHyVgKHVbi3HZZuPxuWbjka7Ve6vi6bac3HN1qfjypln4rX56+L1s9fHSm+wX3FlZ/+GmwAAhlA/dk+/HNds+VF0xpYrXbnd6sZHZ34Sl296Nl6a+3i8Pn999C98Ss3fY/9GgQAAhsrG8fm4afuTMTNxotY52q3l+NjWH8XOyVfjpyc/G+dWp2udZ1TYv9HhY4DA0Ngx+Vp8avf3a3/z+EVbJk7Ep3f/eVw89Urdoww9+zdanAAAtSuKiGu2/Ciu2Pw3dY/yrsZbq/Hx7f8jNndOxfNnPulI+ZfYv9EkAIBatYpe3Lj9ybh48uW6R3lPV2w+EhNj5+PwyT3Rr+AA9Rvf+vZA1z94/33rNMmvZv9Gl68AUJtW0YtP7HhiJN483nHx1Etx887/HkX06h6ldvZvtAkAoCb9uH7bU7F945t1D/KBbd/4Rty048koironqZP9G3UCAKjFtVufjt3TL9U9xod28eTLcfWWp+seozb2b/QJAKByOydfHdo/GPsgrtx8ZKSOv9eL/WsGAQBUauP4Qtxw0Q/qHmPdXH/R/46N4wt1j1EZ+9ccAgCoUD9u2v6/Yrzk28JWabzVjRu3Pxnv9VCbZrB/TSIAgMpcsumFobpJzHrZMnE8dk+N7u/D3y/71yyNvw/AoJ+jHdTRwwcHur6Kz/EOYt+B5vwkQLnareW4emaw/x6G2TXb/k+cPHd5rPTadY9SCvvXPE4AgEpcvvlo5Q+GqVKndT4u3zT6fxj3q9i/5hEAQOnGWytx2aajdY9Russ2H43x1mrdY6w7+9dMAgAo3aXTz5f+PPhh0G4txyXTz9U9xrqzf80kAIDS7Z56se4RKnPJ9At1j7Du7F8zCQCgVJs7p2Kqc6buMSoz1Z6LTZ3TdY+xbuxfcwkAoFQXT79c9wiVu7hBHymzf80lAIBSXbThZ3WPULltG47VPcK6sX/N1fj7AAD16bTOx1T7bGXrvXxsLR7/4WocfG41Tpz5+Z3ddm5txS3XjsXnfr0dV+6u5meeTZ0z0Rlbju7axECvU/d9QOzfYPs37AQAUJotG45HFbdYXVntx/4/W46/+OFK9H9puVffWotX31qLh/5nN2b3tOMrd09Ee7zs58D2Y6ZzPE6cu7zkdcpl/0Z7/96LXwEApanij8dWVvvx+985F4/+4O+/efyifj/i+0+uxNe+cy5WVst/U5tuwB/O2b9mEwBAaabGyz8+3v9ny/HMi2vv+5//yYtr8Z2Hy7+j3WSFR+dlsX/NJgCA0kyW/JjVl4+txV/8cOUDX/foD1bilWO9Eib6W5Pt+VJfvwr2r9kEAFCa9tj5Ul//sXf5nfH70etFPP7X5d7ZrtMa/fvm279mEwBAacZKvq/6j597/0fHv+zgs+X+BNkqPvhPtsPG/jWbAABKM1byN9GTZz78m8CJAa59P8Zbo/8GYv+azccAGcj+ezsDXb/vQPMfMMJwKsr+JBmlsn+DcwIAlGat3y719bdv+fDfwnZsKfcdZLVX7r97FexfswkAoDRrvXIPGW/92Id//VuvLXe2XslvnlWwf80mAIDSrKxtKPX1P/fr7Q91FNxqRfzmp8p9A+n2Rv82svav2QQAUJqltU2lvv6Vu1sxu+eD/6S2d08nrrh4rISJ/tbSyuZSX78K9q/ZBABQmqVu+d9Ev3L3RHzio+//zeDmq8fiX9xd/k93TXgDsX/NJgCA0syvzJS+Rnu8iK/99sbY+5l2tC7wHa3Virj7s5342m9Pxni5PzxGRMRCBf/uZbN/zeZjgEBp5s7vjIgiyn6iXHu8iPv+8Ya4c08nHv/rbhx8thcnTv/8JjM7t7XilmvG43OfHi/92Pgd/X7E3PLOStYqk/1rNgEAlKbb2xCL3ZlKnioXEXHlrlZ85e5y/3Dt/VhY2bouz5L/xre+PdD1D95/30DX279m8ysAoFSnlnfVPULl3j6/u+4R1o39ay4BAJTqrYWP1D1C5d5avKruEdaN/WsuAQCU6mx3Wyx2t9Q9RmUWV2Zivru17jHWjf1rLgEAlO5nix+te4TKvLlwdd0jrDv710wCACjdGwvXxkpvsAdHjYKV3kS8uXBt3WOsO/vXTAIAKN1qbzxem7+u7jFK99rZ62K15Pvn18H+NZMAACrx+tnrG/3Rqu7axka/Sdq/5ml86vzRA6t1jzCQw0M+/r4D3bpHYESs9Drxwplb44aLnqp7lFI8d+bWWG3wMbn9ax4nAEBl3lz4aJxZ3lH3GOvu9PmdcWzhqrrHKJ39axYBAFSoiJ+e/GyjftJa6bXjyKnPxM9vmdt09q9JBABQqXOr03Hk1G11j7Fujpz8TJxbna57jMrYv+YQAEDlji9dEa+evaHuMQb2ytyNceLc5XWPUTn71wwCAKjFc6dvHekbzLy1+JF4Ye7Wuseojf0bfQIAqEkRR07eFifPXVL3IB/YyXOXxeGTe6Jf7lNyh5z9G3UCAKhNP1px6PjtI3X71WOLH4lDx/9R9H37tH8jrvH3AQCGWz9aceTUbbHS68SVm4/UPc4FFPHK3A3x/Jlboqq/GH/w/vsqWWcQ9m90CQBgCBTx/OlPxtzyzrjhoiej3RquG0yt9tpx5O3b4vjilXWPMqTs3ygSAMDQOLF0WSx074wbtz8ZWyaO1z1ORPz8JjE/PfWZOJ/0o2IfhP0bLQIAGCrnVqfjR8d+M3ZPvxzXbH06Oq3ztcyx0puIF07fEm8sXB2OjN8/+zc6BAAwhIr42cJH4uTSZXH5pr+JyzYfjXZruZKVV3oT8drZ6+K1+esadce7atm/USAAgKG10mvHi3OfiFfOXh+Xbno+Lpl+Iabac6WstdjdEm8uXB1vLFwda/12KWtkY/+GmwAAht5avx2vnr0hXj17Q2zqnI6Lp16KizYei6nx01F8yNPdfj9iYWVrvH1+d7y1eFXMd7eu79D8f/ZvOAkAYKTMd7fGfHdrPH86ojO2HDOd4zHdmYup9tnY2J6Ldqsb462VGCtWIuLnbz6rvXas9DqxtLI5llZmYmFlJuaWdzb6+fbDyv4NDwHAQPbfO9jv2PYdGK6PCzFaumsTceLc5anv5z7K7F+93AoJABISAACQkAAAgIQEAAAkJAAAICEBAAAJCQAASEgAAEBCAgAAEhIAAJCQAACAhAQAACQkAAAgIQEAAAkJAABIaLzuAcq269KtdY8wkMOv1D3Bhe070K17BIbY7/35fN0j1Orrd20a6Pqbb/74QNcfOvTMQNfbv8H2b9g5AQCAhAQAACQkAAAgIQEAAAkJAABISAAAQEICAAASEgAAkJAAAICEBAAAJCQAACAhAQAACQkAAEhIAABAQgIAABIar3sARtv+ezsDXb/vQHedJoHmOXTombpHoMGcAABAQgIAABISAACQkAAAgIQEAAAkJAAAICEBAAAJCQAASEgAAEBCAgAAEhIAAJCQAACAhAQAACQkAAAgIQEAAAmN1z1A2X7rq/N1jzCQB++ve4IL23egW/cI0Fg33/zxga4/dOiZdZqEJnICAAAJCQAASEgAAEBCAgAAEhIAAJCQAACAhAQAACQkAAAgIQEAAAkJAABISAAAQEICAAASEgAAkJAAAICEBAAAJDRe9wCMtv33dga6ft+B7jpNwjD6+l2b6h5hpB069Eyt69u/ZnMCAAAJCQAASEgAAEBCAgAAEhIAAJCQAACAhAQAACQkAAAgIQEAAAkJAABISAAAQEICAAASEgAAkJAAAICEBAAAJDRe9wCMtn0HunWPwBB79Imn6h6hVrO37xno+m9869sDXf/g/fcNdL39G2z/hp0TAABISAAAQEICAAASEgAAkJAAAICEBAAAJCQAACAhAQAACQkAAEhIAABAQgIAABISAACQkAAAgIQEAAAkJAAAIKHxugcA4N09eP99dY9AgzkBAICEBAAAJCQAACAhAQAACQkAAEhIAABAQgIAABJq/H0ABv0c7aNPPDXQ9bO37xno+rL9zo3PDnS9r8+FNf3rA4wuJwAAkJAAAICEBAAAJCQAACAhAQAACQkAAEhIAABAQo2/DwDAqPrGt7490PWD3geFZnMCAAAJCQAASEgAAEBCAgAAEhIAAJCQAACAhAQAACQkAAAgIQEAAAkJAABISAAAQEICAAASEgAAkJAAAICEBAAAJFSUvcD3H/l+v+w1AKBp7tx7Z6nv0U4AACAhAQAACQkAAEhIAABAQgIAABISAACQkAAAgISqCIBuBWsAQJMsl71AFQFwtoI1AKBJ5speoIoAeKmCNQCgSV4se4HyA6CIH5e+BgA0y6GyFyg9AIpe8VdlrwEATVL0i78se43SA6BX9B6OiKWy1wGAhliamJx4pOxFSg+AvXv3nu1H/z+VvQ4ANEE/+n98xx13LJS9TiX3ASiK4g8iYrWKtQBghC22Wq2vV7FQJQFw5513Ho1+fLOKtQBgVPWj/x9nZ2d/VsVald0JcMPkht+NfvywqvUAYJT0o//M2traf6hqvcoC4I477ji/2lv9pxHxZlVrAsCIONFqtf7JPffcU9kfzVf6LIB77rnnjaJV3BMRJ6tcFwCG2ImiVczOzs4+X+WilT8MaHZ29ulev/cP+tF/puq1AWDI/KRoFZ+dnZ19uuqFa3ka4F133fXs2trabUUU/zbcIwCAfBajH/9mfmH+tqp/8n9HUceiv+ixxx67ZG1l7feiiH8eEZN1zwMAJVrqR/+PW63W16v6a/9fpfYAeMef/umfbmq323uLKH6jiOLX+tH/aETMRESn7tkA4EPoRsSZIoqX+v3+wSKK/zYxOfFIFTf5AQAAAAAAAAAAAAAAAAAAAAAAAAAAAAAAAAAAAAAAAAAAAAAAAAAAAAAAAAAAAACAUfd/Afex49llXuUUAAAAAElFTkSuQmCC;" parent="1" vertex="1">
                    <mxGeometry x="240" y="240" width="130" height="130" as="geometry"/>
                </mxCell>
                <mxCell id="27" value="" style="endArrow=classic;html=1;strokeWidth=4;exitX=0.5;exitY=0;exitDx=0;exitDy=0;entryX=0;entryY=0.5;entryDx=0;entryDy=0;edgeStyle=orthogonalEdgeStyle;strokeColor=light-dark(#6c8ebf, #ededed);" parent="1" source="8" target="26" edge="1">
                    <mxGeometry width="50" height="50" relative="1" as="geometry">
                        <mxPoint x="370" y="400" as="sourcePoint"/>
                        <mxPoint x="420" y="350" as="targetPoint"/>
                    </mxGeometry>
                </mxCell>
                <mxCell id="28" value="" style="endArrow=classic;html=1;strokeWidth=4;exitX=0;exitY=0.5;exitDx=0;exitDy=0;entryX=0.5;entryY=1;entryDx=0;entryDy=0;edgeStyle=orthogonalEdgeStyle;strokeColor=light-dark(#6eb899, #ededed);" parent="1" source="10" target="26" edge="1">
                    <mxGeometry width="50" height="50" relative="1" as="geometry">
                        <mxPoint x="155" y="390" as="sourcePoint"/>
                        <mxPoint x="250" y="315" as="targetPoint"/>
                    </mxGeometry>
                </mxCell>
                <mxCell id="29" value="" style="endArrow=classic;html=1;strokeWidth=4;exitX=1;exitY=0.5;exitDx=0;exitDy=0;entryX=0.5;entryY=0;entryDx=0;entryDy=0;edgeStyle=orthogonalEdgeStyle;strokeColor=light-dark(#e2ba4b, #ededed);" parent="1" source="6" target="26" edge="1">
                    <mxGeometry width="50" height="50" relative="1" as="geometry">
                        <mxPoint x="155" y="390" as="sourcePoint"/>
                        <mxPoint x="250" y="315" as="targetPoint"/>
                    </mxGeometry>
                </mxCell>
                <mxCell id="30" value="" style="endArrow=classic;html=1;strokeWidth=4;exitX=0.5;exitY=1;exitDx=0;exitDy=0;entryX=1;entryY=0.25;entryDx=0;entryDy=0;edgeStyle=orthogonalEdgeStyle;strokeColor=light-dark(#5eb132, #ededed);" parent="1" source="13" target="26" edge="1">
                    <mxGeometry width="50" height="50" relative="1" as="geometry">
                        <mxPoint x="220" y="175" as="sourcePoint"/>
                        <mxPoint x="315" y="250" as="targetPoint"/>
                    </mxGeometry>
                </mxCell>
                <mxCell id="31" value="Suhu" style="text;html=1;align=center;verticalAlign=middle;whiteSpace=wrap;rounded=0;fontStyle=1;fontSize=16;fontColor=light-dark(#e2ba4b, #ededed);" parent="1" vertex="1">
                    <mxGeometry x="84" y="190" width="60" height="30" as="geometry"/>
                </mxCell>
                <mxCell id="32" value="Kelembapan" style="text;html=1;align=center;verticalAlign=middle;whiteSpace=wrap;rounded=0;fontStyle=1;fontSize=16;fontColor=light-dark(#6c8ebf, #ededed);" parent="1" vertex="1">
                    <mxGeometry x="80" y="560" width="60" height="30" as="geometry"/>
                </mxCell>
                <mxCell id="33" value="Nutrisi" style="text;html=1;align=center;verticalAlign=middle;whiteSpace=wrap;rounded=0;fontStyle=1;fontSize=16;fontColor=light-dark(#6eb899, #ededed);" parent="1" vertex="1">
                    <mxGeometry x="467" y="560" width="60" height="30" as="geometry"/>
                </mxCell>
                <mxCell id="6" value="" style="rounded=1;whiteSpace=wrap;html=1;strokeWidth=4;fillColor=#FFFFFF;strokeColor=light-dark(#e2ba4b, #6d5100);" parent="1" vertex="1">
                    <mxGeometry x="49" y="60" width="130" height="130" as="geometry"/>
                </mxCell>
                <mxCell id="7" value="" style="shape=image;verticalLabelPosition=bottom;labelBackgroundColor=default;verticalAlign=top;aspect=fixed;imageAspect=0;image=data:image/png,iVBORw0KGgoAAAANSUhEUgAAAgAAAAIACAYAAAD0eNT6AAAABHNCSVQICAgIfAhkiAAAAAlwSFlzAAAOxAAADsQBlSsOGwAAABl0RVh0U29mdHdhcmUAd3d3Lmlua3NjYXBlLm9yZ5vuPBoAACAASURBVHic7d15dCV1mf/x91M3W29Jb3QDgrIjokIvyCqCioqyq+goOi64KzKMituIOjoiOo46jv5kcANnVBxEQAE3cAEEegMVBFllFeg1nZt0knvr+f3R3QrY3XSSW/ep5fM6J4dzgNTzCXRSn3yr6luGSEbcPWHNmp3p7HwaabozZjthtiPu2wCzNnz0YNaJ+9ShxhC4Y+CYucEo2Dqcupk9DNwFfkti9uuO3plXmNlI6BcoT8ivpINpPBvjWIwDcXYGpgOOsQrnDuAqEi5iX641Iw2OLFIZFh1AysMHB3ckTQ/B7EDSdD+S5Om4T93az99YALZWgtUtSe42s6vM7Dud02b8alzBpeX8RqYwymkknIozcys/7UHgLHr4su2Nyp1IxlQAZNzcfTKDg88FjiRNX4TZLhM53lgLwOOZWTPBbgMu7hr1z9s22zw4kTwyPr6Ek4DPANuO7wDchXGKLeBHLQ0mIo+hAiBj4u6TGBh4MWYnAkcBk1t17IkWgMdwSGq1B5PUftA5MvqvNnfuQ605sGyOn0+NXfgkxumtOBzOWSzgA2a06A+FiDyaCoBsFV+7di/M/hE4mfXX7luupQXg0RwSS+6r1ZL/7OydeVbrB4hfSQe9/AA4usWH/jrzOVklQKT1VABks9w9YWDgOJLkNNwPznpeZgXgURJsMEk6vtHZO/19ZjaY6bAK8aV8AeeUbA7OB20hn8rk2CIVpgIgf8fdOxkcfB3wPtx3a9fcdhSAjcyskZBc1NVnbzSbuaYtQ0vKl/A64BsZjkgxjrL5XJbhDJHKUQGQv3L3hHr9JMw+gvuu7Z7fzgKwkZk1k1rn97qm9r1JKwJj5zcxlWFux5mb8ag76WEvPR0g0jpJdADJB6/X5zEwcDXwrYiTfxR3rzUbI69at2bFqtH+le+LzlM4Q5zehpM/wC4McXIb5ohUhlYAKs5XrZpOZ+fHgHcAtcgsESsAj5ckHXda4sd0T5t1U2iQAvDb6Kafh4HeNo282xawc5tmiZSeVgAqzNeufTmdnbcApxB88s+LNG3skjaavx9eveIH7t4VnSfX1vJc2nfyB9jJl7FvG+eJlJoKQAV5vb69Dwz8FLPzoS3Lt4XiYE1vHj+8evny0bWrDo3Ok1vOsW2fmXJc22eKlJQKQMX44ODxuP8OOCI6S96l+LTRZuOXI2tWfzk6S04dFDDzwICZIqWkAlAR7t7hAwNnkqYXkNFGPqXkbo105G3r1qy8w9es2do97asi4mbRtj2WKlJ2KgAV4GvXzqFe/xlwOrrxc1zStLHLcDpyz8iaNftHZ8kDX0wnLdwGeqsZ09s+U6SkVABKzoeGdsLsN8Bh0VmKLsWnNH3kmuG1q18enSVcJzE3SDrdIXNFSkgFoMR87dqn02xeBewRnaUs3D1JGyPfG1mz8h3RWUREJkIFoKR87drnYHYV8KToLGXjYI20+aXh1Ss+E51FRGS8VABKyOv1YzC7DOiLzlJeTtOb7xnuX3VudBIRkfFQASgZr9ePw/0HwKToLFXQbI6+ZmTNiixfhCMikgkVgBLxtWufg/t30K5+bdVIm68b7l95VnQOEZGxUAEoCR8YeAZmFwI90VmqqNlsvFc3BopIkagAlIAPDe0M/ASYEZ2lypre/M/h1SteEZ1DRGRrqAAUnK9duw1p+lNgu+gsVefulpL+z8iaNQdEZxEReSIqAAXm7jXMvo27tkfNCXevpenIFdo2WETyTgWgyOr1TwMviI4hj5Xik4ZpLorOISKyJSoABeX1+jHAadE5ZNPStLHLyOoVZ0fnEBHZHBWAAvK1a+fgfjZ6sU+uNUhPHl29Qq9dFpFcUgEoIrNvAXOjY8gTcLcmfoG7x7w4R0RkC1QACsYHBl4FvCg6h2yd1NNpI2tXnx+dQ0Tk8VQACsRXrOgF9AKagmk2R48dXbvqsOgcIiKPpgJQJN3dHwe2j44hY9dsNrQKICK5ogJQED4w8AxAW80WVOq+zfCaVWdE5xAR2UgFoADcPcH9q0BHdBYZv9SbH3Jf0RudQ0QEVACKoV5/BWYHRseQiXFPO0fW8N/ROUREQAUg99y9BnwkOoe0Rkr6Mu/vnxWdQ0REBSDv6vWTgKdGx5DWcPdkhOY50TlERFQAcszdDTg9Ooe0Vpo2jnb3qdE5RKTaVADybHDwJcBe0TGktdy9Nrpm5eeic4hItakA5Jn7P0VHkGykpK+JziAi1aYCkFPe378ncHh0DslG6t4zsvKRt0bnEJHqUgHIqyR5M3rbX6mltdo/R2cYt1FGQuYawyFzRUpIBSCHNrw97rXROSRbadrYzVes2CE6x3jYQkaBwbYPdla3faZISakA5NHg4AuB2dExJHujNf4lOsME3BEw8/aAmSKlpAKQR+4nRkeQ9kjNj4vOMG7O1QFTrwmYKVJKKgA54+7dwDHROaQ90jSdM7R69c7ROcbFuChg5g/bPlMA8Gvp9UXs4jcyJzqLtIZeLpM39fqhgF4YUyE1a54CFO+Rz16upJ81QF+bJt5t87mxTbMqzZ2EGzgA5yicFwN7AJMAaIAvYRS4F+enwI9Yyy/scNYFRpZx0ApA/hwZHUDaK3U/KjrDeNjuDGN8oX0D+XTbZlWYL+X5LGURKVfjfADYh40n/7/pBHbBeCvGj+jlHl/K6X4b3e1PLOOlx8xyxgcGbgKeFp0jwlBjCNyjY7SdmaU9fbM7zSyNzjJWfhNTGeZ2nLnZDuJPwNM3PH0gGfBl7ETKN4HnTOAwd2K83ubz6xbFkgxpBSBHfO3aOVT05F9l7p40+le+IDrHeNjeDADvy3hMivFunfyz40s5lJSlTOzkD7ALzhW+lHe1IpdkS/cA5EmtdjBp4X4JHLPUnWtvWcFF193Pb25ezp1/GWDVwAgjq+4kSYxJPT3s9qSZ/MPz9+DNL3kqPV3l/2Pq8Erg8ugc42HzOdeXMB94dyYDnA/ZwmL+tykCX8KLcC4Eelp0yBrOF30pk22+LtvkmS4B5IgPDJwFvDc6R1aGR5v816W385kf3MJfVm3ifqG1d4M/tgBZUuOwBbvyzdMPZ5u+Vv18yp/Ektt6ps/eIzrHePmVdNDLBbT+CZavM5+TzajetaE28CW8CFp68n/M4TFeZfP5bgbHlhZQAcgRHxi4gpLu/3/Rtffz7nOW8eeH65v/lzZRADZKah2cfMw8Pv/2g7IJGCwxW9czfZvH32hVKH4+NXbhk1hLXmHtOGexgA/o5J+NjE/+G/VjPNPm8+cMZ8g4qQDkiA8MPELJdgB0h7N+8Ec+eO7vSZ/oBr8tFICN9tx5e377peNLeVlg0vRtppnZQHSOifIlvBr4DLDdOA9xJynvsv24tIWx5FF8CS8Efki2J//1jG/ZfF6X+RwZMxWAnPDBwR1I03ujc7SSO7z+C9fzrSvu2rpP2IoCADB39gz++K1Xla4E1Ehe2j1j9g+ic7SC38gUGpwKnMrWl9oHcD7NJP6f7R30sqEKaOvJf70mNfaxfbmpTfNkK+kpgLxI0z2jI7TaJ75309af/MfgoeWrOPy0S1p+3GiW2LOjM7SK7UPdFvBJ7mBbjMOA/wCuBR4GRoBh4C/AVRhn4hzAfHa0hXxRJ//sbFj2b+fJH6BGyqltnCdbqVy/QhWZ2c5legb+R4se4Izv/CGz49946z2884tX86VTDs5sRru5WWFvAtwcO5Em8KsNHxJow2/+WV/z38xwXuKO6X6OfNEKQF6k6U7REVpltJFy6n8vzbzPfPPSZdy/ov1vpM2M+07REaScApb9H287lrEgaLZshgpAXpjtGB2hVb5y2R3c8Zct3O3fImmzyRvO+mXmc9rFPd0mOoOUTw5O/huCMC90vvwdFYD8KMUPf3f49x/e2rZ5Vy27k4GhRtvmZcqZHB1ByiU3J38AH/dTIZIRFYD8KMXjf0tuX8k9j2T/2/9G7k2+fNHNbZuXJTfris4g5RF0w9/mWcbvi5AxUwHIC7MZ0RFa4aLrH2j7zPN/2b4Vh0x5qptypSVCb/jbHNfrgvNGBSAv3Eux/HvNHx9p+8w771/V9plZcO3LIS2Qq2X/x3owOoA8lgpAfpRi+ffOh9q3/L/R8PBw22dmxd31PSnjlrtl/8dq//KgbJF+2ORHKQrAmnr739jqnjK4rixvil05NTqBFFMul/3/xunk19Eh5LFUAPKjFh2gFUYaMa8zrg83Q+a23EBXHn94S87leNl/o2W2D/dFh5DHUgEQESmwnC/7b1SKd1yUjQqAiEhB5XzZf6MVjPKf0SHk76kAiIgUUAGW/ddzzrQD6I+OIX9PBUBEpGB8MfsDF5D/k/8N9Om3/7xSARARKRC/hpkY3wemRGd5AsupcaLtTnme0y0ZFQARkSLp5mNA3l8e1o9zlM3jtuggsnkqACIiBeHL2Al4U3SOJ1DHONoWcl10ENky7T0uIlIUTT6M0R0dYwv6MV5k8/ltdBB5YloBEBEpAD+fGsZx0Tm2YP1v/jr5F4YKgIhIEezGIcCs6BibUcd4sc3Xdr9FoksAIiJF4BwWHWEztOxfUFoBEBEpAmOH6AiboGX/AlMBEBEpAmfb6AiPo2X/gtMlABHJnJ9PjV3YnYQ9gCmkGLD+Hc4JqwBosgJjBbDcFjIYFja/8rTrn5b9S0AFQEQy4VfSQS9HYxyLcxQwC9/wD+3R/+KGvz5qPdKXMAQ8AtyNczfGXcDdwC308Afbm4HMv4D8eSg6wAZa9i8JFQARaSl3jGWcgPNJYM+/nuDHZhLwZODJGIc+5p+sw30JdwI34tyI81uGudYOYe1Es+ea8Zdx/rdsJS37l4gKgIi0jF/HLJbyPeB5GY4xYFdgV4wTMGASTV/C74CrcX7BOn5RwkLwu+D5WvYvGRUAEWkJX8rTcC5m/cm53WrAPGAexjuZxIgv4SrgcpxLbCG3BGRqtcuAJuu/1nbTsn8J6SkAEZkwX8ZOOFcSc/LflC7gucBZGH/0JdzkS/ioL2LP6GDjZfN5BLg+YHQ/xhFa9i8fFQARmRC/immkXALMic6yBU8DziDhFl/CIl/KW/1aeqNDjcPn2zxPv/mXmAqAiEzMJL4IPD06xhgsxPkKnTzgS/iaL2b/6EBbbT7fB5a2aZpu+Cs5FQARGTdfwjOB10bnGKcpwBswrvUlLPalvNavzPd9UWY48F7I/HkALftXgAqAiIyf8SnK8XNkAc636OUWX8zb/cpcbbrzGLaAK3DOynCE7vaviDJ844pIAL+WuTgvis7RYrti/BfTuM0X826/je7oQJu0gA8C38vgyDr5V4gKgIiMTyfHUtafIcYOGJ+nn1t8Ca93z9fXaUZKPyfhfK2Fh32QhOfo5F8dufpDLSKFclR0gDbYCfg6S1nsSx+3I2EwO5yGLeRk4M1A/8QOxqWMMs/mcUNLwkkhqACIyHg9MzpAG83D+ZUv5XxfylOiwzyaLeC/GWZnnE8DQ2P89EXAMTafl9gBuXnXgLSJCoCIjFce30+fLeflODf7Yv7Zzw/ZkW+T7CBW2kLeTwc74bwJ+CGbXhVIgd9jnEnKIcxnf1vAJe1NK3mR60deRCSf/BomEbMlbR5Mxvgsu/JKX8ab8rRsbvvwMHDOho/1mzT18CRq9OA8zO08ZCfSjE0peaECICJjN4WERnSIcAtJud6XciZr+Lgdnr//IhteiFSG9yBIBnQJQERk/Dpx/oVervFl7B4dRmQsVABERCZuP1KW+BJeFx1EZGupAIiItMY04Bu+hPN8MZOjw4g8ERUAEZHWOgm42m9k5+ggIluiAiAi0mrGvjRY5Et5XnQUkc1RARARycYsnMt9KW+NDiKyKSoAIiLZ6cD5ii/lC3l7n4CI/kCKiGTNOYVlnOeL6YyOIrKRCoCISDs4r8K4cMMuiiLhVABERNrnJXRzmV/FtOggIioAIiLt9RwmcalKgERTARARab9DmMxlfiNTooNIdakAiIhEcA6myYV+G93RUaSaVABERKI4R9DP//r5lX21sgRSARARiXUCu/Ll6BBSPSoAIiLx3uxLOS06hFSLCoCISB44n/ElnBAdQ6pDBUBEJB8S4Dxfyj7RQaQaVABERPJjMs5FvpjZ0UGk/FQARETy5SkkejJAsqcCICKSN84R7Mq/RMeQclMBEBHJp3/xRRwWHULKSwVARCSfEhLO9d8xIzqIlJMKgIhIfu1Ig69Gh5ByUgEQEckz5+W+mJdHx5DyUQEQEck744t+DTOjY0i5qACIiOTftnTzmegQUi4qACIixfB6X8rzokNIeagAiIgUg+F8yRfTGR1EykEFQESkOJ4KvD06hJSDCoCISJEYZ+hdAdIKKgAiIsUyA+Nj0SGk+FQARESK502+mF2jQ0ixqQCIiBRPJ4leFiQT0xEdQMrloYMvZ0qtOb5PvqITxvmp9w3Woa9nfJ8sUkTOSb6YM20ht0RHkWLSCoCISDHVgI9Eh5DiUgEQESkq40TdCyDjpQIgLdXVEfNHakqX/ihLJdWAd0eHkGLST01pqc6gAtDTo83RpKKMN/p1zIqOIcWjAiAiUmyT6eAt0SGkeFQARESK761+PrXoEFIsKgAiIsW3I7tyRHQIKRYVABGRcnhTdAApFhUAEZFyONqvZ9voEFIcKgAiIuXQScIrokNIcagAiIiUhakAyNZTARARKY8DfBk7RYeQYlABEBEpD6PJy6JDSDGoAIiIlIlxQnQEKQYVABGRcnmWtgaWraECICJSLjU6tSmQPDEVABGRskk5MjqC5J8KgIhI2SS80B2LjiH5pgIgIlI2zlwWs0d0DMk3FQARkTKqcXB0BMk3FQARkTJyFQDZMhUAEZFyUgGQLVIBEBEppz18GdOjQ0h+qQCIiJST0WDv6BCSXyoAIiJlZTwzOoLkV0d0ABERyUjCM6IjPJovZjbGQozdgcltHZ6yFuc2jOttIWvaOjunVABERMrKeXp4hGVMJ+X1wLHAIUANDwhiGz5gxJfwS4wLSTnXFjIYkCYXdAlARKS8doka7DfR5Ut4Mym3Ap8DngPUovI8ShfwApyvYNzti3m3X1nNX4ZVAEREymt7v5Kedg/1RezCEEuBrwJz2j1/DLbB+Dy9/NqvZ9voMO2mAiAiUl7GdHZs50BfynNIuA4r1BMIB1Ljel/EvOgg7aQCICJSZk12btcoX8a+OD8GZrdrZgvtSI2f+xJ2iw7SLioAIiJllrBDO8b4tcwl5WJgSjvmZcKZCVzii+mLjtIOKgAiImXmbfptvJOzob2XGzLyVIyzokO0gwqAiEi5zcp6gC/h2cAxWc9pozf6Up4WHSJrKgAiImXm2RcAjE9lPqO9ajgfjw6RNRUAEZFyy/QSgC9jp5K+eviYsr9MSQVARKTMkoy33E05PtPjx+nEeVF0iCypAIiIlJnTnenxjSMzPX4k58XREbKkAiAiUm5dmR7dC7Xhz1iV+WtTARARKbnMVgDcMSj1FrrbRQfIkgqAiEiZeYYrAL+km3KfR4q7qdFWKPP/OBERMUYyO/ZhDANpZsePV48OkCUVABGRchvO6sBmOPBQVsfPgQejA2RJBUBEpNyyWwFY7/cZHz+O84foCFlSARARKTPLbgVgg8syPn4c49LoCFlSARARKbOUwUyPb1yY6fHjjJLwk+gQWVIBEBEps4RHsjy8zefPwFVZzgjhXGTzWB0dI0sqACIiZZayog1T3gt4G+a0S5OEM6JDZE0FQESkzCz7AmALuBbn4qzntNE5Np+bo0NkTQVARKTM2lAANjgZ5642zcrSH3FOjw7RDioAIiJllnJfO8bYQpZT4wSKvHmOsRI4xhayJjpKO6gAiIiUWa19v5XbPG7AeAmwvF0zW+hemjzfFnB7dJB2UQEQESmvlKnc086BNp9fkbI/FGgTHeNqRtnP9mNZdJR2UgEQESmvB233zDcC+ju2H3fizAfeguV6q+D7gbewhsPsgFznzERHdAAREcnMHVGDbSGjwNm+mO8Br8M4Fng28eedYeBK4EKcb9vCjDdKyrHo/xEiIpKd8H36N9xQ9wXgC34NM+liIbAr0AdMzzxAggOrcVZh3MEIi+wA+jOfWwAqACIi5RVeAB7NDmIl8NPoHLKe7gEQESmrJF8FQPJFBUBEpJyc4QLdiS9tpwIgIlJOt+pat2yJCoCISBk5V0dHkHxTARARKSNTAZAtUwEQESmjhKuiI0i+qQCIiJTPX9i3Onvay/ioAIiIlI3xEzM8OobkmwqAiEjZOJdFR5D8UwEQESmXJg1+Hh1C8k8FQESkXK6z/VkRHULyTwVARKRMjAuiI0gxqACIiJSHgwqAbB0VABGRsjCusfn8OTqGFIMKgIhIWaScHx1BikMFQESkHEZp8L3oEFIcKgAiIuVwsR3AQ9EhpDhUAEREyuG/owNIsagAiIgU373coc1/ZGxUAEREis75ip1IMzqGFIsKgIhIsdVpcnZ0CCkeFQARkWI7R1v/ynioAIiIFFeTlC9Gh5BiUgEQESmu79p+3BkdQopJBUBEpJiapPxrdAgpLhUAEZFiOtf249boEFJcKgAiIsUzSsonokNIsakAiIgUz1d17V8mSgVARKRYVtHgo9EhpPhUAEREiuUjeu5fWkEFQESkOP6I89XoEFIOKgAiIsXgpLzdFjIaHUTKQQVARKQYzrH9+GV0CCkPFQARkfz7C52cHh1CykUFQEQk74x32jNZFR1DykUFQEQk386z+VwQHULKpyM6gIiIbIZzFw3eGR1DykkFQEQknxrUOMkW0h8dRMpJlwBERPLI+bjN45roGFJeKgAiIvnzIxbwyegQUm4qACIi+XI7Ca8xI40OIuWmAiAikh914KU2j9XRQaT8VABERPIhBV5jC/hddBCpBhUAEZE8cE6zBVwYHUOqQwVARCTeV20hX4gOIdWiAiAiEsn4PnfwjugYUj0qACIicX7KNF5jJ9KMDiLVo50ARUQiGFdT4wTbneHoKFJNWgEQEWm/qxjkSNuHenQQqS6tAIiItJPxS7o52hYwEB1Fqk0rACIi7fMj1nCk7a2Tv8RTARARaY/z6Od4O5x10UFEQJcARESyZ3yReZxqhkdHEdlIBUBEJDsN4B02n7Ojg4g8ngqAiEg2HsF5hS3kyuggIpuiAiAi0npLSXipzePu6CAim6ObAEVEWus8hjlEJ3/JO60AiIi0Rj/GO20+50UHEdkaKgAiIhNlXI/zapvP7dFRRLaWLgGIiIzfKPAx1nCwLdDJX4pFKwAiMnaTadAfHSLY+t/632QL+F10lMfzxTwVYwEwB9geZx0JDwMPMMJVdgAPBUeUHFABEJExs90Z9iWsAmZEZwkwiPFxbuezeXqNry/lKTjvBo4GdnvMPzT46xZEnaS+lMU4FzDEV+wQ1rY5quSECoCIjNeDVKsAOPA9mrzPnsW90WE28huZQ5MP4bwV6NqKT0lwngU8i0m8x5fwb/TyFb2WuHp0D4CIjNefogO00RJSnm0L+IdcnfyX8CIa/AHnFLbu5P942wD/QT+/9WXs3uJ4knMqACIyPs6PoyO0wR0Y/8h8nmX7cXV0mEfzpbwR+BHrT+ITNY+Ua3wRz2rBsaQgVABEZHwaXAKk0TEyci/OqfSyt83nXLN8fZ2+mFfhnA3UWnjY2ST8zJdyYAuPKTmmAiAi47LhTvIfRedosduAt9LL7raQL+Txurgv5hkY55DNz+9enJ/5Up6TwbElZ1QARGT8Uj4E+bkTfgKWYPwjd7CXLeCreTzxA7iTYJwHTMpwzBSci7USUH4qACIybrYffwDOjc4xTgMY55Cyvy1goc3n3Dw91rdJS3glsE8bJmkloAJUAERkYno4BfK3Gc4WXAe8mSG2t/m8yfbj+uhAW8PPp4bxsTaO1EpAyWkfABGZENubAV/KMTjXs37nuTy6Gfg+Nf7X9i3o44u7cTD+uA1+srdxJeAlNp9ftXm2ZEwFQEQmzObzZ1/CYcDFPH4XuhjDGL8GLse4xOZxW3SgCXNeEjR5Cs6PVQLKRwVARFrCFvBHv4b96eY7wAvaPL4B3ABcDfyCDq6wfai3OUO2nBdgYdM3Xg54kc3nt2EppKVUAESkZewgVrrzIpZyHPBJYK8MxqTAHcDvcG4k4Rq6uc72ZiCDWflh7BycQJcDSkYFQERaygwHLvTzuZhdOQY4BngJY9uxbhB4BOMunLtx7iLhLoxbaHKTLWQwi+x55VfSA/RF5+BvlwNebPP5dXQYmRgVABHJxIZH6i4ELnQnYTG7k7AHzjSMBGeYBAdWA46xglFWkLCiaif4JzSF6dERHmUKziW6HFB8KgAikrkNW+neuuFDxiphBesvfeTl0e2NlwO0ElBgefnDJCIim2ELGQVWRud4nCk4l/pSDo0OIuOjAiAiUgx53L9g4+UAbRZUQCoAIiJFYFwWHWEzNl4O0EpAwagAiIgUQZMfR0fYAl0OKCAVABGRIljIDViu31ugywEFowIgIlIAG/ZX+FB0jiegywEFogIgIlIQNp+fY/wsOscTWL8SsIh50UFky1QARESKpMEbgRXRMZ5ALwmX+lK2jw4im6cCICJSIPYs7gWOB4aiszyBbYFvRoeQzVMBEBEpGFvAb3COA9ZFZ9ki5whfypHRMWTTVABERArIFvJTnGPJfwk4013nmjzS/xQRkYKyhfyU9ZcD8lwCnskyDo8OIX9PBUBEpMBsAZfnfiXAOSo6gvw9FQARkYIrwEqACkAOqQCIiJRAzlcCdvMbmRIdQh5LBUBEpCRyfWPgKNtGR5DHUgEQESmR3F4OcBWAvFEBEBEpmZxeDhiMDiCPpQIgIlJCubsc4DwYHUEeSwVARKSkcnQ5YIQ6y4MzyOOoAIiIlFhOLgf8xg6nEThfNkEFQESk5HJwOeDHQXNlCzqiA4hIefmVdDCNZ2Mci3Egzs7AdMAxVuHcAVxFwkXsy7VmpMGRS8sWi4fg3QAAHVpJREFU8lNfwvHAhUBPG0c36OCHbZwnW0kFQERazm9kCqOcRsKpODPX/83H/0vMBeYCB5HyPpbyoC/hLHr4su3NSLszV4Et4HJfzLEYF9GuEmB80/bhrrbMkjHRJQARaSlfwkk0uB3j4389+W+d7YD/YIhbfIm2js1Kmy8HrKPBx9swR8ZBBUBEWsLPp+aLORM4Dyaw6YuxM3CxL+ZMd6xV+eRv2vh0wBn2LO7NeIaMkwqAiEyYX0kHu3IhxuktOqRhnM5SzlEJyIYt4HKyLQE/YD6fzejY0gIqACIycX38O3B0Bkd+A0t4fwbHFf5aAo4D6i0+9E/o59W6qTPfVABEZEJ8Ca/DOSWzAcYnfClHZnb8irMF/ATnedCypfqzcY62w8M3H5InoAIgIuPmNzEV48yMxyQ4X/Kb6Mp4TmXZQq5jmH1x/h8wOq6DOH8CTrAFvMUWjvMY0lYqACIyfkOcvuFxvqztwhAnt2FOZdlBrLSFvA1nL4xvAf1b+al/AN7MWva2BVyYYURpMe0DICLj4rfRTX+GS/+PZ7wX+HLb5lWULeQO4HV+E29mmEOB5+LswPrHNKcCD2Pcj3MTCT+2edwdmVfGTwVARMZnLc8Fets4cSdfxr42jxvaOLOyNmzG9PMNH1JCugQgIuOzfjOZ9ko5ru0zRUpKBUBExuuggJkHBswUKSUVABEZr10DZu4WMFOklFQARGTMfDGdwOS2Dzamt32mSEmpAIjI2HUGPZPvdIfMFSkhFQAREZEKUgEQERGpIBUAERGRClIBEBERqSAVABERkQpSARAREakgFQAREZEKUgEQERGpIBUAERGRClIBEBERqSAVABERkQpSARAREakgFQAREZEKUgEQERGpIBWAHHD3HqAWnUPijTAyOzqDiFSDCkAwHxzcgXr9V0BPdBaJlzbSG4ZXLT82OoeIlJ8KQCDv7382aboYeFZ0FskHxzub5hcOr15xVnQWESk3FYAgXq+/mST5BTA3OovkjLs1vfne4TUrf+vuHdFxRKScVADazN17fGDg27h/FeiMziP51UwbBwyvWX6fP/LIdtFZRKR8VADayFetmk69/hPg1dFZpBhS97nDndw5snr1gugsIlIuKgBt4vX6dnR2XgkcGp1FiiV172n66LWjA6tfEJ1FRMpDBaANfO3avXC/Ftg3OosUk+MdjdHRy0f6V78pOouIlIMKQMa8v/8gzK4CnhydRYrNcWuko18d7l/5wegsIlJ8KgAZ8v7+g0mSy4GZ0VmkJNyt2Wx8cnjN6k9ERxGRYlMByIj39x9EklwGTIvOIuXTTEc+NLxm1b9G5xCR4lIByIAPDh644Td/nfwlM8109MPDa1Z9LGT4KCMhc43hkLkiJaQC0GI+OHggaaqTv7RFM218ZHjNqo+2e64tZBQYbPdcnNVtnylSUioALeT1+rwNJ//e6CxSFU4zHT1jZM2qdwUMvyNg5u0BM0VKSQWgRXxwcAfcL0YnfwnQ9MYXhleveFlbhzpXt3XeetcEzBQpJRWAFvCVK/tI00uBHaKzSDW5u6Wk3x1Zs2b/tg01LmrbrL/N/GHbZ4qUlArABLl7F11dFwDPiM4i1ebutZTRXw6tWvWUtgzs5UpgTVtmrXe3zefGNs4TKTUVgAlwd6Ne/xrwvOgsIgBpmvaYNZe5+9SsZ9nuDGN8Ies5fxvIp9s2S6QCVAAmYmDgDOCk6Bgij5Z6OmNk7ar2XJ/v5jMYD2U+x/kTKV/LfI5IhagAjJMPDByB2Yejc4hsSrPZeObI6hXnZD3H9mYAeF/GY1KMd2949FBEWkQFYBx8aGgn4DtALTiKyGY10uYbhwfWvCrrOTafcyHDSwHOh2wBl2d2fJGKUgEYI3efRLN5ATArOovIFhmkjdFvrVvz8O6Zz+rnPcDFGRz56yzQtX+RLKgAjFW9fjYwPzqGyNZwTzsgucrdO7KcY4fT4A5OwFt2snacTzOfk83wFh1TRB5FBWAMfGDgdeimPymYNE3njPSv+r+s59iJNG0h72f998iDEzjUnaQcZQt5v07+ItlRAdhKPji4A/C56Bwi49FMm8cOr1p+Qjtm2QL+hw52Bz4MLB/Dpz6A82562Mv249KM4onIBpkuC5aFuyfU6+cBM6KziIyP4/Btd59jZgNZT7N9qAOf9PM5k904BOdY4EBgF2A64MAq4HaMq0j5IQtYZEaadTYRWU8FYGvU6/8MHBYdQ2QiUnzSSP/KnwIHtWumnUgT+NWGDxHJEV0CeAI+MPAM4F+jc4i0QjNtHjiyZuXbo3OISDwVgC1w9wT3s4Hu6CwirdJMm5/3VaumR+cQkVgqAFsyMPBWzA6IjiHSSo53jlqa+VMBIpJvKgCb4QMDczH7RHQOkSw0vPm80aG1z4nOISJxVAA279/RXf9SYs3hEa0CiFSYCsAm+Nq1hwKZ76EuEin15uzh1SvOis4hIjFUAB7H3WuYfRmw6CwiWUtJ/0k3BIpUkwrA49XrrwX2jo4h0g7u3jGS+LnROUSk/VQAHsXde4CPRucQaac0bRy1bvXqXaNziEh7qQA8Wr3+DuDJ0TFE2snBzJrnRecQkfZSAdjAV67sAz4QnUMkwvodAtfsF51DRNpHBWCjzs73ALOiY4hEcRrfjM4gIu2jAgD4ihW9mL0zOodIpGbafNrImjX7R+cQkfZQAQDo7n4b619RKlJpTvML0RlEpD0qXwDcvRs4JTqHSB40vfmsoVWrnhKdQ0SyV/kCwODga4Hto2OI5IK7JTX/SnQMEclepQvAhtf9vic6h0iepM3mC7U7oEj5VboAMDh4FLBHdIzSeOguSNOQ0R3XXx8yt4wcT0Yt/Wx0DhHJVqX3u/eBgR8BL4nOUWij6+DW38IffgXL75nYsa7ohOYEPn9ajeaBT6XxsmNJZ24zsSwVl1iytmf67N7oHCKSncoWAB8c3IE0vRuoRWcppNF18LsrYOllMFxvzTEnWgA26oD0Gdsz+oZXk26n2zvGq1brPL67d8YPo3OISDaqWwDq9TNw/2h0jsJpjMINl8PSy2FkqLXHblUB2KgG6cKnMPzWN8A0/TI7VjWr3dA9fda86Bwiko1KFgB3T6jX7wT0uNNY3HUDXPVdWPNwNsdvdQHYqNtoHHMAoye+DKzat72MhYH31HrmWG/v8ugsItJ61SwA9fqRuF8anaMwhvrhym/BncuynZNVAdjAt5vEyPveQrqjet/W6rCOr3RNn/n26Bwi0nrVLAADA98BXhmdoxDu+QP84utQX539rIwLAAAdRuP4/Rl9xSsyHlQOZrUVk6bPmh2dQ0Rar3IFwN17qNcfAnRReEs8hd9esP5aP96eme0oABukT5/D8AdOg+7u9gwssGRSz549Pb1/is4hIq1VvQuiQ0NHopP/lo2sg0v/a/0d/u06+bdZ8oeHmXTqR0gefCA6Su4lI833R2cQkdarXgFI05dFR8i1tSvh+/8Kd2V8vT8PHhmh+/R/J7n1lugkuZamjaOjM4hI61WqAGx48c9R0Tlyq385XPhpWPVgdJL2GUzp/vjZ1G64ITpJbqXus9etXr1rdA4Raa1KFQAGB1+Ilv83bfVf4IJ/g/5HopO037DT9elzqS1dEp0ktxKaH4jOICKtVa0CkKba9ndT6qvh4s+1507/vBp1uj77PyS3/DE6SS6l7i+MziAirVWtAgDPjw6QOyNDcMl/rF/+r7oRp/vfziF58P7oJLnjpE9y967oHCLSOpUpAD40tBNmu0TnyBVP4bIvw/J7o5Pkx2BK90e/CMPropPkioON1vu1eYJIiVSmAJCmWsJ8vOt+CPfeFJ0if1aM0P3pz0enyB1vNE6KziAirVOdAgDPiw6QK3ffCIt/HJ0it5LfPUTnd78bHSNXHN8vOoOItE4lCoC7J7g/NzpHbqwbgCu+QVk3+WmVjguvI7njtugYuZG6z/D+fm0LLFISlSgADAzsBcyKjpEbvzwPBvujU+RfE7o+//X190oI4Ix68x+iU4hIa1SjAJhp6XKjO5bA7YuiUxSGPbiOrm9/JzpGbjh+RHQGEWkNFYAqaTbg6vOjUxRO7bIl2OpV0TFywT3dJzqDiLRGNQqA6+YlAG78WTV3+puoEafrv78ZnSIXHLaLziAirVH6ArBh85JnRucIN1zXXf8TkCy6h+Seu6NjhHNPO9eteXj36BwiMnGlLwAMDj4T0Evfb/w5jAxGpyiuFDq//f3oFLlQs44TojOIyMSVvwC4PyM6QrjRYfj9FdEpCi+58QGS5bqEkjoHR2cQkYkrfwEALVfeeg0MrY1OUXxN6PiOVgHA9WpgkRIofwEwUwH4w6+iE5RGbdEdkFZ7XwB3142AIiVQ/gLgvkd0hFAr7ofl90SnKI/BlI6rfhOdIpTjvdEZRGTiSl0A3N2Aai9X/vGq6ASl0/GzihcA95qvXTsnOoeITEypCwBDQ9sDU6JjhLpzSXSC0rHbVsLISHSMUCPNkUOjM4jIxJS7ADQau0RHCLXyAehfHp2ifBpOx6LrolPESmxhdAQRmZhyFwCzbaMjhPrz76MTlFbt2oqvrKT+5OgIIjIx5S4AUO3rlPfdHJ2gtJI/PRAdIZRR8XItUgIqAGX20F3RCcpr5SgMr4tOEcYTZkdnEJGJKXsBmBsdIEz/clg3EJ2ivBxqv6/uJRZPfUZ0BhGZmLIXgOquAOjZ/8zVbv5jdIRAPi06gYhMTLkLQJJsEx0hzKoHoxOUnj1Y3ScsHJ8UnUFEJqbcBcB9cnSEMAMroxOUnq3sj44QyMr9s0OkAsr+TdwTHSCMnv/PnK0eio4Qx73sPztESq/c38Rm3dERwtRXRycov8HR6ASB3KITiMjElLsAuFe3AIxU9xG1tqnw+d8dFQCRgit3AYDqFoBmhc9O7ZJ6dII4Bq7LACKFVvZv4OoWgNHh6ATll1LxlwKtnBqdQETGr+wFoLpMK7QiIrJ5ZS8A1f31rKu6D0C0TQ3o6opOEWimtpoUKTAVgLLqVAHIXEe1V1nMLI3OICLjpwJQVloByF5nhQuAWYXvgBQph7IXgOreCddV3U0Q26arFp0gjE7/IsVX9gJQ3Yfh+6r7GoR28RkVLlmGlv9FCq7sBWBVdIAw07eNTlB6PmdmdIQwVultkETKodwFwKy6G+KrAGQu3XG76AiBrMIvQhAph3IXgDStcAGYG52g9NKdnxIdIY5Tj44gIhNT7gIAK6IDhOndBnq0UVtmEqe5997RKcJYYlV+F7JIKZS7AJhVtwCYwZP2jE5RWj5nEkyeEh0jjMPK6AwiMjHlLgDuD0ZHCLXDXtEJSivd/UnREUKZc390BhGZmHIXgFrtrugIoVQAMpMunBcdIZbzx+gIIjIx5S4AaXp3dIRQM7aDabOjU5RPFzT22y86Raha0rE4OoOITEypC4BNnfoQVPxu5T0PjE5QOulT51b8JUBQM7suOoOITEypC8AGf44OEGqvg4AK71mfgeYRh0ZHCGVmqfX2VvcRW5GSqEIBuCM6QKi+ubDtztEpymNqjcYBB0SnCGWYXgMsUgLlLwDuv4+OEO6ph0QnKI3mgl3Ayv9tsyVmdl90BhGZuCr8JFMB2OtgmDI9OkXxdUDj1a+IThHP9T0lUgZVKAC/iw4QrtYJ+74gOkXhpQueQjpzVnSMcGb26+gMIjJx5S8AU6feCujFJU8/HCZNi05RXAmMvvaV0SlyoZnaj6MziMjElb4AmFkTtGkJnd2w7wujUxRWumBH0rl6w6JZ0pg0Y0a1n6wRKYnSFwAAzK6NjpAL+75g/eZAMjY9MPKW10enyAXDHojOICKtUY0C4H51dIRcqHXA4a9F+wKMTeOlh+LTZ0THyAVLkuujM4hIa1SjANRqKgAbbb8n7F7tbWzHwrefxOjxx0fHyA/3H0RHEJHWqEQBsEmT/gzo2eWNnv0qmNwXnSL/OoyRd2vp/6/MvKt3xoXRMUSkNSpRADa4JjpAbkzuhRe+tfIb2jyRxssOIt119+gYuWEkq8xsXXQOEWmN6pwBzK6IjpArT9oT9js6OkVupftux+jLXhYdI1cSWBSdQURap0oF4NLoCLmz3zHw5L2jU+TPrC6G33tKdIr8qdW+Fh1BRFqnMgXAJk++F7g5OkeumMGR74A5O0UnyY+pNYY/eip090QnyRUzS7um9l0QnUNEWqcyBWCDy6ID5E5nDxz9TzBdm9zQbQyf8TbS7bRXwuOZJbebWRqdQ0RaRwVA1m8RfPSp1X5hUCeMvPe1pDvvGp0klxLQ9r8iJVOtAjBlym+AldExcqlvDrz0A9A3NzpJ+/XAyPtfQ3PffaOT5JNDo8F/RMcQkdaqVAEwsxHgh9E5cqt3m/UlYJunRCdpnykJwx95G8195kcnya3Ekgcnz5p1b3QOEWmtShWADb4XHSDXJvfC8afDjk+LTpK92V0Mf+Z9pHvsEZ0k1xKS/4vOICKtV7lN4d29g3r9fmBOdJZc8xQWXbL+w9t079cVndBsz6j06XMY/sBp0N3dnoEFNmnEt7W5cx+KziEirVW5FQAza+Cu7UyfiCXwrGPhuPeU6+bADmi8+lCGP/oBnfy3QkJyn07+IuVUuQIAgPu3oyMUxpOeCq84A3ZbGJ1kwnyHKQx/6l16uc8YmHFedAYRyUblLgFs5AMDNwEVuNDdQvffAr88D1Y9mM3xs7oE0GM0jj6A0VecmMHBy8vM0p6+2dPMbDA6i4i0XpULwGnAv0fnKJzmKCy7HJb9BIZbfF5odQHogHS/pzD81pNhytQWHrgakqR2dU/frEOic4hINqpbAPr7Z5Ek9wO6EDweo8Nw869h6WVQX92aY7aqAHRAuuDJjL7+JNLZ27TggNXUiT23c8Y2V0bnEJFsVLYAAPjAwHeBV0TnKLTRYbjlKrj5N/DIPRM71kQLQG+N5n57MPKqV0Bf38SyVJxZbeWk6bNmRecQkexUuwD09x9MklwVnaM0Vj4Aty+CW66G/uVj//zxFIAuSPeYQ/OIQ2gc/Oyxz5RNqiVdn+zum/7h6Bwikp1KFwAAX7v2GswOjM5ROmsehntvhvtuXv/XrblfYGsKQAK+7STSPZ9Muu/eNPbbH7q6WhJZ1jNLRnr6Zk0xs0Z0FhHJTkd0gBz4HPD96BCl0zdn/cfTD1u/kdDqh9Y/PbDqL7DmofV/HR2G0XXry8Ho8PqHUhODLoOuBDpq+KyppNvNwnfYnnSXnWjuuZdO+BlLktr3dPIXKT+tALjXGBy8BffdorNU3VBjCNyjY1SaYWlP0rWN9fXppVkiJVfNjYAexcyapOnno3OI5EHNkl/q5C9SDZVfAQBw9x7q9duAHaKzVJlWAGIZONa166Tp0++KziIi2av8CgCAma3D/VPROUQi1az2c538RapDKwAbuHsn9fqtwM7RWapKKwBxzJK0Z9R3sG22yWifZxHJG60AbGBmo5h9MjqHSIQkSS7VyV+kWrQC8Cju3kG9/gdgz+gsVaQVgBhm1uxJure13t5x7N4kIkWlFYBHMbMGZqdF5xBppxq1s3XyF6kerQBsgg8MXAocGZ2jarQC0H6JJQPdfbP6zCyNziIi7aUVgE1J09OA0egYIllLktopOvmLVJMKwCZYb+8twFeic4hkKUk67uzqnfGN6BwiEkMFYHOGh/8FuC86hkgWzMyT1F4WnUNE4qgAbIbNmtWP2duic4hkoZZ0fKNrxoxl0TlEJI5uAnwCXq//H+4vjc5RBboJsD0SS1Z3982apWv/ItWmFYAn4v5OYFV0DJFWqcHLdPIXERWAJ2BTp/4F0N4AUgq1pOPizumzfxGdQ0Ti6RLAVvKBge8Ar4zOUWa6BJAts9qKnr6Z25pZIzqLiMTTCsDWGh19G3BPdAyR8TBL0ponR+jkLyIbqQBsJZsxYzVpehLQjM4iMlYJfFp3/YvIo6kAjIH19v4GOCs6h8hY1JLaTd3TZ38wOoeI5IvuARgjd0+o1y8FXhidpWx0D0DrJVi9e3qyvdms/ugsIpIvWgEYIzNLaTZfBdwVnUVkSwxLk6TrcJ38RWRTVADGwfr6VgInAEPRWUQ2p6NW+3BXX9+i6Bwikk8qAONkU6fegNk7o3OIbEot6biks3fmp6JziEh+qQBMgE2Z8nV0U6DkTGLJn7r7Zh4TnUNE8k03AU6Quxv1+nnAq6OzFJ1uApy4xGrLu/tm7mhm66KziEi+aQVggszMmTLlZMyujs4i1ZaYDadN5uvkLyJbQwWgBcxsHc3mccCforNINZlZM7GuZ0+eNeve6CwiUgwqAC1ivb3LSZLnoccDpc0MSzut61jd8S8iY6EC0EI2efJ9NBpHAA9EZ5FqMPAkqZ3U0df34+gsIlIsKgAtZtOn30GaHg48FJ1FSs7Ma7XON3b3zfxOdBQRKR4VgAxYb++fgBcBj0RnkZIy8w6rvaurd8Y3oqOISDGpAGTEpk69gTQ9FLg/OouUi4F3kLy5q2/mf0VnEZHi0j4AGfOhoZ1I05/jvmt0lrzTPgBPzLA06eh8Zfe06d+PziIixaYVgIzZpEl3Y3Y4ekRQJsjMGh2dnUfq5C8iraAC0AY2efK9NJsHAr+JziLFlJitq1nXIZ1Tp/80OouIlIMKQJtYX99Kpkw5Avjf6CxSLGa1Fd0N262rr++66CwiUh4qAG1kZsNMmXIS7h+LziLFkFjyp56+mU+22bN1M6mItJQKQJuZmdu0aR/F7GRgODqP5Fct6bioZ/rsPc1sMDqLiJSPCkAQmzLla5gdBNwdnUXyxSxJO2u193b3zTwuOouIlJceAwzm/f2zSZL/BY6IzhJNjwFCgg3WaskRnb2zronOIiLlpgKQA+5eo17/BPA+KrwqU/UCUKt1/K5r2oyDzWwgOouIlF9lTzZ5YmZNmzr1A7g/H7gvOo+0l2FpLen8RHfvzH108heRdtEKQM74ypV9dHV9GXhVdJZ2q+IKgFltZc2T53fNmLEsOouIVIsKQE75wMDrgc8B06OztEvVCkDNaj/o6pv5cjNLo7OISPXoEkBO2dSp3wD2wkzbvpZMYsnqzs6uF3ZPn/VSnfxFJIpWAArA6/Wjcf8ysEN0liyVfQXAwJNa5/90TZv+jzrxi0g0rQAUgE2Zcgmjo8/A7EtAIzqPjF2S1P6U1JKndffOeI1O/iKSB1oBKBjv79+TJPkc8OLoLK1WxhWABKsnlpzaNX3WOdFZREQeTQWgoLxePwb3zwK7R2dplTIVADNr1God/9U5dfpp+o1fRPJIBaDA3L2Tev0fcD8Ds12i80xUGQqAYWlSq/2ky2snWV/fyug8IiKbowJQAu7exeDg63A/A9g+Os94FbkAGOZm9uvuUf8H22abB6PziIg8ERWAEnH3SdTrbwZOBXYKjjNmRSwAZtZMktpPu4abb9SJX0SKRAWghNw9YXDwJaTpBzE7IDrP1ipSATBsNLHkR12evMFmzFgdnUdEZKxUAErO1649jCR5F+5HA53RebakCAUgSZKHjdp/dvVO/zfd3CciRaYCUBE+MDAXeCXwJmDv4DiblNcCYGbNxGqLEuO9nb0zr4rOIyLSCioAFePuxsDAYZi9BjgOmBGdaaNcFQAzT7A/m9W+1tU7/Uwz0wZMIlIqKgAV5u416vXDgdcCxwB9kXnyUACSJHkoseSiTuv8F5s27eHQMCIiGVIBEADcvYd6/TDgyA0fbd9gKKIAmCWNxOxWqP2wy5LPW2/v8rYGEBEJogIgm+SrV+9KrXYk8DzMDgLmZD2zHQXAwC1JHjaSa2tNzu6YOfPSTAeKiOSUCoBslQ3vIDgIOATYH9gT6GjljCwKgFkyYpbca2bX1Br+/dqMGT/W3fsiIioAMk7u3s3g4NNwfwbwDOCZmO2C+5OBrvEccyIFwLAGlvQn+J8tqd1AklzZ2eTH2o5XRGTTVACkpdy9xtDQ9jSbO2O2M2ZPwn0WsP7DfRZms3GvYdYL1Fi/kjBtqDEE4OYOGGy4896cYcyHsFq/ebrGsJUkyT04vzfzxR3TZiw2s3VRX7OISBH9f3EECKr32ZNJAAAAAElFTkSuQmCC;" parent="1" vertex="1">
                    <mxGeometry x="66" y="77" width="96" height="96" as="geometry"/>
                </mxCell>
                <mxCell id="13" value="" style="rounded=1;whiteSpace=wrap;html=1;strokeWidth=4;fillColor=#FFFFFF;strokeColor=light-dark(#5eb132, #73b14c);fontColor=#ffffff;" parent="1" vertex="1">
                    <mxGeometry x="402" y="60" width="130" height="130" as="geometry"/>
                </mxCell>
                <mxCell id="14" value="" style="shape=image;verticalLabelPosition=bottom;labelBackgroundColor=default;verticalAlign=top;aspect=fixed;imageAspect=0;image=data:image/png,iVBORw0KGgoAAAANSUhEUgAAAgAAAAIACAYAAAD0eNT6AAAACXBIWXMAAHYcAAB2HAGnwnjqAAAAGXRFWHRTb2Z0d2FyZQB3d3cuaW5rc2NhcGUub3Jnm+48GgAAIABJREFUeJzt3Xm8JGV97/Ff7b2eZc7sgMDAIAMKqLjGBeV1NbKoxDDgsCgRHNkkmzG5xmRikpubTUVARb3BBAQDUZRRkCyCYqIIbiDDzrDNfvbTe9dy/wAMTpg+53RX9fNU1+f9r3bXdw5d1d+uehYRAAAAAAAAAAAAAAAAAAAAAAAAAAAAAACgC0N1AEAnn7vqpLXtnBzfkvZRTQkPa1n+/m0jGm4ZQbFl+F7DDOxQxAglNNpmqDouRMQJTTHFjEyRKBdavhvZTSeyam5oznhiP+1G5sNWaN0zLOZ3ztmw+QHVeQFdUACQWZ//ygmHVcPo7KrZPn7ObB86azdHq1bLUp0LySkGTjgceFPFwH2kGLq32WF09YfOvGWL6lyAChQAZMYXrn3Hioq0L561WqdM2rVDp+ymqzoT1BsJcq0xP/9I2fduKov9qfM23LRLdSagHygAGGifu+qktXNe8McTTvXEXU5tLDC4bY99syJDlreLk8v9ws1lw/zzD5x+80OqMwFJoQBg4Fxx/amlerv68Qm3euYOt7IslEh1JKSQGRmysl0cX94ufnl5KH9y5pm3zKrOBMSJAoCBcfmXT3jjtN3+26fdmWNrpm+qzoPBkQ/tcP/W0E9H27mPXHTmN/9DdR4gDhQApN5l15y8Ydyt/vkT7sya0ODXPpJjiCH7NUu7VrQKn7jkzFv+RnUeoBcUAKTWp6498YJt7uxf7nKqI6qzIHtWtEsz+zfKH7vkzG9dpjoL0A0KAFLn8utOPutpe+YT293KUtVZgFWt0uTqxtDvX3LWN69SnQVYDAoAUuOKL59wzB67ee3W3NQ6bvRDJ4aIvKg59PTKoHjahe/51n+pzgMsBAUA2tt01ftyudyOf3mkMHlCSwI+s9CWE5qytrnklkZ99W9sOudLDdV5gE64mEJrV1xz0m8+mpv50rhTLarOAizUWDvfOKg+egGPBaAzCgC0dOWVJxf2DDVufSQ/+XpG9iONDBFZW1/yw2Uz+eM3btxcU50H2BsFANq58tpff/3DbuVbu53akOosQK/G/Hzt0NrYuy8866Zvq84CPB8FAFr5xHVvu2xLYfJCnvVjkDihKUc0l175e6d/+4OqswDP4SILLWy66n05O7/ttofyE69RnQVIyprG6P3LjCWvunD9DRXVWQAKAJS78kvvOuSR0sTdLOiDLFjeLsy+qFF+LdsQQzXWS4dSl3/5hDfeV961hS9/ZMVupzb0UGH655+5+sQTVWdBtlEAoMylV590zi8K47dN201XdRagn2atpv3T8u7Nl15z4sWqsyC7LNUBkE2XXnPShfeWd32uYQaUUGRSYETGbrf29ve+42jn1q8+8h3VeZA9jAFA3336mhN/+57y7k8w0h8QsSJDjqov/7vfec8tH1adBdnCHQD01aeuO/EjPyvu/DvfCPnyB0QkMkR227XXvfedx+Rv/eoj/646D7KDAoC++fTVJ2y8t7Tnk3z5A78qMkT22LXXv/fkl8mtX3v4u6rzIBu4EKMvLr36pHPuKe/8f22+/IF9siNTjqqtuPC3N3zrM6qzYPBxMUbiLv/yCW+8Lz9+W9XyGfAHzMOLrOiYuVUnsHQwkkYBQKKu/NK7DtlS3rVliql+wIINBZ6/trXyZZecfuMvVGfB4KIAIDGbrnpfrlp+dAeL/ACLt7xdmF07MbqKnQSRFG7JIjFW/qn/4ssf6M5upza0c7j2A9U5MLgoAEjEJ65722UP56depjoHkGaP5qeO+rvr3v5Z1TkwmHgEgNh9/tqT33RnYcdtjPgHeueEpry8svrtDApE3LhAI1abrnpfbq78yJ49Tq2kOgswKMb8fO3QYPUKthFGnHgEgFjZuW3/xpc/EK8Ju16YDKb+VXUODBYKAGJz2VdOPPWRwuTrVecABtGj+anXXnbNiWeqzoHBwSMAxGLTVe/LzQw9PDFh1wuqswCDaqydbxw+sWSMqYGIA3cAEItcbse/8OUPJGvCqecmh5s3qM6BwUABQM8u/copL3kkP3mC6hxAFjyan3r7F//xHUyxRc8oAOjZhDH99ZYR8DgJ6IOWBMaTuTnuAqBnFAD05PLrTj7ridzsIapzAFnyRG72kMuvO/ks1TmQbhQA9ORpe+aTkUSqYwCZEkkkT9szn1SdA+lGAUDXLrvupA9udytjqnMAWbTdrYx9+roTPqQ6B9LLVh0A6fWkM/NXqjMkbbkU5VX2/nKQMypLnaIMuzlxLVssyxTTMsQwGPqgUhRFEgaRBEEorcCXmVZDxltV2epPyl3+07JbBnu23FPO3J+JyKdV50A6cfVCVy699oRzflzc+Q+qcyThZeYqeUtujRxYXCL5vCOcJmkVSa3elicqk/Ifzcfk5+EO1YES8ar6fudddPrmL6rOgfThDgC6Mu7UPq46Q5xKkSfv9o6QVwzvL/m8qzoOYmFIIe/KuvxKWScrpV5vyY+nt8kN7XulJm3V4WKz06r8qYhQALBo/LTBol3+5RPeeFdp53cHYejfkOHK2d7L5cglq8S2GRKTBb4fyi8mt8s/NX8mc1FTdZyeGSLympn9jj//7M3fUZ0F6cIdACzatN3+27R/+ZtiyEn2i+XXx14sjsdpkCW2bcoxy/eXl7RXyfcntsp17XsljELVsboWici4W/u/IvIq1VmQLtwBwKJccf2ppXudJ2Zqpp/an8sHGMPyoZHXyUiZlYshMlWpyqen/kuejmZVR+laPrDDV02tHHn/+2+aU50F6ZHaizjUaAbVj6f5y/9k+3D56Kq38OWPXxotFeWjq46XE+3DVEfpWt3yzamc/2eqcyBdUnshhxp77GoqtyM1xZCLcq+Rd6w+Qiye9WMvtm3Ku1a/RC7Mv0aMlN4YnXDTeW5CHa6EWLDPXXXS2h1uZZnqHIvlGJb8cfnNcvTy/YSnXtg3Q45Ztp98tHyc2FH6Lo073Mqyz1110lrVOZAe6fuUQ5m5XPtjYcqW/bXFkI+Wj5MDRkdVR0FKHDi6RP50+C2pKwGhRDLnBX+sOgfSI12fcCg1YddTteWvaZjyv8vHyX4jI6qjIGVWjgzLH5bfKGbK7hhNONUTVWdAelAAsCCf/adTlu9yaqla9/8i71VywOgS1TGQUgcuGZPzc+maWbfLqY594dp3rFCdA+lAAcCCNOzGhwIjPXOl324dJi9dvlp1DKTcMcv3k5Otw1XHWLDAiGQubF2kOgfSgQKABZm1m+9SnWGhDpIReefKlwgD/tA7Q05cuU4OMIZVB1mwOaeVmnMValEAsCATdiMVo4tNMeSDI68Wy+LLH/GwLFMuHnltasYDTNj19C5ogL6iAGBen//KCYfNWI1U7JCz3n2JjA2VVMfAgBktF+Xd9pGqYyzIjN10/9/V73ix6hzQHwUA86qG4fvSMPmvFHnyprFDVMfAgHrLskOlII7qGPOKRGTWap+lOgf0RwHAvKqm/2bVGRbirPwxYjuW6hgYULZjyVneMapjLEjV9I9XnQH6owBgXlWrrf3P6rLhydFjjPpHsl42tr+UDU91jHlVrZb25yzUowBgXtN2U/vJ9KfY68Sy+DgjWZZtyjvddapjzGva0v+chXpcMdHR5646aW3VbGl/X/0VwweojoCMeNXQAdrPCKhaLYt9ATAfCgA6audE+2eJx5qrpVBIxSQFDIB83pVjjJWqY8yrlZPjVGeA3igA6KgpwdGqM8zndd6BqiMgY16X0/8z50v7KNUZoDcKADpqia/9bcRDSktVR0DGHJqCz1zDjFgLAB3ZqgNAby3L3191hk6WS1EKeW7/L9S21qzcUd0q9zd2y4RfExGRMbsg63LL5Q2lg2U/Z0hxwnQo5l1ZKgUZl5rqKPvUMnwGxqAjCgA6ahmR1nvpHmOtUh0hFfwokH+euke+W90qUfSryzptb8/K9vasfKfyqBxXPFjWjx4ttsHNwc4MOdpeJf/hP6o6yD61JdT63IV6nOXoqGUEBdUZOjnM0f9WrGp+FMin9vyn3F557H98+T9fFEVyW+UxuXTP98WP0rPzoyqH2Xp/9pqmr/W5C/UoAOioZQZar3qy1C2qjqC9f566Rx5s7Fnw//+Bxh65fvqeBBMNhuWO3ntOtIwgpzoD9EYBQEctw9f6MVHR5vl/J9tas/Ld6tZFv+67c4/J9vZsAokGR0nzz17LCLQ+d6EeBQAd+Uak9YoneUf/zVlU+l7lfz7zX4hQIrmjsvjikCV5V+/PXmBovloRlKMAoKNQ9C4AXOM6e6C5u+vXbml0/9os0P2zFxih3gGhHAUAHQWG3oPBqu2W6ghamwy6n6bWy2uzoNbS+7On+7kL9XhGhI6cyIpaRqDtL4lKuymjkp7Bzv2eh98IfSWv3ZdBWodg1m+ojtCRE1mLf/aDTKEAoKNi4DZbdl3b0cTT7ZocIKOqY8wr6/PwB/HfP615ASj7blN1BuhN/7MMShUDe0Z1hk7GQ/1vU2d9Hv6g/vvHfb0/e/nI0frchXoUAHSUE1vrkWA7gznVEeaV9Xn4g/rv3xHqPU3SC6xdqjNAbxQAdOSE1lOqM3SyPdL7Ipz1efiD/O/fHupdPr3I1vrchXoUAHTkhdbDqjN08lQ4KyL6jnXK+jz8wf33R7It0vsOu2eYWp+7UI8CgI5cMX6hOkMnVWlL0Na3AGR9Hv6g/vv9dihVaauO0ZHlm/eqzgC9UQDQUa5t/1h1hvnoPB876/PwB/XfX2/p/eUvImIZ0U9UZ4DeKADo6Omzb/q5Fen9Mam29Z3tpNs8/H4b1H9/RePPnIiIFZlyxMM1re/eQT29r+xQbpMhYTF0tP65M9PWez42Bs+M5msAlAKn/eZNt+vboKAFCgDmVQzsiuoMnewJqqojIGPG2/o+nhARKYSO3lMUoAUKAOaVj5xx1Rk62U0BQJ/tCrXuxJIPba3PWeiBAoB5OYG1XXWGTrZH/NhBf+3Qfg0Avc9Z6IECgHl5kfmo6gydPC3TqiMgY56K9P7MuZGl9TkLPVAAMC9b7C2qM3QyEdYlDPRfOx6DIQxCmZS66hgduaF5n+oM0B8FAPOyQ+NnqjPMp9liwDP6o5GCz5optvbnLNSjAGBehpu/0xBDdYyOdF4LAINF54WnREQMMWQ4amu/gBfUowBgXheuv6FSCGyt77HPUADQJ9OarwFQCJ3gzDNv0XsnJWiBAoAFKYSO1hOfpzTfmx2DQ/fPWjHQ+1yFPigAWJBC5EyqztAJiwGhX3T/rOVDe0p1BqQDBQAL4oX2TtUZOtF9XjYGh+6fNTe0dqjOgHSgAGBBnNB8XHWGTp5iMSD0ydPRjOoIHXmR9bjqDEgHCgAWxDPMB1Rn6GS7zEoURapjYMBFUSTbRe9lgJ3Q0vpchT4oAFgQx7fuVZ2hkzAKpd0KVMfAgGu1fAkjrSfEiBvY96jOgHSgAGBBTDf/A9UZ5qP7/GykX72l9c7YIiKS9427VGdAOlAAsCDnr79hmxtZWt9jn9V8fjbSb0bzz5gXWdFv/dY3nlKdA+lAAcCClX1X69V2dF+gBek37eu9B0DJdzkJsGAUACxYPnK0Hv48rvkCLUi/cc3XAChofo5CLxQALFgusnarztDJjpDVT5GsHb7eMwDcQO9zFHqhAGDB3MB+UnWGTrZRAJCwbZHen7Gc6H2OQi8UACyYZ5gPq87QyZPRrIhoPU4RqRbJtnBadYiOrMDS+hyFXigAWDAnNO5TnaGTprTFb+s9Rxvp5bdDqRt6rzXhRsYvVGdAelAAsGBGJHerzjAf3eZp50y769fmje5fy/HjV0/BOhO2aWl/jkIfFAAs2J4NN99jRYbqGB1V2nrNVFxiFbp/rd39azl+/CptvQuAFZmy+z03cQcAC0YBwIJtMiQsBa5eP7H3MqPZPO11ueVdv/aI/AqOr5Hptl6frb2VAqe9yRCegWHBKABYlELoaL3t3rhmF+k3lA4WUxZ/18QUQ15fPIjja2Qi1HudCd3PTeiHAoBFyUf2hOoMnewK9ZqnvZ8zJG8qr1n0644rr5HVzhDH18iuQK/P1t7yoT2uOgPShQKARfFCa5vqDJ3sCPX7EbR+5Cg53Fv4rfDDveVy6shRHF8z2wO91wBwA1vrcxP6oQBgUdzIelR1hk6eivSbp20bplyy/NfkzeVDOt4ON8WQt5QPkUuW/5rYRnynZtaPH5enNF8EyBVT63MT+tFrng20Z0XW/aozdDIpdQmCSCxLr9kKtmHKhtFj5LjSGrmj+rjcX98lE8Ezz5THrIIckV8hry8elNht76wfv1dBEMmU6DW+ZG9eZG5RnQHpQgHAojiR9RPVGebTbLWlkHdVx3hBq50hOW3kKJERjp8mzabWk19ERMQz9D83oRf97rNBb453l9HFqO5+qqVgwRakS1Wz9SX2ZoghbTv3Y9U5kC4UACzKhetvqBRCR+v1UKd9tkRHvGY0/0wVAie4cP0Nek9TgHYoAFi0YuBoPSF6ytc6HlJoUrMFpvZWCvU+J6EnCgAWLR/ZU6ozdLInqKqOgAGzR7P1JfaWC/U+J6EnCgAWzQ2sHaozdKLjWgBItx2+3lMAvdDerjoD0ocCgEXzIutx1Rk6eTKcUR0BA+Yp0b0A6H1OQk8UACyaa5gPqs7QyU6jIlEUqY6BARFFkewUvR8r2ZHe5yT0RAHAojkt5+eqM3QSRqG0Wr7qGBgQrVYgYaT3Jnuebf1MdQakDwUAi2bmvDtVZ5hPvaX/wi1IhzSsK2EYubtUZ0D6UACwaOevv2GbF1la32PXfd420mNWsy2m9+aFdnT++hvYCAiLRgFAV0q+q/U37LTmF22kx3Sg9UddSqGjd0BoiwKAruQjR+th0eOh3oO2kB57NF9YqhA6THtBVygA6IoXWLtUZ+hkh6/3wi1Ij52h1l1XcqHe5yL0RQFAV3JiP6k6QyfbNN+7HenxtOYFwIksrc9F6IsCgK64Yj6iOkMnT0WzIqL1OEWkQiRPR3qvLGkHttbnIvRFAUBXLN+8V3WGTprSFr+t99xt6M9vh9IUvaeUOqHe5yL0RQFAV2zTult1hvnUUzB/G3qrpWE9CcdhDQB0hQKArux+z02/sCJDdYyOKm0KAHpTaTVVR+jIigyZOu3GLapzIJ0oAOjKJkPCUuBq/fOItQDQq2nNpwCWQ6+1yRCedaErFAB0rRA6Wo+Omgj1vnhDfxOB3iUyH9jMd0XXKADoWj60x1Vn6GRXwLURvdkV6v0Z0v0chN4oAOiaG9harz++PdB7/jb0tz3Ue5E9T+ynVWdAelEA0DXPMB9TnaGTJ0Xvizf095TmC0o5gd7nIPRmqw6A9HJD8z7VGTqZjhpy3pNfVR0DSIwbWlqfg9AbdwDQNc+wfqI6A5BlphFxDqJrFAB0rW3nfmyI3msBAIPKEEMMp0gBQNe4eqMn53/tNX7ValmqcwBZUwrd4DOn/JDHuOgadwDQk2LoMNkeUKAYcO6hNxQA9CQf2lOqMwBZlAvtSdUZkG4UAPTEC+3tqjMAWeSF1g7VGZBuFAD0xI3MJ1RnALLIC+3HVWdAulEA0BMntB5QnQHIIjsyOffQEwoAeuLZ1s9UZwCyyBHh3ENPKADoiWU7d6rOAGSRk8v9SHUGpBvrAKBn5934qrBp+nyWgD7xIiv6wrvu4gccesIHCD0rBU5DdQYgS0qByzmHnlEA0LNC5LDtHtBHhYBzDr2jAKBnudDapToDkCVeZHLOoWcUAPTMjeynVGcAssSN7CdVZ0D6UQDQMyuwHladAcgSNzQeUp0B6UcBQM+c0LxXdQYgS1wxOOfQMwoAeuc4d6mOAGRJGBqcc+gZBQA9mzrtxi12xEcJ6AcrMmTyjFtYBhg946qNnm0yJCwGTlt1DiALyqHX2mRIqDoH0o8CgFgUQmdOdQYgCwqBzbmGWFAAEIt8aI+rzgBkQS6yONcQCwoAYuEG9jbVGYAs8CKHcw2xsFUHwGBwxXxURN6sOkev9nOH5A3Fg2VdbrmM2QXxjGRPET8KpRn5UgmaMu7XZIc/J4+1JuSBxh6ZC5qJHrsbe/99REQm/Jrc39gtd1S2yrb2LPkS5oXmI6ozYDBQABALN7TuU52hF7ZhyWmjR8mbigeLYfRvY0PbMMU2XCmarqxwynKkrBCRQyWSSLY2p+SHtSflR7UnpRqoHWPZ6e+z2hmS1c6QvKV0iNxe3SrXT/1c/Ki/Y9R0zxcnW8xUn2vQBwUAsTCN6CeqM3TLNiz57WW/Ji/OLVMd5ZcMMWSNt0TWeEvkN4ZfIndUtsqtcw/JTND/TeAW+vcxDEPeXFojq+yyXLrn+337ktU9X9y8KEztuQa9MAYAsXAq1t39+90cr9NGj9Lqy39vOdOW/zW0Vv5i1dvkreW1Yhn9PW0X+/c5PLdM1o8clWCiX6V7vjgZIiJzDgUAsaAAIBYbN26uFQI3UJ1jsfZzh+RNxYNVx1iQnGnLqaNHyR+tOE6W2cW+HLPbv8+bymtktTOUQKJfpXu+uBVDN9i4cXNNdQ4MBgoAYlMKndRdmN5YXNPXZ/5xONAdlY+tPF6OLqxK/FhvLHU3JsIUQ95QSr5Y6Z4vboXArqrOgMFBAUBscqE9qTrDYh2u8a3/TvKmI+cvfa28vnRQosc53Fve9WuPyHX/2oXSPV/cCik8x6AvCgBi44XWDtUZFmuJVVAdoWuWGHL2kpcnWgJ6+fv042+re764OYGdunMM+qIAIDZeaD+uOsNi5cx0T4QxxJAzl7xcjson8zigl79PP/62uueLmxdZj6vOgMFBAUBs7MhkhzIFLDHkvLFXyQqnrDoKEuYZ5v2qM2BwUAAQG0fkZ6ozZFXOtOXcsVeKJeka0IjFMSKLcwyxoQAgNp5h/1B1hiw7yB2VNw8dqjoGEuR57t2qM2BwUAAQm/M23LTLC+1IdY4se+fQETJk5lTHQAK8yIo2vvtrDAJEbCgAiFUpdPq/Vi1+KWfa8tahtapjIAEl3+XcQqwoAIhVIXBmVGfIujeV1kjRdFXHQMwKoT2tOgMGCwUAsfIic5fqDFmXM215ZWF/1TEQs1xkc24hVumbCAutuZH9pIgcrTpHv5z35Fd7er1n2DJmF2Rdbrm8oXSw7BfT+vSvLR0ot1cei+W9oAc3tJ9UnQGDhQKAWLmh8ZDqDGnSjHzZ3p6V7e1ZuW3uUXlTeY2sHzlK7B53/DvYHZWy6clc2IwpKVRzxeTcQqx4BIBYuWLcqzpDWoUSyW1zj8qlu/+z573qDTG03uIYi+eIfY/qDBgsFADEKjDzP1adIe0eaO6WG6Z671GHuEtiSANdhIHPuYVYUQAQq6nTbtxiR3ysenV75VHZ3p7t6T1YGnhw2JEpk2fcwlLbiBVXasRqkyFhKXRbqnOkXSiR3FF9vKf3WOGU4gkD5cqB09pkSG/PhYC9UAAQu0Jgz6nOMAjur/c26yvPWgADIx86nFOIHQUAsctF1rjqDINgIqj19Pq8YcWUBKrlInuP6gwYPEwDROy8yNkmIi9WnSPtjJ53VVC/M+AXXvRu1REGghtY21RnwODhDgBi54XmI6ozDIIldqGn1zciP6YkUM0zLM4pxI4CgNjZYt6nOsMgOCK/oqfX10LGYg4K27c4pxA7CgBiZ4byM9UZ0s4yTHljcU1P77Hbr8SUBqrlzOCnqjNg8FAAEDunYt2t/ulzuv2v8lpZ2eM0vp1tCsAgMERE5pyfqM6BwUMBQOw2btxcK4ZuoDpHWh2dXy2njBzZ8/s81pqIIQ1UKwZusHHj5t6mhAAvgFkASEQhsKsVsxXP1nYZYYohxw8dKu8eeamYPY7gjySSBxvMHBsExcCuqs6AwUQBQCIKoT0pIhSAeXiGLUuftx3w6pi2A97anJLZgJ0AB0EudCZVZ8BgogAgEU5g7xCRg1TnSJqu89x/WGPr+EHhhtYO1RkwmBgDgETkIpu9yxVphL7cVX1KdQzEJB9Z96vOgMFEAUAiPMNk1LIi36s+JhXWABgYtthsA4xEUACQiELLvkN1hiyqR77cOvOw6hiIkWG631OdAYOJAoBEPH32TT93Qj5e/XbT9H0yGzZUx0BM3MiKLjn9xl+ozoHBxBUaidhkSDgS5FiJpo8ea07KbXOPqo6BGI34HtsAIzEUACRmyHefUJ0hK6phS74w8SMJpOctBKGRsu89rjoDBhcFAIkpRCxf2g9+FMrnx++UcZ/1YgZNgQGASBDrACAxeXH/TUTOUp1jkEVRJP8weZdsaexWHeUFnffkVxN9f13XYYiL13b/TXUGDC7uACAxzqx81Y74iCUlkEj+cfLHclf1adVRkAAnNMWryTdU58Dg4uqMxGzcuLk25uenVecYRPWwLZft/i/5zyrDLAbVMr8wwSZASBIFAIkaCXL3qM4waJ5sTctf7PyO3NfYqToKEjQc5n6uOgMGG2MAkKhS2/6W5OSNqnMMglYUyK2zD8nNsw+KH7Hb8qArtp3NqjNgsFEAkKhio/RFu7Tnr30jVB0ltVpRIN+vbpVvzz4sUz53hLPACU0pF50vqc6BwUYBQKLOPfeGyT+64U17trlzy1RnSZvHW1NyZ/VJubP2lMyxtW+mrPRLO8859euMn0GiKABI3GiQu32bzJ2qOoeO/CiUZuTLXNCSiaAiO9sVeaw5KQ8298hMwJK+WTXc9m5TnQGDjwKAxBUC63IRGcgCkPQ8d2TTsBifUZ0Bg49ZAEjcRWfc/L0xP19XnQNIg6V+vrZxw7e/rzoHBh8FAH2xrF1gS1NgAZa1i7erzoBsoACgL4YC5/8YqkMAmjNEZElo/pXqHMgGCgD64qIzbv7eWLvIbjVAB0vbhQq3/9EvFAD0zUq/cLPqDIDOVrSKLP6DvqEAoG+W1nK/x+ZAwAuzI1MKteIfqc6B7OBqjL75rd/6xlP7tcpbVecAdHRAs/zIRed+jd2d0DcUAPTV0lbhk6ozADpaGhb/XnVtLZ6mAAAbjUlEQVQGZAsFAH11yZnfumyszZoAwPON+fnaxe/55udU50C2UADQdwe0y1erzgDoZP/G8FWqMyB7KADou+Ks8zul0GU/W0BEioEblCrWH6jOgeyhAKDvNm7cXHtRc+hfVecAdHBQa/iWjRs3s88z+o4CACWGW8X3FUI7VJ0DUCkf2uGS0DtXdQ5kEwUASpx/9o27X9Qc/jfVOQCVDm6M3nLehpt2qc6BbKIAQJnRVuls7gIgq/KhHY5F3vtV50B2UQCgzPln37j74ObITSozNEK/69fWo+5fmxa6/310z9fJIY0l3+DXP1SiAECpkRnvjGHfa6s6/mTQ/dirSX/wx23p/vfRPd++DAVeu2iVz1YWABAKABTbuHFz7eDm8KdUHf/+xu6uX7ulPvg/3nT/++ieb18OaYz8zYXrb6goCwAIBQAa+N0N3/6DFe3SjIpj31HZKqFEi35dKJF8v/p4/IE0o/vfR/d8L2SVX5z6nQ23/LGSgwPPQwGAFg5slt5ritH3425rz8p35x5b9Otun3tMtrdnE0ikF93/Prrn25sVGbJfc/i9fT8w8AIoANDCRWfc/I1D66M/VHHs66fvkQeaC7+V/EBzt9wwfU+CifSi+99H93zPd0h9yfc/tOGbm5UcHNiLpToA8JwNv/6KG6e86u82zaCvn8tQIrmr9rQUTVcO9EbF2MediFAiuW3uMfmHibvFj7Ize1H3v4/u+Z4z7HvtQ2eXH3vTTVvYDAta6P89V6CDS6878fd/Utjxt4t/qhuP1c6QvKF4kKzLr5AxqyAiIhNBTbbUd8n3q49n4rZ/J7r/fXTNZ4ghx1ZW/O7FZ9zMdtjQBgUA2vmzrxz/80fzU0epzgHEZW1jyY8/dtq/H6s6B/B8jAGAdlaGheNHfa+lOgcQhxHfa62aG32r6hzA3igA0M7GDZvHD6kvOV/FrAAgTlZkyNr6kvefe+4Nk6qzAHvjCgtt/fV1b/vGfYU971CdA+jWkbVlX/vIe259t+ocwAvhDgC0VT/91lP2b5a3q84BdGP/1tCu+um3nqo6B7AvFABoa5Mh4arG0OuHfFfZXgFAN4YCr716ZsmrNxmSnfmiSB0KALR28dmbtx5RGzvFjSxVMwOBRXEiMzqivXT9Red+7QnVWYBOKADQ3gVnfetbL60v/VMGrEB3hhhyZGXpX15w2uavq84CzIdrKlLj/37lrTdvyY+/XXUOYF+OrC/75kdOv/Vk1TmAhaAAIFX+/J+P/+nDualjVOcA9nZIfeS+Pz39Oy9RnQNYKB4BIFVef3/wygObQ0+rzgE83wHN8o515tjLVecAFoMCgFR586bb/TXOyEtXtIvTqrMAIiKrWsWpda3C4evX38DqlUgVCgBS55xTvj59aGtkLSUAqi1vF2bXmMuOPPPMW7K9SxRSiQKAVNq4YfP4mtrSF69slygBUGJ5uzi31lh++MZ3f22H6ixANygASK3zz75x98Hhipcsbxf49YW+Wt4uzB4SrlzHlz/SjFkASL0rrz156ePO7JZt7twy1Vkw+Fa1ilNrzGVH8uWPtKMAYCBccf2ppZ3G+H1PuDMvUp0Fg+uA5tDOQ52Rdeec8nUePSH1KAAYGLdtOs6+Y5159yO56aNVZ8HgOaQx8ot1xtgrGO2PQUEBwMD5++t+/ep783vODA22D0DvDBFZV196yx+e/q8nqM4CxIlBgBg4v/eeb5/1svryP2EDIfTKjazomMrKTXz5YxBxBwAD64prTn7rQ/nJb0zZ9ZzqLEifUd9rrW2Mrr/ojJu/oToLkAQKAAbaF7946pKnyuN3bs3NHKo6C9LjwObwEy/yy68+b8NNu1RnAZJCAUAm/PV1b/vnB/MT630jVB0FGrMjU9bVln7lwxu+/R7VWYCkUQCQGZ+5+sQTH85P3zDh1POqs0A/o36+cVh99KwLz/zmv6jOAvQDBQCZcs01bx/aarf+/ZH81CsZIQgRETMy5JD66A+WWKNvvXD9DRXVeYB+oQAgkz599cnvebww+cVxu15QnQXqjLXzjUNa5Q9etOHb/6g6C9BvFABk1pVXnlyYHGlufsibeEvAmgGZYkemHNoYvbVV3+9dm875UkN1HkAFCgAy7/J/euer9+Tmrt3qTa9RnQXJ279Z3rW6XVx/0Rk3f091FkAlCgDwrEuvefsfPJaf/fiUXfdUZ0H8xtr5+kGNkY9ccua3LlOdBdABBQB4nts2HWf/eG3hb57ITV00Yzcd1XnQu3Lg+Wuaw185wCq/n3X8gf9GAQBewBXXn1qqBrNffDw385sVs2WpzoPFKweef1Bj+MvV5soP8pwf+J8oAEAHV155cqE61P7kE97ce6csHg2kwaifbxzYKv/TbGPlJXzxA/tGAQAW4LZNx9k/Pazw57ucuY073eoocwb0Yoghq1ulPSv9wmVTp9/yl5sMYclHYB4UAGCRPvflk07YY9f/8klv9uimEXAOKZQLrehFrZG7Rv38H154xk23qc4DpAkXL6BL11zz9qHdEn14ym2872l3bn/WEugPKzJlVau4a2mQ/0Yxcj66ccPmcdWZgDSiAAAx+NxVJ62t5vw/Gbfrb9vpVJcFbDoUKzsyZVW7tHO07d2cqxU/ftG5X3tCdSYg7SgAQMyu/OpvrJprND48a9ffMe7WD2IWQXeGAs9f2s4/NhTkvlYU6+/5pQ/EiwIAJOyKa05+a9VsvW/Obr1uyqqvnrVbrC+wF0NEhoNca9j3tg35uTuGxf6HD2zY/F3VuYBBRgEA+uyqa08+fDoKTq+b7dfXLX9txWwtm7ab+aw8NrAjU0YCr1b03d3F0HkoFzrftQLzuovP3rxVdTYgSygAgAauv/5Ud9pvvLYRhi/zrWBd0wwPbRnBypYEw74VFFpRmGtZgdOS0BIRCYzQ8DUpDE5oiilmJCLiRVbghGbbjcyGI3bVCY1pJ7B3eqb5qO3b99pW9NMjHqz+6M2bbvdV5wayjgIApNjdd9+tdOrBscceyzUESClTdQAAANB/FAAAADKIAgAAQAZRAAAAyCAKAAAAGUQBAAAggygAAABkEAUAAIAMogAAAJBBFAAAADKIAgAAQAZRAAAAyCAKAAAAGUQBAAAggygAAABkEAUAAIAMogAAAJBBFAAAADKIAgAAQAZRAAAAyCAKAAAAGUQBAAAggygAAABkkK06QBpsufIDq4zAfbNI9JpIjBeLRGtEZExESs/+XyoiMiFiPGZE0QNiGHeGUfidIy/8zE51qQEg/bj+JsdQHUBXD3/64mVtK9oghpwlEr2iqzeJ5O7IlKtts33tizd+fjzmiIDcfffdkcrjH3vssVxDEDuuv/3BybuXe6+44ADbMD4ciZwrIvmY3rZmRPLFVmD+7dEfuuzpmN4ToABgoHD97S9O3mfdfeUHnILvXiBG9Bfy37eW4laPIuNv3MD4q7UfuqyZ0DGQIRQADAKuv2owCFBE7r3ignWFwP2JGNGnJLkPn4hI3jCiP2074V0PXnnR4QkeBwBSgeuvOpkvAPd99sL1lmHcJRK9pG8HjeSlQRDddd8VF/xm344JAJrh+qtWpgvAlisuuMCI5DoRKSo4fMkwjOvv/8yFv6vg2ACgFNdf9TJbALZ89sLzxTCuELV/AyMS+fstV1x0icIMANBXXH/1kMkCsOWKi06TSC5XneOXjOgT3I4CkAVcf/WRuQJw/+UXHiZG9AXR699uGobxpXuvuGCd6iAAkBSuv3rR6T9C4h7+9MVeZBpfFZGy6iwvoGgbxnX3Xb/JVR0EAOLG9Vc/mSoAbTv8cF9Hmy5SJHK0Mb7nd1TnAIC4cf3VT2YKwL1XXHCAiPxv1TkW4GMPfvaD+6kOAQBx4fqrp8wUAFPMP5D4lpZMUjGIrN9XHQIA4sL1V0+ZKAAPf/riZYYRvV91jkX4wINXfmCp6hAA0Cuuv/rKRAFo2+EZko72+ZxCGNqnqw4BAL3i+quvTBQAEeNM1QkWK4qMs1RnAIDecf3V1cAXgC1XfmCVSPRy1Tm68Mr7rrhgpeoQANAtrr96G/gCEIX2WySd2x4bhphvUh0CALrF9VdvA18AzMh4teoMXTPD16qOAADd4vqrt4EvAJEYL1adoWuRHKY6AgB0i+uv3jJQAKJDVWfonrFWdQIA6BbXX70NfAEwREZUZ+hBmrMDyDiuv3ob+AIgIiXVAXqg46YZALBQXH81Nu/ozC2fuTDqRxAAi1d71TlKj1/40VVKjw9g34644IqO3/FZuAMAAAD2QgEAACCDKAAAAGQQBQAAgAyiAAAAkEEUAAAAMogCAABABlEAAADIIAoAAAAZRAEAACCDKAAAAGQQBQAAgAyiAAAAkEEUAAAAMogCAABABlEAAADIIAoAAAAZRAEAACCDKAAAAGQQBQAAgAyiAAAAkEEUAAAAMogCAABABlEAAADIIAoAAAAZRAEAACCDKAAAAGQQBQAAgAyiAAAAkEEUAAAAMogCAABABlEAAADIIAoAAAAZRAEAACCDKAAAAGQQBQAAgAyiAAAAkEEUAAAAMogCAABABtmqAwCAjsLAl3arLq1mQ8KgLWEQioiIaZliWo44bl7cXF5M01KcFOgOBQAAnicMA2lUZ6RZr0j0Av97EIQSPFsOahUR1ytIoTQqpkURQLpQAADgWa1mTaqzExJFL/TVv+/XtFt1KQ0tFcfLJ5gOiBdjAABARBr1OanMjC/qy/85URTJ3MweadbmEkgGJIMCACDzWs2a1Oamen6famVK2s16DImA5FEAAGRaGPpSnZ2I7f0qs+MShkFs7wckhQIAINNqldmubvvvSxRFUq/OxPZ+QFIoAAAyKwx8aTcqsb9vq16RMPRjf18gTswCgLaYh42ktZv1F5zq16tIRFrNuuTy5QTeHYgHBQDaYR42+qXVSm7AXrvVoABAaxQAaIV52OinIEjuNn3otxN7byAOjAGANpiHjX6LEhytz0wA6I4CAC0wDxuDx1AdAOiIAgDlmIcNVUwzuaegjEmB7igAUI552FAlyS9p02KIFfRGAYBSzMOGSo5bSOy9XZcBqdAbFbULkYgE7ab4rab4flOCwJcwCCSKnpmnbhimmKYllm2LbXtiu57Yjqc2tKaYhw2V3Fxe6hVJ4DNoiOPlYn9XIE4UgEUIw0CatTlpNqodnzFHUfjsXPW2tJp1kaqIYdqSyxfEy5cSfe6YNszDhkqmaYmbK0kz5rtQXr7IeQ7t8QldgDAKpFGZkUajKtLls+oo9KVenZV6bU68XEnyxWExTZ7AMA8bquVLw9JqVmMbh2IYpuSLI7G8F5AkvoHm0WxUZWZipzTqla6//H9FFEmzPiczE9ul1aj1/n4pxzxsqGaalpSGl8Y2aa84PEa5RyrwKe2gOjf5zKp0CXyRRFEoldlxqc5Nxv7eeA7zsLEwjpuXQmm05/cplkcZ/IfUoAC8kCiSuek90qzHPzp9b816ReZm9sRzdyGFmIcNXXiFspSHl4lhLL44GoYppeFl4jHmBClCAXgBczPj0k5wcNre2s16ZksA87ChE8fLy/DS1eIVyrLQO0herijDY6vFZR8KpAxXyL1U5yb7+uX/nHarIdXKtBTLvd+GTBPHLUi71UjkvbkVi26YhiXF0qjkC2VpNevSbjYkDH0Jnx2walq2mJb9zHbUXo7R/kgtPrnP02pU+3Lbf1+a9TlxXFdcr6gsQ78xDxu6Mk1bcvkyU0k1FT67JXir2ZAwaEsYPLMOi2mZYlrOMwUtlxfT5FHgvlAAnhVFodQqvW9G06vq3LTYTj4zo4iZhw1gMcIwkEZ1Rpr1ygv+cHhmDZZnykGtIuJ6BSmURhkT9AKy8S2zAPXKtIRhqDqGRGEgjeq06hh9lS8NdzXwal+Yhw0MplazJjMT26Wxjy//fb5mcju7hL4ACoA8sxtdo1FVHeOXGo3qL583ZgHzsAHMp1Gfk8rMeFcLNkVRJHMze6RZm0sgWXpxlRSRZi2mRX7iEkWx3xLXHfOwAexLq1mT2lzvj2irlSnuBDwPBUBEGhquyNesVxPZJEdnzMMGsLcw9KU6OxHb+1Vmx1kl9FmZLwB+uymRhtvGhmEgYbupOkbfMQ8bwPPVKrOx7dMg8szjgHp1Jrb3S7PMD5P2W/p+ybZaTclncBth5mEDEHl2ql8Cj0Nb9Yrki0OZv3Zk+18vIr7fUh1hn3TO1g/Mwwayrd2sJ/IoNBKRVrOe+WtL5h8BBBpvGct2tgCyrJXgqqxJrUCaJpkvAGGkfu7/vkQRA1UAZFeQ4HRofmBRACTSuQCEWZsHAAD/LYmt2J/DTAAKAAAgk+JbfTStMl8ADEPfP4Fh8gEFkF1JjtJnbwAKgJg6FwCDDyiA7EryS9q0Mj8JjgJg2Y7qCPtkapwNAJLmuIXE3pslwykAYtuu6gj7ZDv6ZgOApLm5fEJP6g1xvFwi75wmFABX35X2XJcPKIDsMk1L3Fwp9vf18sXMrwIoQgEQ2/HENPV71m5atlga350AgH7Il4a72iBsXwzDlHxxJLb3S7PMFwCRZ9qgbjwvuWdfAJAWpmlJaXhpbI8CisNjYpp89YlQAERExMuXRGJsmL0yxHh2NzwAgOPmpVAa7fl9iuVRBv89DwVAnplr6iXwnKlbXqGo5WMJAFDFK5SlPLysq8cBhmFKaXiZeBnf/GdvFIBnFYpDWtwWMgxTcgWeTwHA3hwvL8NLVz97h3RhRcDLFWV4bLW4Hr/898YwyGcZpiWF0hKpzI4rzVEcWqJFEQEAHZmGJcXSqOQLZWk169JuNiQMfQmf3TjItGwxLVscNy+ul2O0fwf8ZZ7HzRXEa5ekWa8oOX4uXxaXwX8AMC/TtCWXL0uO2/pd46fmXgrlJUq+hB03J4Uyt/4BAP1BAdiLISKloTFx+vi8yPXyUh5eJuxOBQDoFwrACzEMKfdpxGguX5bS8FKtpiECAAYfYwA6KJZHxXFdqc1NSRiGsb63aVhSGBrlmT8AQAkKwDxcryiOm5d6ZVqa9apEEvX0fs8s8lOUfGFYDOb6AwAUoQAsgGGYUigvkVxxWJr1OWnWqxKGwaLewzQt8XJF8QplFvkBAChHAVgE07QkXxyRfHFEgnZTWq2m+H5LQr8tYRRKFD3zmMAwTLFMUwzLEdtxxXVzbOwDANAKBaBLluNJ3tF3K2EAADphFgAAABlEAQAAIIMoAAAAZBAFAACADKIAAACQQRQAAAAyiAIAAEAGsQ4AACgWRaG0Wg3xWw3x2y2JgkDC6JnVRk3DEsOyxLYdcdy8OF5eDDYPQwwoAACgSBC0pVGblWajJhK98D4jYRSI+IEEfkuajaqIYYjnFSVXLItlOX1OjEFCAQCAPoskkkZlWuq1ishiNxiLImk2KtJsVCRXGJJ8cZg7AugKBQAA+igI2lKZGZfAb/f8Xo3arPjthpSGl4tpMqQLi8MnBgD6JPBbMje5O5Yv/+f47ZbMTO4UP8b3RDZQAACgD4KgLXNTe345uC9OUejL3PSeRW9TjmyjAABAwqIoksrMRCJf/r88RuhLZXqPRIsdU4DMogAAQMIa1WkJ/Fbix/H9ljSqs4kfB4OBAgAACQqC9rOj/fujUZvlUQAWhAIAAAlq1GZl0VP9ehBFkdSrM307HtKLAgAACYmi8JlFfvqsVa9JtI+FhYDnUAAAICGtVmOfK/wlKZJQ2q3+Fw+kCwUAABLitxoKj91UdmykAwUAABLit5Mf+b/PY/dh1gHSjQIAAAmJQl/ZsYNA3bGRDhQAAEhIqHIgXsggQHTGZkDoWhj40m7VpdVsSBi0JQxCERExLVNM65m9y91cXkzTUpx0cFmTj0uw5CBFx96q5LgA4kEBwKKFYSCN6ow065UXnN0cBKEEz5aDWkXE9QpSKI2KaVEE4uY+/gNpDK2UyM719biG3xDviTv7esw0Mg1D3V0Aky2C0RmPALAorWZNZia2S2MfX/77fM3kdmk364lmyyLDb4i79T/7flz38R+ItPnvOR/DVPcby7L4fYfOKABYsEZ9Tioz410tMBJFkczN7JFmbS6BZNlmTT0p1uTj/Tve5Na+Hi/NbNtRdmzLdpUdG+lAAcCCtJo1qc1N9fw+1coUdwIS4D7+AzH85Oecc+t/cRw3r/DY/X0shPShAGBeYehLdXYitverzI6zWUnM+vUogFv/i+N4eTEUXGYNMZWWD6QDBQDzqlVmY11XnM1KkpH0owBu/S+eYRji5gp9P66by4thMAgQnVEA0FEY+NJuxL+VaatekVDhIimDKqlHAdz6716uWO7vAQ1DcsXh/h4TqUQBQEftZj2RjUwjEWkxFiB2ST0K4NZ/9yzLkVxhqG/HyxfKzADAglAA0FGrldxFv61wo5RBFvejAG799y5fHBbbSX5Uvu14/PrHglEA0FGS64mHfjux9866uB4FcOs/HoZhSGl4WaKrYpqmJaXhpWIIz/6xMBQAdBQlOFqfmQDJietRALf+42OalpRGlieyOJBpWlIeXc6y21gUCgAU4pdKknp9FMCt//jZtiPDYyvEdrz43tPxZGjJSrEsdYsOIZ0oAOjITHApU/YGSF63jwK49Z8c03jm13q+ONzbGgGGIfnCEL/80TUKADpK8kvaZKRy4rp9FMCt/2QZYki+OCzDS1eJly8tqggYYkouX5LhJaskXxrhmT+6xhUYHTluIbHR+i4rlfXFc48CFrptMLf++8c0LSmWl0ihNCrtVk3araYE7ZYEof/LxbcMwxDLtMVyPHEc75nVBVnkBzGgAKAjN5eXekUSWAvAEMdjrfJ+Wei2wdz6V8MwDHG9orheUXUUZAiPANCRaVri5kqxv6+XLyY6vgC/aqGPArj1D2QHBQDzypeGY73laBim5Isjsb0fFma+WQHc+geyhQKAef33AiPxKA6PiWny0VNhX7MCuPUPZA9XYSyI4+alUBrt+X2K5VEG/ym0r0cB3PoHsocCgAXzCmUpDy/r6nGAYZhSGl4mXr7PO6Phf9j7UQC3/oFsogBgURwvL8NLV4tXKMtCV/LzckUZHlstrscvf1089yiAW/9AdjEMG4tmGpYUS6OSL5Sl1axLu9mQMPQlfHbjINOyxbRscdy8uF6O0f4aMvzGM7f9Rbj1D2QUV2Z0zTRtyeXLkuO2fipx2x/INh4BAACQQRQAAAAyiAIAAEAGUQAAAMggCgAAABlEAQAAIIMoAAAAZBAFAACADKIAAACQQRQAAAAyiAIAAEAGUQAAAMggCgAAABlEAQAAIIMoAAAAZBAFAACADKIAAACQQRQAAAAyiAIAAEAGUQAAAMggCgAAABlEAQAAIIMoAAAAZBAFAACADKIAAACQQRQAAAAyiAIAAEAGUQAAAMggCgAAABlEAQAAIIMoAAAAAAAAAAAAAAAAAAAAAAAAAAAAAAAAAAAAKPT/ARPjInsdWk35AAAAAElFTkSuQmCC;" parent="1" vertex="1">
                    <mxGeometry x="419.25" y="77.25" width="95.5" height="95.5" as="geometry"/>
                </mxCell>
                <mxCell id="10" value="" style="rounded=1;whiteSpace=wrap;html=1;strokeWidth=4;fillColor=#FFFFFF;strokeColor=light-dark(#6eb899, #73b14c);fontColor=#ffffff;" parent="1" vertex="1">
                    <mxGeometry x="431" y="430" width="130" height="130" as="geometry"/>
                </mxCell>
                <mxCell id="11" value="" style="shape=image;verticalLabelPosition=bottom;labelBackgroundColor=default;verticalAlign=top;aspect=fixed;imageAspect=0;image=data:image/png,iVBORw0KGgoAAAANSUhEUgAAAgAAAAIACAYAAAD0eNT6AAAACXBIWXMAAHYcAAB2HAGnwnjqAAAAGXRFWHRTb2Z0d2FyZQB3d3cuaW5rc2NhcGUub3Jnm+48GgAAIABJREFUeJzt3XmcHVWZPvDnrbt0316zkaQTBOOSqOD8FIKEsGgUjLI6CC0kyDIzEtkJsikELgJKkC2EfcZBkARtAgwSIriFTRaJ4IzDKiMgJCFAyNLLXave3x/dF5rQ6b7dVXVPLc/38+EPktxTL+mm36dOnXMKICIiIiIiIiIiIiIiIiIiIiIiIiIiIiIiIiIiIiIiIiIiIiIiIiIiIiIiIiIiIiIiIiIiIiIiIiIiIiIiIiIioi2J6QKIwqajQxPP4Y0pCSs5VRz9lAqmiuKjCm2FSKMAjQqMBtDY95FuATYo0A3VboFsUsGronhJLXkBZevFadb4V9vbxTb530VE8cIAQDSE7G3rW5L1+S+qyiwAXwKwA4C0x5cpQvG/auFBUWulXUg9nD1i7GaPr0FE9B4GAKIBXLzs9X9yNHEYgC8DmA4gUeMSygD+rMDvodYvzmuf+NcaX5+IIo4BgKhPtuP1MRYShwhwJAS7m66nPwWeE+ittqZuybaPf9N0PUQUfgwAFHsX3rl6b9gyH4KvAkiarmcIZSh+44hzxfmHbvt708UQUXgxAFAsqapcfOea/dXBDyAyw3Q9I/SMQH58ziETl4mImi6GiMKFAYBiRVXl4jvWtKvIOQA+a7oeTyj+W0QuZhAgouFgAKDYuLBj9TRAroFgb9O1+OQRK2Edf87BE//XdCFEFHwMABR52XvXNCTyeiYg34f32/eCpqzAdXXp1LlnHbRNp+liiCi4GAAo0i684839Aed6ANuarqWmBK9bjhx3TnvbfaZLIaJgYgCgSMqu1GTinTXnArIAgGW6HkNUgcWObjgj275D0XQxRBQsDAAUOdmONdslRH4B6G6mawmIVbaV+Fb2mxP+broQIgqOuN4ZUURduGzNNxKC/2bz/4DpCcdedWHH6gNNF0JEwcEAQJFx4bK1J0BxJ4BRpmsJoNEQ+a+LOtacZroQIgoGBgCKhAvvWH0WVK8Bv6cHIyq4/MI71l5iuhAiMo9rACjUOjo08aKsvRbAPNO1hImI/qw8dtJ3srOkbLoWIjKDAYBCq6/53w7gUNO1hJN2TNNJc9rbxTZdCRHVHqdLKZRUVV6UtdeDzd8FaX/JWnud6SqIyAwGAAqlC5etvQjAd0zXEXaqOPaHy1ZfYLoOIqo9PgKg0PnhHWuPF+i1puuIFMWpC9onLTJdBhHVDgMAhcqFy9Z8o2+rH2evvOWI6DfOPWTyvaYLIaLaYACg0Og94Q/PABhjupaI2mCXZafs4W2vmi6EiPzHuygKhRtv1FTv8b5s/j4anUjqL7Mdz0b9jYlEBAYACol1Y9ZeyuN9a+ILCWvURaaLICL/8REABd5Fy1YfoCr3gN+vtaIQ2X/BIW0rTBdCRP7hD1QKtOy9axoSeTwHYHvTtcSK4HXbSX4m2z6+y3QpROQPPgKgQEvk8UOw+dee4iOWVT7HdBlE5B/OAFBg/XDZ2h1E9RkAKdO1xFQRNj634LBJz5suhIi8xxkACiRVFel9ux+bvzlpWLhBVXmjQBRBDAAUSBffsaYdwJdM1xF7gr0uWrb2n02XQUTeYwCgwFFVURE+fw6OBZwFIIoeBgAKnIuXrTkQwGdN10Hv+dxFd775ddNFEJG3kqYLINqSQs40XUO1Tpnd5Orzix4IyS47x1kAgOcCEEUIZwAoUC68c/XeAGaaroO2IDLjgjvXzjJdBhF5hwGAgsWW+aZLoIFZjnOa6RqIyDsMABQYFy9dNwGCr5qug7ZGvnbx0nUTTFdBRN5gAKDAcFLOEeC6lCBLOkn7MNNFEJE3GAAoOFS/bboEGoKAXyOiiGAAoEC4+K43d4Tg/5mug4a08w873uQWTaIIYACgQLBt53DTNVB1RJxDTddARO4xAFAgCLC36Rqoal8xXQARuccAQMZd0vFuK4CdTddBVftC9rb1LaaLICJ3GADIuLKV2wtAwnQdVLVkor64h+kiiMgdBgAyTlV4wlzIqDr8mhGFHAMABcGXTBdAwyNgaCMKOwYAMqqjQxMAPmO6Dhq2Hfu+dkQUUgwAZNRzeGMKgDrTddCw1b2IdduZLoKIRo4BgIxKITnNdA00Ug6/dkQhxnPXySiFGm0ip8xuMnl519df9ECXR5WMyDQA95ssgIhGjjMAZJYF3kWGFb92RKHGAEBmOdjedAk0Mqr4qOkaiGjkGADIKIW2mq6BRkYUPA2QKMQYAMgwMfsQnkZOpNl0CUQ0cgwAZJaATSS0lF87ohBjACDT2ETCi187ohBjACDT+AggvBgAiEKMAYCIiCiGGADINKMn2ZArnaYLIKKRYwAg09hEwotfO6IQYwAgs5RNJLyEXzuiEGMAILOETSS0VPm1IwoxBgAySlQ3m66BRkYF/NoRhRgDAJll4TXTJdDIiOBV0zUQ0cgxAJBZDl40XQKNEL92RKGWNF0AxZtAXlSosesvesDdLsRTZrs7x8jt9Q1jACAKMc4AkFGOY71gugYaGdsWfu2IQowBgIyaZo1/FUDBdB00bPnPJCa+broIIho5BgAyqr1dbADPma6Dhu3Zvq8dEYUUAwAZp4KVpmugYRL9g+kSiMgdBgAyTtRiAAgZh18zotBjACDj0unEQwDKpuugqpXr08lHTRdBRO4wAJBxZx20TSeAP5uug6qkeLLva0ZEIcZzACgYBL+DYlfTZVAVBHz+T7F1+h9vHS9WelsLzmSBTIZikopuC2DU+//IKEBHbfHR0R8eTXsAyUOxUQU9AvQI5C0H+O2lux1+td//LQwAFAgKuV2g55iug4ZmJawO0zUQ+UpVznhy6ScSDj7niEwV4FMApkIwFYpRgNP7x6CADDhAlReSBgANEIypDKNQCDAZAAMAxcN5h7Q9e+Eda/4C4HOma6FBrTrn4In/a7oIIi/9YNXP28rFxK4isgugu+DJ23eByiiVLfp77Q4t/WQtLsIAQIEhip+rMAAEmQh+broGIrfmP9aRqZPS7g6svQW6t13CTiKQ9zq8udPJK5rOfmTJ6Ev2nLvBz4swAFBglJPWbQnbWQh+XwZVWYqJX5ougmgkvrdq6bhEGe2i+AZQ3lMh9RKATr815ZR8BAADAMVD9uCJb13YseY3EOxruhb6MFX59TlzJqwzXQdRteY/1pFJS3lviHwbJT0IQNp0TdVKQbcF8D9+XoMBgALFEecKCxYDQACJ4ArTNRBV4+wnluwMB6eolA8G0AgN7p3+1jiOfMTvazAAUKCcf+i2v7/wjjWPAZhpuhbqR/WJBe2THjRdBtHWZDVr5Z6Yup8A31PFFwdenR8eApns9zUYAChwRPQSVfmV6TqqseiBLtMl1IQj1g9N10A0kOzKm+tzdXVH5Z7EfADTwnevPzCFM8bva/AkQAqcc745aTkUT5uug97zl/MOmXi/6SKI+stq1jr7sSWH5urrn4PgBiimma7JU5Y0+34Jvy9ANFwioiJyiek6qI/gAhGJyo0VRcBZf1yyV+6JqX9RkQ5Ap5iuxxeOtPp9CQYACqRzDpm4TJSvCQ6Ah879Zts9posgAnqP4T37sSW3wpIHAXzWdD3+Us4AUDyJiFqQEwGUTNcSY0XYOI53/xQEZz15+34JSf5FRb6NrRzAGzEtfl+AAYAC6wftbc9B9CrTdcSVApctOGzS86broHjLruxoOvuxJbfC0eUQtJmup2aEAYBizq6TrAheNV1HDP0jk7N+ZLoIirczH/35tJ768uN9d/3xouAjAIq37AGTesSRExGE07njQ6GYd8aRE7tNF0LxddYTSw6SRGKVADuarsUIzgAQAee0t90H8BS62pFLF7RP4rY/Muasx2//DlSWAWgyXYtBvp/TwwBAoWCPazsbwGOm64iBJ8e/O3GB6SIovs56bOmPAb0JPKjO94WODAAUCtlZUpayHgZgvelaImyDWPjWvHnCnRdkxFmP334xBGebriMuGAAoNM49fPLrUP0XAI7pWiLIhsgR535z0mumC6F46rvz/4HpOgKEMwBE/S1on/wrFZxguo7o0fkLDmlbYboKiqczH1t6Ku/8P8T3hc8MABQ65x0y6QYV5ctpPCIq5y84dPJi03VQPJ31+NJ2EVxuuo4Ayvt9AQYACqXzDpl8PiBsWu7deG57G8MUGXHWH5fsBeAWsBcNJOf3BfiXTqE1TSfOB7TDdB2hJfLLadrGxylkxFl/WroDLPkvAPWmawkoBgCirWlvF3uaTpojwA2mawkfudkeO/GI9naxTVdC8fO9VUvHwdYVAEabriXAfA8Acd9nSSHX18COu/CO1a8CfIVwdWThgkPbuOCKjDi0oyORLJVvB2Q707UEmsL3kzg5A0CRsODQyQsVcgK4RXAwtgqOY/Mnkz62bfkiAHubriPwRN/2+xIMABQZ5x3adp2IfgPAu6ZrCaD1EDnwvEMm8XEJGXPm47cfCMFZpusIA4G85fc1GAAoUs49ZPK9UtbPQfFH07UEhuIpqLUL9/mTSd9/8hdTBXoranDATRQ4wDt+X4MBgCLn3MMnv25v0/YlQC9AvB8JqAJXj9/QtvuC9omvmC6G4iu7cmXScZyfA2g1XUtYWIp1fl+DiwApkrKzpAwge+GytX+C6vUA4rbg6DUovnse3+pHAdBT/+Y5AnzBdB2hwjUARO4sOKRthV2PT/fNBhRM11MDJQWutjW5I1/pS0FwxuO/2Emg55iuI3Qs+Yffl+CzGIqNC5e9/klo4hoAXzVdi08eUpETzjuk7VnThRABQHblzfW5urpVEOxgupbQsZPbL9yj3dcQwEcAFBsLDvnI3wDMvvCONQcDOBfA5w2X5A3F07Bw4YJDJv2X6VKI+svVp38EsPmPQCGz+3Nv+H0RzgBQbF3UsWYPFb0AkC+brmWEHhPRS8755qTlIuL7m8OIhuMHf/zFjrblPAPeaI7E8wt3m/MZvy/CNQAUW+e2T3p0waGTv+JY8mVAlwMom66pCmVAlzuWfHnBoZN2P/eQyfey+VPgqIpjOdeAzX+kXq7FRfjFodg7/5ttKwGszHa8PsZC4hABjoRgd9N19afAcwK91Solf3bOnAm+bw8icuOsJ2+fq8AXTdcRXlqTAMBHAEQD+OGytTuI6rcA2RvQXVD7sFwG8CcV/V3SsX75g/a252p8faIROfPRnzZLIvMCgEmmawkrhR5x6W5zl/h9Hc4AEA2gbyX9eQDOW3jP283FUnlPqH4ZwJcA7AigzuNLFgD8VaEPilgrbSfxcLZ9fJfH1yDyXzKzAMrm70ZC5c+1uE7sZgDuvvvuUclksnjAAQf0mK6FwqmjQxPPJd7aPmHbU0XwKQDTFPgogBYoGkXQrMAoAE19H+kSYKMqOgF0QdAJwStw8CKAFwHrRfu5Ca9lsxLnUwspAn6w6udtdsl6GZAG07WE2ObMjJdGZyXr+8+DWAWAvub/AIBCLpfbt729nXdYREQeOfvx2xcr9ETTdYTcyoW7zanJzqTY7ALo1/y/AGDPTCazoqOjo2mozxER0dDOerRjO4V+x3QdYaeCVbW6ViwCwBbNv4IhgIjIK4nyufB+bUzsWI48XrNr1epCpvQ1/99g4BdRMAQQEbl01qMd2wE42nQdEVDWdOIPtbpYpANAv+a/yyB/jCEgwhYtXbXHlUtX/fKyJU9vb7oWoqjShH08gJTpOkJP8NjC6e2banW5yAaAKpt/BUNABGWzajkqVwBoT4jz0hVLVi26+rYnWkzXRRQlJ61YUSfQY0zXEQmqD9TycpEMAMNs/hUMARHTMvXpoyBa+R5Ii+Bk20q+cOWSPx/b0dGRMFocUUQ0jto0F8B403VEgQgYANwYYfOvYAiIiGs7nm0S6MUD/FYbRG9cXfrYn65a8vReNS+MKGJUuO3PI2/V7/q3Z2p5wUgFAJfNv4IhIAJKds/3AbRt9Q8IdlJxHrri9lX3Lr71ySm1q4woOs7+4227ICqv1TZMgGW1OPynv8gEAI+afwVDQIhdfvufPqKOnFrNnxXF/uVk4gWuDyAaPrXkcNM1RIbj/KzWl4xEALj//vvHJJPJP8Cb5l+xZyaTuefee+/lkZYhY8G6HILhfN24PoBomLKatQBpN11HRDx3ye5HPFXri4Y+ANx9992jisXiA/BhGkpVN7a1tZW8Hpf8s+j2P82E4pARfvy99QFX3P7nPT0tjChi8k9M2wvAZD+vUS6W4Ni2n5cIiltMXDTUAeDuu+8elUgkfisi070eW1XvmjRp0mHTp09nAAiJbFYtx0lcBbfvuBDsBOhR3lRFFE0OnG/5Ob5dLKGUz6PYnYt6CLDVlttMXDi0AWD58uWj2fypv9Zpq47ut+3PjU4pY4EH4xBFlkD292tsu1RCMZ8HFFDVSIcAgfz60j0OX2Pi2qEMAMuXLx/tOM5v2Pyp4tqOZ5ugcpEXYynwo/nfnr7Wi7GIouj7T/5iKoBt/RjbLpVQ7CkA+v6vRTwEXG7qwqELAGz+NJAht/1VSQWvbC50XuVBSUSR5Tj2V/wY1y6Ve5t//+7fR1VR6M5BnZrulPOXYtUlux3+oKnLJ01deCSWL18+WlV/KyI7ez02m394vbftz92TfwCAQM/MHjMr734k8stJK66uSzY3TU7YiQmSwFiojHMUY8XSpAKjRJEQaLOqvH+muoUcFOtVdL3lYD2S+lapiFevmnXMRoP/KeEl1izoh5u0G45to9iTx0DN/z2qKHT1IN3YACsRuvvXDxELlxi9vsmLD0el+QNg86cPuPL2VR1QHOp6IMEfTz1s5z1FxNufbDQiZ6+8+aO2lfgMxNlRITsC+ASAjwKYCO9+dr0N4CUAL6nivxOCxzc25J+5afo8/iwYxFmPL30LwDZejaeOg0JXD7TKUCEiEQgB+vTCGXOmw+DPm1DMALD509Ysuv1PM52Rb/vrz1FYp7L5m3Hmytu2VcveXSEz+xZy7lAGWnrvBn29T9mm75/dRQAHQEtPfc/pD9+yCsBDknDu+snux/zFzwLC5swnbtsW6mXz75vaH8aMQu+agB7UNTZAQhoCLMECk80fCMEMAJs/bU02q1brJ59+wouV/yr46WmHT/83L+qi6p3+yM/+Ayr7ANjOdC2D+D+F3glBx+V7Hv1n08WYdtbjv/g64KzwYiy3i/tCPBPwu4W7zdnHdBGBngFg86fBtE5bdTRUuO0vzFQOA9BouowhfFwgZ0Jx5ukP3/JnEb26sbz90uysWWXThZkg6uyoHt06lnJ5Vyv7VRXFnh6kG0IVAoqW4iTTRQAB3gWwYsWKbVT1QbD50wC47S8y3jVdwDDtrCq3dCb+8bfTH7711JNWXF1nuqBaUws7ejFOKV+AXXKfodRRFHtycMKyO0BxxY9nznnBdBlAQAPAihUrtrFt+3cA/snrsdn8o4Hb/iJCsc50CSMhwEcBvbKuqfXZMx65xbcDcYJIgU+6HcMulVAuFL0oB0DvIsJST27QDQQB8VymULjAdBEVgQsAfc3/92Dzp60Yztv+hsJtf4aJhDIA9PNxVdx7+sO3/PZ7K2/+lOliakFUXC0AVNtBMefx/3ICpOrrg76qrayqx2RnHROYnzeBCgD9mv9nvR6bzT86RvC2v4EJ/njqYdPv9KAkGiFVDXsAqNhbEtbTpz90yzzThfhPx474k6ooeHynLiKoa2iAlQz6Szz1/Etnzv2T6Sr6C0wA8LP5t7a2YuLEiUk2//Bz+ba//rjtLwDEwj9M1+ChDAQ3nP7QLXfNf+w/xpguxg/ZlSuTAEaN6MMKlHry3p7kJ4J0QybwzV8gyzMz/mb00J+BBCIA+N38x48fj9bW1gNXrVp1r9fjU+149rY/ACq4+bTDd1rlQVnkgkJfMl2D5wT/nCinnj79wVt2M12K1zqb147CCP//KxeLsMtebpwQ1IWg+QP4G8rOkVnJBm6VovEAUIvmL9L7/drc3Lw/Q0B4efi2vy5u+wuGhFh/M12DT7aHhZVnPHzr0aYLCQLHtlHKFzwdM52pC0PzX29Z1v6X7Dl3g+lCBmI0ANSy+VcwBISTx9v+Lua2v2CQXC6qAQAA6hR68+kP3booq1njN1teSORzw+7ivXv1c57WkaqvQyKd8nRM72mPirP/j3c9LLCzXMa+KU00/wqGgPAplnM/ALf9Rc7CfeZtkugsBByY6Mldj0y5a/5jHRnTpbiV29w27L175VwB6ni31CaZTiFZl/ZsPH9oj6p14KUzjnjCdCWDMRIA7rrrrvGmmn8FQ0B4XH77nz4CxSlejMVtf8GjIlGeBag4yLJz9x2/sqPJdCFuLP7614sYxhr+crGEcsm7tdeJZBKpTNDPXtIeseSAS2ce/nvTlQyl5gHgrrvuGp9KpYw2/wqGgHDgtr9oU9H/Nl1DLYhiVoOVW/n9390y4m10xvXumqlqxkYdB6W8d1nbSlhINdYj2Jv9e+/8L9l1zh9MV1KNmgaAfs3fk6Mk+xtu869gCAg2bvuLPgvytOkaakYwvZTC785+ZMlo06W48PKQf0LRe9iPR/+3iQjSDQ2QEDT/MNz5V9QsAASx+VcwBAQTt/3FhOXEJwAAgOBzZS3/OsSPA4Z8ZFMuluCUR/6Snw8QIJWph1hBbv54FyKzw9T8gRoFgCA3/wqGgODhtr942FRXfBZAt+k6amzXBivXceyqG4O+lH0AOugMgDqKsodb/lJ1dUikgvviWgFeU1h7LJwx51HTtQyX7wEgDM2/giEgOLjtLz5umj6vJECgV0v7QvD11p7MzVCvXq5bG2LJ1r9WChR7clCP5v4TqWTQV/z/1RFnj0t3O+x504WMhK8BIEzNv4IhIBi47S9eVPCI6RpMUOjc0x+59XTTdQxHfVPyUQBdA/1euViEY3sz9S+WIJWp92Qsf+jvkUrueemMI94wXclI+RYAwtj8KxgCzOK2vzhyHjJdgUE/PuOhn33VdBHVyu7QXoTiQ18vddTDV/z2nvHv1894DyzekOr6+sLp7ZtMF+KGLwGgr/n/ASFs/hUMAeZw21/8FDo7H8dW7ipjIKEit5+98uaPmi6kWmphxZa/VsrnoerN1H+qPg0rEchjfruhMnfhbnNOvmn6vNC/XM7zANCv+e/g9di1av4VDAG1x21/8bR435MLAEK1gtpjY8oJ67ZDOzoC2fW21ADnNgCbK/9ul8uwS9686MdKJgL63F9ehjq7LZx5+FLTlXjF0wAQpeZfwRBQO9msWo7KInDbXzwpfm26BMN2/+jEnu+ZLqIa2RlHbBbIrb3/pigN/xUBW5VuCORz/7uRSkxfOPOIv5ouxEueBYB77rlnQtSafwVDQG20Tlt1NCDTPRiK2/5CyHIS98Gzo2PCSSE/PP3hW/7JdB1V0fIiAE4pX4I63rzpNp3JQCRQ703aLKLzFu425+CwP+8fiCd/0/fdd99Ey7IehA/NX1Xvamxs/IPpxSDNzc37P/XUU/9ltIgI47Y/unTWEW8AeNx0HYbVAbghDFsDL5n57ZdV7WV2wZu7fyuZRCIdqP3+K8uO/tMlM+beZLoQv7gOAPfcc88Ex3F+B+BTHtTzAap616RJkw7beeedv9LT0/Mbr8cfrpaWloOeeuqp5abriCJu+6M+t5suIAB2O/2RW+eaLqIa+c6ejFdTNunAvORHeyB66sIZh3/l8t3nvma6Gj+5CgArVqzYxs87/0mTJh02ffr0EgB8/vOfn93d3f07r68zXC0tLfs99dRT99T6ujfeuCqEJ4ZVh9v+qCIF+5cAvFlNFm4/OemJ21pMFzGYU399w25Q7O/FWOmGDMQyP/UvkOW2Ze+4cMbcRYjBAmJXf+Pjx4/fCMDzE5C2bP4VO+200z4BmQk4sJYzARctWnLrX9f8z1sXX7V0Qq2uWUtebftTyGPc9hduP97rX94GxHjQD4CJdSXnJNNFbJWqOOLNgl0rmQjCUb8vqOCrl+x2+AGX7XrkK6aLqRVXAWD69Omltra2bwHw7Nn41pp/xec///nZAQkB+9UiBFy0aMmtz/+j+9vrO0ujVr+bfzFqIcDLbX8QOYXb/sJPITearmFr1Lbh0Vb3Ki6m84P6wqBT7r9xLgD37+kQIG32tL93RXD6hlTnP106Y85vTRZigus5l74Q0C4irqfFh2r+FXEJAZXm7/T9xNnQVWqNUgjgtj8ayD/erLsXQODuwhRAoTuPQlcX7GIJNdiwMLYhmTvW74sM1/yOKzIqcrEXY6Xq6sxM/Qs2QnE+UsmPXTJjzuVRONRnJDz5m58+fXqpp6enHcCvRjpGtc2/IuohYMvmXxGlEMBtfzSQO9rbbVEJ3Mpru1CAqgN1FMVcHvnOHtgln/uGYn7QDgeym5tOBbCd23EsK4FkXc2XNnUpZKGU9GMLZ875YRS39g2HZ9Grvb29mMvlDsUIQsBwm39FVEPA1pp/RRRCALf90WAcJ/kfAHKm66hQAOXCB388qeOg2JNHvrvbsxfgDGDb7SblAvOegGN/e2MrRD15eVEqk4YHk3/VekEhpyCV3PbS3Q4/+5I9526o1YWDzNO5l34hoOpDc0ba/CuiFgKGav4VYQ8B3PZHg7l81px3BHKD6Toq7Hxhq+fca9lBoasHxZ4cHMf7xwKiONrzQUeo3sYZAMa4HSeRSsFK+r7wrwzIXaqy98IZh3/m0t0Ovzrud/xb8iV+dXR0pDOZzJ3A4FtE3Db//p555pkHGhoajCflzZs337fLLruMaGtMtc2/v9FNqU2Tx9RPO+fUOetGck0TFt/65BQ7mXhOAferf0QPnX/4Lss8KIsC5pTfLZ2QSpf+D0CjyTpUFYXOruoW/4kgmU4hWVcHD88uKxTSifGLZxyxeeg/6p+TVvznNmKV/g7A1cJEEUFdc6NfJ7vagD4osJaVndJdl+1+5Ft+XCQqfFl90TcT8E0AW70j9rL5A+GfCRhJ8wfCORNQTiUWetH8ue0v2hbtPWedQq81XUcpX6x+5b/2vhLLUlg2AAAgAElEQVS30NWFctGz4wzq0kX9sleDjZRI6ftw2fwBIFGXKnnc/N+EYpmIzrNKybaFu83d+5LdDr+BzX9ovj6AWbFiRZ1t23cC2K//r3vd/PsL40zASJt/f6ObUpumtI2aesZxBwf6m37R7X+a6aj1KNx/7zkq1q5c+R9t31u5dJwkSn8DMMrE9dVxkO/sHvHnrWQCqfp6WAl391oCveEnex19nKtBXDjxNz+dZGn5ZSgybsZR4PU6caYnW1v3dIBdRbELgJ0BNFfzcQXeEOBlVfmbJc7jUOfRS2Z++2U3NcWZ7yswtgwBfjb/ijCFAC+af0XQQ0A2q1br1FVPerHyXwU/Pe3w6f/mRV0UbN975JbjRWFkJqCUy6NcdPujSpCsSyJZV+/mscDLl+111CddFjJiJ99/4zUATnA7jgBzF31t3gdep3toR0diyiR7glj2WJHEWEcwzlIkIFqG6iZ1UERK1hfLyb9fObM9MAtDo6AmSzA7OjoymUzmV6q62e/mXxGGEOBl868Icgi48van/gUqP/VgqC7YmMqV//GQ1azV/fCUP6pgRi2v23v33wOv9vuLJUjV14/01Du1rHLrpXv8a6cnxQzD8fddOzGZTP7d7d0/IH+6evZ3ZsThiN2wqMkJDO3t7blcLndgrZo/EPx3B1y0aMltXjd/oHdNwCtrN73w/R/95zaeDuwSt/3RSGUl66hgHmr8joBSvgAvD/tRR1HsyaHYkxvJ63PFLluev3CtGolE8nT3zR8Q1e+x+QdLzY5gam9vz9Wq+VcE9d0BfXf+c71u/hUbuoqjN+Xxt59cf9d4Xy4wAtz2R25cttdR/6OCy2p1PbVt2CV/8oZdKiPf1dN3mmD1rIR82peCBjH//v8YI4D70wgV9y76+rxHPSiJPGT+9Us+C9ruAD+m/QfSOxOw8aUghIDFtz45RYD5XozFt/3FV3N5uwUQfaQW1yoWiv5eQHtPEyx290CrPDvAUYz1t6gPs2GfiuoW6A1GVZ3zvaiHvBX5AAAE53HA2xt69qtF868IyuMAbvsjL2RnzSpLWdsBvOnndZyyDcenu/8t2WUbhc6uKmcDLLeNeFhOWnF1C4ATXQ+kcufifY97xn1F5LVYBADA/OOA/3vtTSx54EXUqvlX9D4OkBeNhgBHbwLwrNtR+LY/+smsY96E4NsAfDt7t1z0+e5/CwqgmMuj0J3b6mmDACDQ2r4Z0EofB2C0y1GchCDrQTXkg9gEAMDc4wBTzb/CdAiYP3eX3zV04vNQmQfgnZGMwbf9UcVlex71O1X8K4Bhr6SrRjpTj3SmDl4e5VcNp1xGoasbTnng2QdVrdlJgMeuujElEPd3/8AvrvzasW7DP/kkVgEAqH0IMN38K0yHgHnzppfmz935Jk0Wp6niagxvRTff9kcfcPkXj7oFwCm+DC6CRDqNTHMjknVpXy6xNeooCt05lPIfXuYikLdrVUfmbf0WgG1dDmPbtlzgRT3kj9gFAKB2ISAozb/CdAgAgNPaZ7572tzpp4itOwK4r8qP/Yjb/mhLl+111DWq6l8wFEGqvg71zY1IpGr72tpyoYRCV88HtwuKv2sf+lORk92OIZCOa/c79iUv6iF/xDIAAP6HgKA1/4oghAAAOPXbu7w4f870/aG6DwZZH6CCVzYVOq+sYWkUIpd/8eiLVOV0+LgmQCwL6YZ61DU1wkok/LrMhzi2jUJXz3uPBOwkavII7OT7b5wFYBeXw6jj2D/xoh7yT2wDAOBfCAhq868ISggAhl4fwG1/NJTLv3jk5QrZD8BGP69jJSzUNTUglckAUpsfnap9jwQKxY1XzjxqdW0u6sGWXcVyrvwPvtqucgkoL48NDnrz7290U3pDa71O+/EP/qVmzxYHc0XHY2NQSp8vguMBJBXy2PzDd9qDK/+pGt9befOnJGH9CoDvZ+YrgHK+gLLf5wV80NISUt+56YB5PX5d4OTf3PBJOPICXN4cWqozr/r6dx/3qCzySaxnACq8mgkIU/MHgjUTALy/PkDhfA7AA2LpSWz+VK3LZx3zQqKQ3wWiP4WXZ/gOQIDe9QFNDbASIzrbfyTmpFBaeco9V/n36m8HJ8BlXxDVP7D5hwNnAPpxMxMQtubfX9BmAojcOuORm7+mat0E4CO1uF65WEY5nx90H7+HXlGR/a7b/4TnvRz02HtvbKhP4Q243PuvFmYv/uo846ev0tA4A9DPSGcCwtz8geDNBBC59ZM9j7k/Uch/VlRugk/nBfSXTCdR19yIZLomswFTRPWPJ967+EteDppJyVy4bf7As4v3Ofa3HpVEPmMA2MJwQ0DYm38FQwBFzcJ95m36yRePnOcoptfiHQIiglQmg7rGDMTy/UfraIXcf8KvrjnIqwEVOs/tGAJcxTf+hQcDwACqDQFRaf4VDAEURVd88ahnLtvjqC9CZS6A1/2+npVMor6pAYm072cH1EFw5wnLrznK7UAnrfj3GQB2djnM24nN3Uvc1kK1wwCwFUOFgKg1/wqGAIokEb3si0cubRqb+YSKzgPwhs/X6z1SuLHB79mABBQ3n7h88UmuRrH0OA9queHK9tNyHoxDNcJFgEMYaGFgVJt/f1wYSFF20oqr6+qaWr8D4HQA2/t5LQVQ6snDLlXzxr+RX0ZVjrvuwBNuHO4Hj1t+3ehUKrEaioyL6xcdKznlmq/+6xoXY1CNcQZgCFvOBMSh+QPvzwRkL1s6znQtRF5bvO/Jhcv2Ouqa197MfByCgwH8wa9rCYB0Q33fAUK+3XOJiF5/wr3X/NtwP5hMJQ5z2fwBYBmbf/hwBqBKTz/99G/efKdznzg0//5GN6U3jG+pm5o9fc6I3uJHFBanr7x1RyT0GCi+BcFkP66hjoNiTw6O7dvGBFugc6854KRfVvuBU35941MqmO7moqLYc9HX5z3qZgyqPQaAKl141ZJbXni9+8g4Nf8KhgCKk6xmra5Ht99LnMThCt3PjzBQyudRLvj2SKCkkP2vO+CEIRcyn/zA9TtCrb+6vN7zV88+dgeu/g8fBoAqXLRo6c+e/0fXUXFs/hUMARRXp6+8dUck9atwsDcEuwBw+1jMBvBkuZB/vZQvHQi4nn4fSKdastd1+53wl8H+0Cn333ilAqe6vNaJV39t3rUuxyADGACGwOb/PoYAIuCsR2/dzlbdGYodIbo9VLaHYFsoxgFIAGhB79q/zQLZqMB6gb6sIs+qyrMpsR66ZM+5GwDghHuv2QnA3QC286HU1VbCmbF435MH3PGQ7ehIv9uy4Q0Abnb8dOcTmHzTPvM2uRiDDGEAGASb/4eNakxtmNBazxBA5JHj77t2ojj6K7h/Be9A/pLOFWcOtD3vpF/fcLCI3OlmcIX+++KvffdYN2OQOdwFsBUXXbXkZjb/D9vYXRq9blP+Je4OIPLGdfud8GZ3U+NeInq7D8N/rtiQvnKg3xALR7gdXC3c5HYMMocBYAAXXHHbTc+/3n00m//AGAKIvPWzWcfkx61af4SIDtisXVHM2/K0wOOWXzcaKvu6GxbPXvPV765yVxyZxACwhR9eueTGl1b3fIfNf3AMAUTeymazzjX7n3QaBGd7Prjihr71BgCAVCpxKIA6N0OK6n+6rouMYgDo54Irb7vhxTe6j2Xzrw5DAJH3rt3/xIUCPQ7evsWwHoI7T7jrmrEAAMVcl+OVy4691H1ZZBIXAfa54MrbbnjpjZ55bP7Dx4WBRN478VeL/1VFboKXN2qCe+pSclJZk6+6GVeBXy3+2jzP3kRIZnAGAGz+bnEmgMh71xx40k8h+A68nAlQHFSyrSvg8md/QnCzRxWRQbEPANkrbruezd+9jd2l0es25/nuACIPXbv/if8pom4P6vkgkX92OcL6UZtGr/CkFjIq1gEge8Vt1/9tdc932fy9sbGrNIYhgMhb1+x/0mIAF3kymAhEJOFmCIXelW1vL3pSDxkV2wBwwZVLrmPz9x5DAJH3rt3/hPNU5KduxxFx/yNfFFW/aIiCLZYB4IIrl1z30hvdx7H5+4MhgMhjIjq+8e3vAnjQzTCW5Xrd99tj6t98yO0gFAyxCwCqKus3Fw5i8/fXxq7SmLc7889nr7x5lOlaiKIgOytbtkuJbwF4fUQDiPT+44IAy7KzsmVXg1BgxC4AiIgmmps+sU1r3YAvyCDvvNtZGrdug/4fZwKIvHHDwce9ZTnOQQA+dLb/UMRl8wcAxxFO/0dI7AIAAFx5Wnsu0dwwlSHAf3wcQOStxQed/IxCvjvcz4nl+sf92je7Rj3qdhAKjlgGAIAhoJYYAoi8dd0BJ9wq0H+v9s8L3M8AiOCOO9rbbVeDUKDENgAADAG1xBBA5K2upqaTIXiumj/rwd0/bHE6XA9CgRLrAAAwBNQSQwCRd34265i82HoUgKEX5bnf/vfGuMfWPe52EAqW2AcAgCGglhgCiLxzzUEnrRLoxUP9OfcLAKUjm816+XIiCgAGgD4MAbXDEEDknXFN6y+CYtXWfl9EXL/2TUQ5/R9BfBvgFuZf0ZGxO3teentTYVvTtUTdqKbUuxNa6qfxLYJE7pz0X1d/xklYfwZQv+XvWYmE2zUAr109+9gpEOHhKRHDGYAtcCagdiozAd//0S1jTddCFGaLv3Hycwq5ZKDf82D//3I2/2hiABgAQ0DtbOwqjdmYt19iCCByJ5GwLwHwQv9fEw9O/3NE7nM1AAUWA8BWMATUDkMAkXuL9z254Kj1XQDv3627vfsX5IpF5dn/EcUAMAiGgNphCCBy7/oDj38IwNLKv7t++Y/q7286YF6Py7IooBgAhsAQUDsMAUTuJZ3y9wBsAMT1/n8VWeFNVRREDABVYAioHYYAIncWHXTqOlX5vrh/9S8SjvNrD0qigGIAqBJDQO0wBBC5M/7pt/9dRNxur/3fq75+3Kte1EPBxAAwDAwBtcMQQDRy2fPPV7HcrQAUcPV/1DEADBNDQO0wBBCNzCn3/8dnAXH3/404fP4fcQwAI8AQUDsMAUTDp6Kz3HxegE25scKX/0QcA8AIMQTUDkMA0bC5CgAOcP9N0+eVvCqGgokBwAWGgNphCCCqzqEdHQlA93IzhgXl9H8MMAC4xBBQOwwBREObMOrdzwMY7WIIFchvvaqHgosBwAMMAbXDEEA0OMuRL7sc4oWrvjZvrSfFUKAxAHiEIaB2GAKIBuXq+T9EV3pUBwUcA4CHGAJqhyGA6MOyK7NJALu7GUMcedCbaijoGAA8xhBQOwwBRB/0TmnCrgCaXQyhSFkPe1UPBRsDgA8YAmqHIYDofZZjuX3+/+yivb+zzpNiKPAYAHzCEFA7DAFE73H3/F+Fz/9jhAHAR1ee1p77yJS2T23TmuaKWp9t7CqNKTl6m+k6iEw5euXN9RDMcDOGwnnQo3IoBBgAfHbGkbO7E82NH+dMgL/GtaTXNo1uONR0HUSmtBYLX4Ai42IIx0mVH/KsIAo8BoAa4OMAf41rSa8du03j1OwJ7V2mayEyR2a6HOCv1+594npPSqFQYACoEYYAf7D5E/VSFVfT/wLw+X/MMADUEEOAt9j8ifrTXd19nAsA44YBoMYYArzB5k/0vlN/ff1HAUx0MYRTtMuPeFQOhQQDgAEMAe6w+RN9kIrl6vm/As9fv//xG7yqh8KBAcAQhoCRYfMn+jAPnv8/6VUtFB4MAAYxBAwPmz/RVoi6CgAQBoA4YgAwjCGgOmz+RAOb33FFBsD/czOGONYTHpVDIcIAEAAMAYNj8yfaOqe5cWcAaRdDdK7pbH3Wq3ooPBgAAqLfscFrTNcSJBNH171d15j4JJs/0cAcYDeXQ6y6o73d9qQYChUGgADpOzb4E5wJ6PWFT0/Avx28y7hv7vFJHvFLtBWWy/P/Icrp/5hiAAgYPg7o9YVPT8DX9piGZDIpo0aN+s/HH3/8aNM1EQWRClweAMQFgHHFABBAcQ8BleZvWb3fnpZlMQQQDWD+vddPhmKymzHKts0AEFMMAAEV1xCwZfOvYAgg+rByWnZyOcQr1+13wpueFEOhwwAQYHELAVtr/hUMAUQfJCqfczUAp/9jjQEg4OISAoZq/hUMAUTvE8BVAFAeABRrDAAhEPUQUG3zr2AIIOqlwOfdjWD92ZtKKIwYAEIiqiFguM2/giGA4u7UlTePAvBRF0NoIeH8j0flUAgxAIRI1ELASJt/BUMAxVo+/zkA4mKEv9+0z7xNXpVD4cMAEDJRCQFum38FQwDFlS2WuwWAwF88KYRCiwEghMIeArxq/hUMARRHou4WAAL4b08KodBiAAipsIYAr5t/BUMAxY64WwCoopwBiDkGgBALWwjwq/lXMARQXGQ7OtIAPuVmjBRsBoCYYwAIubCEAL+bfwVDAMXBxpYNO8LdK4DXXzH7hNe9qofCiQEgAoIeAmrV/CsYAijqVNXl/n8uACQGgMgIagiodfOvYAigSBPZ0dXnFdz/TwwAUXLlae25j0xp+9Q2rek1pmsBzDX/ikoIeOKJJ2YZKYDIJ6r4jJvPCxcAEhgAIueMI2d3J5obP2F6JsB0868oFouvT5gw4XGjRRB5TAWfdjdAggGAGACiyPTjgKA0/3w+/4+WlpZpU6ZMyRsthMhDx6+8tkmAbV0MUXY096JnBVFoMQBElKkQwOZP5K9UPvVpuDwCePG+Jxe8qofCiwEgwmodAtj8iWpAHHfT/5DnvSmEwo4BIOJqFQLY/IlqQ1VcPv9XBgACwAAQC37vDpg4qu6dr+4+1THd/HO53Lp33333/7H5U6SJywBg4QWPKqGQYwCICb92B4xrSa9tHdswpXPz5rm2bauXYw9HLpd794033hjf1dX1q46OjiZTdRD5T10FAFWHMwAEgAEgVrx+HDCuJb127DaNU7MntHfNmDHjF5s3b55jIgT09PS888Ybb4xWVQGwZyaTWcEQQFHU9w6Aj7kZo5CwuAOAADAAxI5XIaB/86/8mokQ0NPT887q1avH9jX/CoYAiqR3W9dPBZAc8QCC1TftM2+TdxVRmDEAxJDbEDBQ86+oZQjYSvOvYAigyBHHcrkAEJz+p/cwAMTUSEPAYM2/ohYhYIjmX8EQQJGi4u4VwAouAKT3MQDE2HBDQDXNv8LPEFBl869gCKDIUMgn3HzeUp4BQO9jAIi5akPAcJp/hR8hYJjNv4IhgCLBUnzczedtSzgDQO9hAKAhQ8BImn+FlyFghM2/giGAQk9FXc0AJCznZa9qofBjACAAWw8Bbpp/hRchwGXzr2AIoNA6fuW1TQDGuxiisGbD6NVe1UPhxwBA79kyBHjR/CvchACPmn8FQwCFUiqf/hjcvQTo1Tva222v6qHwYwCgD6gcG7ztNpl7ky2NH/ei+VfMmDHjFxs3bjxiOCGgp6dnnYfNv2LPTCZzz7333tvg4ZhEvlKoq+f/EPk/j0qhiBj5gRIUWWccObsbwIF+jD1z5sylTzzxhNPS0rI0kUgM2tRzudwrGzdu3ElVlwH4iselfBnA/R0dHfu2t3sXcoh8Y+HjcLGSRlX/7l0xFAWcAaCaq+ZxQC6XeyWVSn1q1qxZG9EbRn7vQyl8HEDh4XIHAADOANAHMACQEYOFgErz32GHHYoAcMABB/SgNwT8wYdSGAIoLFwFAEuFMwD0AQwAZMxAIWDL5l/RFwIOAEMAxZW6WwNgCWcA6IMYAMio/iFga82/giGA4iq7MpuEYDsXQ2h3SV/xrCCKBAYAMq4vBHxlsOZfwRBAcbTJHr8d3C3afvOmA+b1eFUPRQMDAAXCjBkzVg7V/CsYAihuysXkR9x8Xvj8nwbAAECh1C8ErPRheIYAChSxXE3/Q+G86lEpFCEMABRaBxxwQE86nT5AVR/2Yfg9M5nMPR4fQEQ0IgJ1NQMAyOveVEJRwgBAoTZ79uxuEfk6/JkJ+PIDDzww2odxiYZFIe4eATAA0AAYACj0+h4H7A8fQkA+n5/o9ZhEw+V+BgCDvu6b4okBgCLBrxBgWRYDABmngKsA4KjNGQD6EAYAiox+IeBBr8YUEQYACgJXASBtWwwA9CEMABQpfQsDvQwBDABk1OkP3NoIwM1alPzl+x+73qt6KDoYAChyZs+e3e1hCJjgwRhEI5ZHzu3z/9ch4uI9ghRVDAAUSR6GAAYAMirBBYDkEwYAiiyPQgAfAZBRjmNNdjkEAwANiAGAIq1fCHhohEMwAJBRArS5G0AZAGhADAAUeX0hYD+MLAQwAJBRYqmr70F15E2vaqFoYQCgWHARArZZuXKlm7ewEbmi6i4AiDAA0MAYACg2KiFgmO8OsHp6esb5VhTRUERcLUQVcRgAaEAMABQrs2fP7q6rq9t3mCGAjwHIHHX5/ec46zyqhCKGAYBiZwQhgAGAjBGX33+5ZIIzADQgBgCKpdmzZ3cnk8kDADwx1J+1bZsBgIw4euXN9Qq0uhgif9M+8zZ5VhBFCgMAxda+++67OZFIzMYQIcCyLB4GREaMcv82Sk7/01YxAFCsVRkCGADICFuTbgMAp/9pqxgAKPaqCAF8BEBGWKLj3XxeOQNAg2AAIEJvCKivr/8agCe3/D23+7CJRsqx4GoLqoi87VUtFD3idoAbf3QE3zJFkWEl0hjz0b2Qbhj73q+VC5vx1ku/NlgVEdGHzfvBba56OGcAiPpx7CLeffVhFHvef326law3WBERkT8YAIi2sGUIsBIpiPB/FSKKFv5UIxrAB0OAcBaAiCKHAYBoK/qHgEQqY7ocIiJPMQAQDcKxi1j/6kNw7KLpUoiIPMXXnBINQe0SynbJdBlERJ7iDAAREVEMMQAQERHFEAMAERFRDDEAEBERxRADABERUQwxABAREcUQAwAREVEMMQAQERHFEAMAERFRDDEAEBERxRADABERUQwxABAREcUQAwAREVEMMQAQERHFEAMAERFRDDEAEBERxRADABERUQwl3Q4wdcoEL+ogIoqtXL6I19ducDVGXTqF7SeP+cCvqSrWb+jGu5u6XY1djdbmDCaMbQZEfL8WeYMzAEREhm3uzLseo6Wp/kO/JiIYN6YJbdu0QnxuzJs6c3j9zY2wbdvX65B3GACIiAxSVXT2uA8AzQMEgP6/t/3ksUinEq6vM5hcvohXV69HT67o63XIGwwAREQGdfcU4DjqaozGTBrJxOA/ztOpBLabNBZNDXWurjUU21asXrexJo8dyB0GACIigzZ1+TP9PxDLEkyaMArjxzT7+khAVfHOu11YvW4jHMfx7TrkDgMAEZEhtq3o6Sm4GkNE0NhQXQCoGNXagG0njh5y1sCt7p4CXlvzLgrFsq/XoZFhACAiMqSzOwd3k/9Ac2M9LGv4d/OZ+hS2mzQWmbqUywoGVyrZeH3tu+j0YKaDvMUAQERkyOaunOsxqp3+H0gyaWHbttEY09rouo7BOI5i7dubsO6dzYC6jTzkFQYAIiIDSiUb+YK7qfFEIoGGTNrVGO9vFWzhVsGYYQAgIjJgkyd3/96t6G9uymD7yWO4VTBGGACIiAzo7PZg9X9zxoNK3pdOJbHdpLFobhz5Y4VqcKtgMDAAEBHVWE++iFLJ3TR4XTqFupTr09w/xLIEbeNbe7cKej76+7hV0DwGACKiGvPr6F8vjWptwLZt3CoYZQwAREQ1pKro8uLoX5+n6QEgU5/GdpPGor6eWwWjiAGAiKiGurrdH/3bkEkjmazNj+9k0sJHJnKrYBQxABAR1ZAXe/9bm7xd/DeUylbBieP5VsEoYQAgIqoR23Fcb3/rPfrX3xf6bE1LY33vVsG094sP++NWwdpgACAiqpHNXeaO/vVKOpXEdm1juFUwAhgAiIhqZHOXuxf/AP6v/q8GtwpGAwMAEVENFEs2CoWSqzG8OPrXS9wqGG4MAERENeDNi3/MPPsfTGWrYKbe32DCrYLeYwAgIvKZAp40Lq+P/vVKMmlh24mjuFUwZBgAiIh8ls8XUSoH8+hfr3CrYPgwABAR+cybN/+ZX/xXDW4VDI/gxkmiKrz0yjpXn586ZYJHlRANzFFFV7f7JlWLo3+9UtkquO6dTejsdr/zYWsqWwXHjm70/fFDFHEGgIjIR109Bddb2Gp59K9XLEswbkyz79epbBVc+9Ym10csx024vqOIiEKmszN8R/96xe22x+Ho7M7jtTXruVVwGBgAiIh8YjsOevLumqDJo3/dytUwAADcKjhcDABERD7Z3JmHutyu1txUZ/ToXzdM3I1zq2D1GACIiHyy2Yu9/43hnP4HgLzB6XhuFRwaAwARkQ+KxTIKxWgd/TscpZINxzZ7fj+3Cg6OAYCIyAde7P1vbQ7P1r8t5V2GH6/wrYJbx3MAiIhcUPTe7RaKZRSLJRRLZRRKNooeTH+3hGjv/5aCtBq/slUwly+hbZsWWBbvfQEGACKi6qiiULb7pvbLKBZtFEtlFEv+NLq6dNL30/T8lK/xDoBqdPcU8I81G7DdpNEMAWAAICL6AFVF2XZ6m3yp3Nfwe5u92xX9w9ES0r3/FUEMAABQX59k8+/DAEBEsWXbdm9zL5aRL5ZQKNoolcpwArB9LExH/26pWCoH8lS+VCqB8WNaTJcRGAwARBR5/Rt9oVRGsWQjXyjV9I5+OMJ49G9/hYL7xyITxrVg4+Yez9YSiAgmjR8V2jMV/MAAQESRYTsOiiUbhXzpvUZfKJYCeTc6mLAe/VvhxQ6A5sZ6NDfWY907m9HZ7f48hQljW1AX4jUVfuDfBhGFTqXRv7cgr9S75962w9XoBxLmo38r3N61p1KJ9+7U28a3oqEzjbfe2YyRfnVbGuvREuItlX5hACCiwBq40ZdhGz5gxk9hPvq3wu0CwPp06gP/3tqcQTqdxNp1G1Ee5tc+lUpg/Dg+9x9I6AMA3wcfb/z6Rdurb7wTibv64Qjz0b9A3wmALh+5DDRVn6lLYfvJ47DmrY3I5as72Y/P/QcX3lUmRBR56TxCDB0AAAcPSURBVFTo71GGJcxH/1bkPHj+n6lPDfjriYRg24mjMKa1sapxJoxt5nP/QTAAEFFgxe2Hd5iP/q3wYgdA3SDBT0QwbkwTJk1oHXQ/f3NTPVqawz2b4jcGACIKrLjNAIT56N+Kgsvn/6lUAlZi6NbU1FCP7dpGI51KfOj30qkkJozlc/+hMAAQUWDFaQYg7Ef/Vrh9BXBdeuDp/4Gk00lsN2ksmvoFJxFB2/gWPvevAgMAEQVWKkYzAC1N4b/7LxbLcBx3OzQyddUHAACwLMGk8a2YMK4FAmD82OZhhYg4i8//XUQUOsmEhYRlwXbZVMIgCgEg78GLkUY669PanEGmPj3gIwEaGGcAiCjQ4vADvSFTh0Qi/P+dbp//A0C9i8cgcfhe8RIDABEFWhSeiw8lCnf/AJB3uQOg2gWA5A3+TRNRoAVxIaCIIJ1OerJn37IEzY3hPvoXABRAweUZAG7u/mn4+LdNRIFmciGgiCCZsJBOJ1GXSiKdSqKuLoF0MgmxBJs78+jJVXcq3dY0NdZBJPwr1ksevAK4vi7chyCFDQMAEQVafbo2z3VTycRWG/3WbO7Oub5u2I/+rfDkACDOANQU/7aJKNASiYSnOwEqd/TpVBL16VRVjX4gtm27vvuPwtG/FV68ApiPAGqLf9tEFHipdAJ2fngBoH+jrxyyU58afqPfms1dBddjROHo3wrXCwCTXABYawwARBR4dckk8hj4DtPvRr81mzu9mP6PRgDwZAFgHdtRrfFvnIgCr64uiVQh8f7z+XQCqXQKdamEkQV0hWIJBZeH3kTl6F/AmwWAPL2v9kL/3cf3wRNF36iWBoxqaTBdxns2d+VdjxGVvf+A++l/AKgf5hHA5B4fuBARDVOnBwGgOSKr/wGPdgDwEUDNMQAQEQ1Dd66Isu1uR0JDpg7JZHR+/OYL7nZDpFK9Oz2otvg3TkQ0DJz+/yAFXK+HqOfzfyMYAIiIquQ4iu4edwFARNDUEP6jfytKRS8WAHL63wQGACKiKnV1F1w3u+bGOlg+b1GspXzRi+f/nAEwgQGAiKhKnhz9G6HpfwBIWhYaG9ytaeAZAGbwb52IqArlsuPR0b/Rmf4HgIaGNBoaeo8zdhxFoVRGIV9CvlhCvlhGcYgZglTS4gJAQxgAiIiqsLnLi7v/aDX/LVmWIFOXQqbflP5QoYAHAJnDAEBEVAUvAkBrU3T2/ldroFBg2w7yxTLyhRIXABrEv3kioiEUCiUUS7arMaJ09K9biYSFxkwajRF5E2JY8cELEdEQvHjzX9QW/1H4MQAQEQ1CVdHpwer/KB39S9HAAEBENAhHFQ0Zd3v3GzPpSB39S9HAB1JERINIWBYmbtMC1WZ054ro7Mqhq7uA4RwH1BzDxX8UfAwARERVqBzh29RQB8d20NlTwOauPHL5wc8GiNrRvxQdDABEMfbSK+tcfX7qlAkeVRIuVsJCa3MGrc0ZFEtldHblsbk7j9IAOwWidvQvRQcDABGRC+lUEmNHN2Hs6CYUiiVs6syjsysP2+l9ZTCn/ymoGACIiDxSl05h/NgUthnThK6eArpzBe51p8BiACAi8piIoLmxHs2N3PtPwcV9KURERDHEAEBERBRDDABEREQxxABAREQUQwwAREREMcQAQEREFEMMAERERDHEAEBERBRDDABEREQxxABAREQUQwwAREREMcQAQEREFEN8GVDI8X3u5Aa//vHGnx/xxhkAIiKiGGIAICIiiiEGACIiohhiACAiIoohBgAiIqIYYgAgIiKKIQYAIiKiGGIAICIiiiEGACIiohhiACAiIoohBgAiIqIYYgAgIiKKIQYAIiKiGGIAICIiiiEGACIiohhKmi6A3OH7uIlopPjzI944A0BERBRDDABEREQxxABAREQUQwwAREREMcQAQEREFEMMAERERDHEAEBERBRDDABEREQxxABAREQUQwwAREREMcQAQEREFEMMAERERDHEAEBERBRDDABEREQxxABAREQUQ0nTBRAR+eWlV9a5+vzUKRM8qoQoeDgDQEREFEMMAERERDHEAEBERBRDDABEREQxxABAREQUQwwAREREMcQAQEREFEMMAERERDHEAEBERBRDDABEREQxxABAREQUQwwAREREMcQAQEREFEMMAERERDHEAEBERBRDSbcD8H3bFGb8/o02fn0oyNz+/HGLMwBEREQxxABAREQUQwwAREREMcQAQEREFEMMAERERDHEAEBERBRDDABEREQxxABAREQUQwwAREREMcQAQEREFEMMAERERDHEAEBERBRDDABEREQxxABAREQUQwwARERERERERERERERERERERERERERERERERERERERERERERERERERERERERERERERERERERERERERERERERERERERERAD+PxLclm9SFBG2AAAAAElFTkSuQmCC;" parent="1" vertex="1">
                    <mxGeometry x="445" y="444" width="102" height="102" as="geometry"/>
                </mxCell>
                <mxCell id="35" value="" style="image;aspect=fixed;html=1;points=[];align=center;fontSize=12;image=img/lib/azure2/compute/Cloud_Services_Classic.svg;" parent="1" vertex="1">
                    <mxGeometry x="588.39" y="294" width="105.23" height="76" as="geometry"/>
                </mxCell>
                <mxCell id="37" value="" style="endArrow=classic;html=1;strokeWidth=4;exitX=1;exitY=0.75;exitDx=0;exitDy=0;entryX=-0.008;entryY=0.582;entryDx=0;entryDy=0;strokeColor=light-dark(#2387de, #ededed);entryPerimeter=0;" parent="1" source="26" target="35" edge="1">
                    <mxGeometry width="50" height="50" relative="1" as="geometry">
                        <mxPoint x="381" y="435" as="sourcePoint"/>
                        <mxPoint x="315" y="380" as="targetPoint"/>
                    </mxGeometry>
                </mxCell>
                <mxCell id="38" value="" style="endArrow=classic;html=1;strokeWidth=4;exitX=0.53;exitY=-0.006;exitDx=0;exitDy=0;entryX=0.5;entryY=1;entryDx=0;entryDy=0;strokeColor=light-dark(#2387de, #ededed);exitPerimeter=0;" parent="1" source="35" target="3" edge="1">
                    <mxGeometry width="50" height="50" relative="1" as="geometry">
                        <mxPoint x="400" y="348" as="sourcePoint"/>
                        <mxPoint x="598" y="348" as="targetPoint"/>
                    </mxGeometry>
                </mxCell>
                <mxCell id="8" value="" style="rounded=1;whiteSpace=wrap;html=1;strokeWidth=4;fillColor=#FFFFFF;strokeColor=#6c8ebf;" parent="1" vertex="1">
                    <mxGeometry x="49" y="430" width="130" height="130" as="geometry"/>
                </mxCell>
                <mxCell id="9" value="" style="shape=image;verticalLabelPosition=bottom;labelBackgroundColor=default;verticalAlign=top;aspect=fixed;imageAspect=0;image=data:image/png,iVBORw0KGgoAAAANSUhEUgAAAgAAAAIACAYAAAD0eNT6AAAABHNCSVQICAgIfAhkiAAAAAlwSFlzAAAOxAAADsQBlSsOGwAAABl0RVh0U29mdHdhcmUAd3d3Lmlua3NjYXBlLm9yZ5vuPBoAACAASURBVHic7d15lB1VuTbw560zdZIe0kMSwjzIIOqVUUxQCRC6E0YREtQLLkfihaSRiKjo9WtnAS9DdxDRq1wHkCSKBITQYRCFJIyCKIogURkz9nhOJ32Ger8/OsEEOp3TfarqPafq+a0VV5bQtR8y9H7Orl27BERlTlUd9PUdgHj8rVDdD8C+ENkLqpMANG79kQKQBDBhc24AACCAQkQFyAGyBZC0QNcD8g9I7K+OFn4Xr2v4rYjkzf7jiIiMiHUAojfSzZv3QaHwHohMg+rRAN4GYEKxX7+tABTLgWQkFlsjLh4SR3+eqG1cNcrIREQVhwWAzOn69dWYMOFEuO5siMwCsE8p1xttAXgjESfviDwH1WXJWOoaqalZX9IFiYjKEAsAmVDV8UinT4PjzIXqbADjvLp2qQXgjRyJveIIliYk8U2prd3o6cWJiIywAFCgtL//UIh8BMCnADT4MYbXBeB1IhqDPAtxvpWqa/i5P4MQEQWDBYB8p6oxpNNnQWQhgGP8Hs+3ArAdB07aceSHidqGL4hI1vcBiYg8xgJAvlHVJNLpT0LkcwD2DWrcIArANgLJO+IsTdY1nC8i6cAGJiIqEQsAeU5VYxgY+ChU/xslbugbiyALwDYiTj7mxH6WqJn4aa4IEFElYAEgT2kmcyRUrwdwtFUGiwKwjSPOZseJX5SsnfhDsxBEREVgASBPaE9PPeLxNgDzATiWWSwLwDaOE18j4p6Sqm161joLEdFwWACoJKoqyGTOA/BdAJOs8wDlUQCAoZMIHYndlqxrmMvTBomo3LAA0Jjp5s17o1D4KYDjrLNsr1wKwDaOON2OJGYn6+oesc5CRLSN6VItVS7t7/8gCoU/oswm/3LkqltfcAdXZ/u6v2udhYhoG64A0KioahyZzDcAfN46y86U2wrA9mLi/DVZ1/guPjJIRNZYAKhomsnsDtddCpHp1llGUs4FAAAccfocjR2XrK9/yjoLEUUXbwFQUbSn5wAAvy/3yb8SuOrWFqTwWK530yzrLEQUXSwAtEuayRyFeHw1VA+wzhIWqm487xbuyvb1fMo6CxFFEwsAjUj7+0+A6n0ok0f8wkQByReyPxjs7f6ydRYiih4WANop7e//AETuBFBrnSXMCm7u69nurg7rHEQULSwANCxNpz8EkaUAqqyzREEe+fksAUQUJBYAehPt7z8BwI3gn49A5ZGfz9sBRBQUPgZIO9BM5mgA90O12jrLWJX7Y4C7Eo8lz+fLhIjIbywA9Drt7X0LYrGHAEyxzlKKSi8AIo6bcJ3T4g0Nd1lnIaLwYgEgAIBmMlOhuhrAPtZZSlXpBQAARJy84zpHphoanrbOQkThxHu8BFVNQHUxQjD5h4WqG1fHfUgr+FYMEZU3FgACBgauBfBe6xi0I1fdmmx/90PWOYgonHgLIOK0v/8ciNxincNLYbgFsL24E7s6Wde40DqHV+Ys0VjfWkyHgzNUcawA+wOo3/qPuxVYI4KVcLGsdjesWjpXCpZ5icKKBSDCdGBgT7juHwE0WGfxUtgKgAAaS1VPT44f/7B1llLMuUrH9SXRCsVCAJOL/LL1EFxVm0X70oWy2c98RFHDAhBRqirIZH4L4DjrLF4LWwEAAEec7lRd42QRyVtnGYtZHTpHgasA7DnGS7ysiotXtMovvcxFFGXcAxBVAwOfQAgn/7By1a3Ppnv+zzrHqKnKrA5tU2Axxj75A8CeIljavEivbWtTft8i8gBXACJIe3sbEIs9i5C+4CeMKwAAABGNS/KYZF3dY9ZRitHWps6qRtwkwAc9vbBiybQufKitTVxPr0sUMWzSUeQ430FIJ/9QUxVX87daxyjW6iZ83fPJHwAEc1c34eueX5coYlgAIkYzmaMh8gnrHDQ2rhb2zPV1fd46x640t+vZUHzRtwEUX2xu17N9uz5RBPAWQISoagyZzGMADrfO4qfQ3gLYyhEZTNU1TRSRLdZZhjPjRq1KpfEcgL38HEeBV1JJHHTHPAn3bziRT7gCECUDAx9FyCf/KHBVU7nerkXWOXYmmcZn4PPkDwAC7JHNYYHf4xCFFVcAIkJVE8hk/gZgP+ssfgv7CgAw9K6AqrrGehFJW2fZ3pwlGutbh1dR/HP+pVpfOwW787AgotHjCkBUpNOfRAQm/6hQdePZ/p7rrXO8Ue96HIvgJn8AmNy3FtMDHI8oNFgAIkBVYwAusc5B3nIL+Q+qatI6x/bExRmBD+oYjEkUAnHrABSAdPosiOxvHYO8pdB4rr/nWyincieYFviYuvMVgJM6dHdxMRUAEEM8lcALd8yTjYFlIypjLADRcLF1APKH6xbmoZwKAHCA5ZgzrtPqZAFzRTBLgekC7PH6OqcC2SzQ0qHrFXgciptTKfyaTxFQVHETYMhpOv1OAE9Z5whSFDYBbi/mxD+cqmv4hXUOAGjp0C0AUgEPmx100Jh08VkZKrt1o/jaPgAdtTl8ky8boqjhHoCwU/20dQTymepl1hG2Y7EnIZly8ZwAbRjd5A8AtQC+1JfAMye1a7P30YjKFwtAiKnqeIh82DoH+cuF+zbt7Q3VK53HYGqJX7+fI7ireZGe70kaogrAAhBm6fRpGPqEQyGmqpLVvH/H7kZHTBTfb+nQS62DEAWBBSDMHGeudQQKhqp6/9KdaBIA32nu0HOsgxD5jQUgpHT9+mqozrbOQcFw4e6p/f1BHsATZiLAD5qvU9+PMyayxAIQVhMmnAhgnHUMCk7WzV9onSFEaqWA71qHIPITC0BYuS4//UeNuh+wjhAqgrObr9W3W8cg8gsLQFiJtFhHoGC50IOtM4SM4zjgUwEUWiwAIaSbN+8LYF/jGBQwVTeR7e09xjpHmCj4ngEKLx4FHEaFwrHWEYJQcBWrnt2EZQ+/jJXPbsKa1/rRnckh1/0CHMfB+HFVOGjvSTj3pIPw8VkHIRmPWUf2n1s4F8Aj1jFCZO/Z7brn8lZ52ToIkddYAMJIZBpUrVP4ZvNgAe2/eQ5X3fY3rO8dfPO/oIBbKCCdzuAPf8ngD3/5Jy5ZdB9mHn0gbvz88aivLqsX6HlKYzjOOkPYuA6mA1hinYPIaywAYaR6lHUEvyxd+RIW/ugpvLxxdOf9u4UCVjz8LPY++++Yf/a78O1PHu1TQlvquvtZZwgdLfmUQaKyxD0AIaOqDkTeZp3Da6pA2y+ewTlXrBr15L+9QiGPaxevwrvn34p8wfUwYXlw1a1WVRZ7bwX9ciOiQLAAhE1//1ugWm0dw0uuKj505Sp89Rd/9uzOxtN/ewmHfvSWUJaAfM/G91pnCBMFEtYZiPzAAhA2sVjoHgX78s//hMUPveT5dV9euwHNl97p+XWtuU58hnWGUBFwAyCFEgtA2ITsHvDSlS/hO7/8q2/Xf/jpf+CL//uYb9c3oe5brSOEiSqesc5A5AfeKwwbkX2tI3hlS7aAz/7oKZ8faFAs+uWjuOSc/0BjTVhu9er+1glCJJdz8GwQAzV36CEOcKwq3q6C3QTICrBFBRtF8Yjm8FDnQukKIgtFAwtA2IjsFZZHAK+5/Tm8VMKGv2IVCnl84ooHcNvXw3F4okKmWGcIDcVdD1woab8uP+NqnZiK43wAnwBwkAKADL2ScGj4of9RAEjAndWhq6G46t1duK2tTcK3gYUCxVsAYaM6yTqCFwqu4uplfwtsvHsfex7ZfCGw8fwVrk2glsTBT/y69qwOPTcVx3MALgdwUBFf4ihwrAp+tboRf23u0BP8ykbRwAIQPk3WAbyw8q8bhz/kxyduoYAf3/1cYOP5SlBlHSEkXqjZCM93iZ7yPa2f1aGdCvwMwFgL+0EC3NPSoZfPadPwnmxFvmIBCJ966wBeWPbwK4GP+fN7wlEAVJWPrXlBcdHSNsl6ecnm63VyvoD7FWj24HIOgEv7G3HH7HYNywYWChALQPiMtw7ghVV/2xT4mM/9a2PgY/pClX+vS6VY0tkqnn76P+V7Wi8F/B7AYV5eV4FmV/CTOUs0Ai+7IC/xG0X4hGI5cM1r/YGPObBlc+Bj+kH/vYeMxuaRwRg+4fVF8wVcD4Vf53Sc07cOl/l0bQopFoDwCUUB6B3IBz6m63JTNeEvecEpXu/8b1mk5wE4x8trDuOykxdpMZsJX9fWpg5XDqKLjwGGTyj+MpvsyFeF6yocp/I/QKuqI8LHxEZDgBU5wYfvmy+e3n868gZNIItvennNnagqKK4DcNJw/3B2u6ZUMEOBUwEcC2C31cBkrIO0dOh6AOtk6FXSdyaSuPeOeeL/M7hkiisARBR1fVAsePcmzPZ68geAphw+CGAvr6+7EzNnXac7vOqy+Uqd0NKul7mCtQrcDWA+gMMBTMXQBwYHwG4A3qnA+Qosy2axvmWRfnPG1ToxoNxkgAWAiKLKVeBH+QIO6myVRb4drKOY78t1d8J18dFtP5/VoedKFV6A4JsARjOZT4DislQca1oW6YVQrfxlMXoT/qaGjKbTLkLw++qcsXjsBxr2/QNbz04btXRnayhuAYybOClmcQugpUMr48+f4iE4uKhzvvzBz2Fm3qB1sSw2Idhbc68NbsLeqUZ8D8CnvLigCH65ZQLOe+BjssWL61F54B4AIoqSFxW4dMUCLIGI72dmO1lMR/D7cqamGvF7ANO8uqAqzk5l0DjjRj2ZJSA8eAuAiKJgQIG22hwOWbFAFgcx+W/1zoDGeSPPJv/XKY6vyuBnvB0QHlwBIKIwUwC3qIPPr7hQXgp8dMGEMd6NKkuqOLvlOlzQCVxnnYVKxxUAIgqrP0BxXOcC+bDJ5A/AUUywGNdXim+0XKUN1jGodCwARBQ2awF8fNomHN3ZKg8aZwnLKya3NxEJLLQOQaVjASCisBgEcEVqAAd1LpAbfXusbzQUJisPAbjotBs0FO8diTLuASCiMLi34KD13gvlr9ZBtqfAk9YZfFI9OIgTAdxhHYTGjgWAiCpe53w0B7izv2i1eTzel8AWAFXWWTzn4BSwAFQ03gIgIvLJ0oWyGYqV1jn8IIp3WWeg0rAAEBH5SAX3WmfwyVTrAFQaFgAiIj+5uMc6gk8mzWhT3kauYCwAREQ+mt6NJ6HYaJ3DBzoDsH/SgsaMBYCIyEdtbeJC8FvrHF5TYF1ZPGpJY8YCQETkNw3fbQAHeM06A5WGBYCIyGdSCF8BUMVD1hmoNCwAREQ+u/ti+SeAF6xzeOxO6wBUGhYAIqJghGkVoKu2C7+3DkGlYQEgIgpGmM4DuHxpm2StQ1BpWACIiAIwmMd9CMfbAV9LJrHIOgSVjgWAiCgAD1wsPQCesM5RKhUsvGOeDFjnoNKxABARBaXSjwVWXL9ivtxiHYO8wQJARBQQqezzAFYPdqHVOgR5hwWAiCggolgNIGOdY4ympRrxYkuHXt/SrnwTYAiwABARBWR5qwxC8aB1jhJMBfBpCB6Z1aH3NXfoIdaBaOxYAIiIAiRORd8GeJ0CJwjwVMsi/cqcJRqzzkOjxwJARBSQOW2aVMVx1jk8lILiq31rcfORN2jCOgyNDgsAEVEA5rRpsq8BSwCcbp3Fc4K5TVn8ek6bJq2jUPFYAIiIfHbkDZroa8RiCM6wzuKjU/oa8DXrEFQ8FgAiIh8deYMmmrJYAuD91ll8J/hcc4eeYB2DisMCQETkkzltmmwaxFJEYfIf4ojge21tyrmlAvA3iYjIBxFZ9n8zxcGrGkO4zyGEWACIiDwWwU/+OxBgoXUG2jUWACIiD0X2k/+Ojp1xtU60DkEjYwEgIvJIpDb8jcxJxXCsdQgaGQsAEZEHor7s/0bq4N3WGWhkcesARESV7sgbNNGXxWIg0sv+OxAFbwGUOa4AEBGVgMv+OzXBOgCNjCsARERjNKdNk32DWBLxDX/DUoDvBihzLABERGPAZf9dELxmHYFGxlsARESjxGX/XRPFX60z0Mi4AkBENApc9i+OFLDKOgONjAWAiKhIXPYv2h/u/oz8zToEjYwFgIioCPzkPwqCn1lHoF1jASAi2gV+8h+VdY6LH1uHoF3jJkAiohFww9/oqOKy5a3SZ52Ddo0FgIhoJ3i876j9ZnoX/s86BBWHBYCIaBhz2jTZ11Ax9/xvh+ISKO4GMGCU4dlCEue2tYlrND6NEvcAEBG9wZw2TfY1VsY9fwXuiinmLm+VQQD/M6NN48l6vFNimAnFTADHwf9T+f7sKGZ3zpNen8chD7EAEBFt5/VP/hUw+UOxrK4Lc5e2SXbb//VAm+QBPLH1x+WnfE/r8wWcAGDm1h9v8TKCCO7IJ3AeJ//KwwJARLRVRS37K5bVvmHyH86dF0g3gF9t/YHmDt1PdGsZEJwIoHGMCV5VYGHnfFk8xq8nYywAREQI5+Q/nBUL5B8Afgjgh21t6qyqx+ESw0y4OAmCYwFUjfDlBQUeE8X1DrB4620HqlAsAEQUeVGZ/N9o64a9128XzLlKx/UncRgUh6tgD7ioB9AnDta7Lp7PFvDgAxdLT6njUnlgASCiSKu4DX/AOV5M/sNZulA2A1i99QeFHB8DJKLI2m7yL/vn/Lfu9v8Al93JKywARBRJnPwp6lgAiChyOPkTsQAQUcRw8icawgJARJHByZ/o31gAiCgSOPkT7YgFgIhCj5M/0ZuxABBRqHHyJxoeCwARhRYnf6KdYwEgolDi5E80MhYAIgodTv5Eu8YCQEShwsmfqDgsAEQUGpz8iYrHtwESUSi8/krfCnirHxTL6jx6pW+5mt2utQAOdR28XRR7qmAzAIiLF/OKlfdeJC8aR4w8FgAiqnizO5Dsa8BiSGVM/rUhnfxn3KhVVWmcpsBHXGAWgDgUUGDr/wAqQEyA5g59BcCyOPD9uxbIn+xSRxdvARBRxXMFSzj522pu19NSaTyrwBIAp2IXHzAF2EOACwrAH1vadfHsdt0zmKS0DQsAEYXB6dYBdimkk//sdq1t7tBbRXA7gH3GcAmBYK4reKZ5kX7Q63y0cywARER+C+/kP8l1cL8AZ3pwuVpR3NzSoZd6cC0qAgsAEZGfwj35PwjFkR5eVgB8p2WRftLDa9JOsAAQEfklpJN/W5s6roPFUBzsw+UFiu83L9KTfLg2bYcFgIjIDyGd/AFgVSMuhOJ4H4eIieL6OVfpOB/HiDwWACIir4V48j/xGp0iwDcCGOqAvgS+GMA4kcUCQETkIQXucoBzwjj5A0A8jm8BqA1ouItOu0HHBzRW5LAAEBF5JOzH+85u18Oh+GiAQ9bmBivgfIcKxQJAROQFxbK6TTgzrJM/VMUF2hHwvKGC/wxyvChhASAiKlHYl/0BYFYHPgjBewyG9vIxQ9oOCwARUQnCvuwPAHOu0nEq+LbR8LuddoM2GY0daiwARERjFfZl/616E7gUYzvm1xO5PPazGjvMWACIiMYgCsv+ADC7XfcU4HOWGVRRsBw/rFgAiIhGKQrL/tsUBFcCmGCZQQsIdcmywgJARDQaEVn2B4CTOvRYAc6xzqEOuqwzhBELABFRkaKy7A8MnffvKK7G0At6LP3rngXyqnGGUIpbByAiqgRRWvYHgIcb8TEAR1vnALDKOkBYcQWAiGhXIrTsDwCz27VWgznvf5dU0GmdIaxYAIiIRhLiF/vsTMHBlwHsZp0DQDc245fWIcKKBYCIaGciOPm3XKdvEcVF1jm2unrF5yRjHSKsWACIiIYRpQ1/2xPFVQCS1jkArHUU11qHCDNuAiQiGoYAJ7uCLS0dah0lUFo+/7m7uYJNLR3aBeAfUKxUB8vqJmPl0rnCg4E8wBUAIiIqV3EAkwEcA8FCUfyubx1ea1mkn59zlY6zDlfpWACIiKiSTILiO30JPNfcrmdbh6lkLABERFSJ9hTB0uZFem1bm3IuGwP+ohERUcUSRevqRtzMEjB6/AUjIqJKd87qRnzNOkSlYQEgIqIwuKylQ8+yDlFJWACIiCgMRIFrT7tBx1sHqRQsAEREFAoC7JEbxIXWOSoFCwAREYWGCj7LDYHF4S8SERGFyZSVjZhmHaISsAAQEVGoiOAM6wyVgAWAiIhCxVFMt85QCVgAiIgoVBQ4wDpDJWABICKisJloHaASsAAQERFFEAsAERGFTY91gErAAkBEROGi+Lt1hErAAkBERGGz0jpAJWABICKiUBEHy6wzVAIWACIiCpO1796IR6xDVAIWACIiCg0RXNnWJq51jkrAAkBEROEg+Ke4uM46RqVgASAiojBQVVy8vFUGrYNUChYAIiKqeAJ8bcUCuc06RyVhASAiokp3893z8VXrEJWGBYCIiCqVQnH5tE04DyJqHabSxK0DEBERjcG/ILioc4Es67ROUqFYAIiIqJKsheK7DrBo+QJu+CsFCwAREZWrQQA9UDwPwSp1sWx6Nx7mc/7eYAEgIhreckdxZtQeK2tp19sgOMM6B4B1juKg5a3St/3/ucIqTQhxEyAR0fBmu4Ilc9o0aR0kUDFcgqFP3tamuA4+Yx0izFgAiIh27vS+RiyNUgnovFD+DuBa6xwAAMXFM67TausYYcUCQEQ0ssiVAEfxTQBrrXMAmJhyMcc6RFixABAR7drpfY24bXa7pqyDBGF5q/Sp4kvWObZqsQ4QViwARETFme0Kfh2VEjC9C/8H4FHrHAq8xzpDWLEAEBEVLzIbA9vaxHWBhQBMT9gTYI+TOnR3ywxhxQJARDQ6kbkdcM8CWQngFusc4qLBOkMYsQAQEY1eZG4HOIpLAWQsM0gMoV9xscACQEQ0NpG4HbC8VV6G4ArLDCKIWY4fViwARERjF4nbAbVZXAnBP63GzynWWI0dZiwARESlCf3tgKULZbMqvmA0/Nr75ssmo7FDjQWAiKh0ob8dsGI+lgB40GDoxw3GjAQWACIib4T7doCIOoqLABSCHFYFNwU5XpSwABAReSfUtwOWt8qTUNwY4JC9dVksC3C8SGEBICLyVqhvB+RdfBlAbxBjCXDN0oWyOYixoogFgIjIe6F9gdB9n5F1KvhiAEP9fUs1vhPAOJHFAkBE5I/QloAVF+L7AO7xcYiCCD79wMdki49jRB4LABGRf8K5MVBEC0nMgeJpH66uAsy7e77c58O1aTssAERE/grlnoB750mvxnAqgD97eFkVwSV3L5AfeXhN2gkWACIi/4XydsCKC+WlQhLvAXCbB5frVcXcu+fLVR5ci4rAAkBElU8r4lGxUJaAe+dJb+cCOVMFHxrjccEugF8k4njbilb5pcfxaAQsAERU8Wq7MBfefAr1WyhLAACsmC+3bEzgIAg+IsAKAPmR/n0FXoHiGing0M4F8uHf/Je8ElBU2kqsA5C3NJ12EYLfV+eMxVAd4xf3/QPA2L443dkKx6n4Xz6MmzgpJiJu0OO2dKjJn7/O+XCO/AHiTVksAfD+oMcfg9trN2HO0jbJWgfxy+x2rS04OEwUhyrQKILxquiG4GUnjyff3YPn29qC/zNK/1b53+loBywAYAFANAsARPTIGzTRmMViAc4MOsMYLHcUZy5vlUHrIBRNvAVARKHxxDzJbUriHAV+bZ2lCKE+NpjKHwsAEYUKSwBRcVgAiCh0WAKIdo0FgIhCiSWAaGQsAEQUWiwBRDvHAkBEocYSQDQ8FgAiCj2WAKI3YwEgokhgCSDaEQsAEUUGSwDRv7EAEFGksAQQDWEBIKLIYQkgYgEgoohiCaCoYwEgoshiCaAoi1sHICKy9MQ8yR15g55TIa8Snu0KlsxpU19eJXzaDTo+P4ijXQeHw8U+IlBVZCHoguKZQgoP3TtPer0el2ywABBR5G0tAXMrpASc3teIpV6UgDlLNNa/AUdAMVOBk7JZTIcgBQUgW1+qve3lzgLEsii0dOgTECzamMAtT8yTXKn/MWSHtwCIiDBUAjYmMbdCbgdsKwHJ0X7h7HY9YFa7zpu1SJf2rcN6dfGoKr4FxfEAdnV7IQbgXVD8tCmLNS2L9LwxpaeywBUAIqKttt0OaMxisQBnWufZhdP7GnHb7HY9c3mrDO70X7pca7aMwwxHcCqAmS6wP4CtH+9LsicUP23p0DOQw/mdC6Wr5CtSoLgCQES0nQrcGLhk+5WAGTdqVXOHnjCrQ789q0MfGxyPHhHcrsD5um3y99ZZSGBl8/U62Ydrk49YAIiI3qDCSsDpfY34VXOHXjKrQzuTaXQJcJ8CX1DgKATzff4QyaPzlO9pfQBjkUdYAIiIhlFhJeBUAa5UoFmAcUYZDsvncbPR2DQGLABERDtRYSXAnmBWS4d+2DoGFYcFgIhoBCwBo3b1zBu0zjoE7RoLABHRLrAEjMpkJ4tPWYegXWMBICIqAktA8QT4hHUG2jUWACKiIrEEFO2Q5g49xDoEjYwFgIhoFFgCiqSYbh2BRsYCQEQ0SiwBu+YI3mqdgUbGAkBENAYsASNzgd2sM9DIWACIiMaIJWDnROD564rJWywAREQlYAnYCcWAdQQaGQsAEVGJWAKG1W0dgEbGAkBE5AGWgB2J4GHrDDQyFgAiIo+wBLyusCWHVdYhaGQsAEREHmIJABR46IGLpcc6B42MBYCIyGORLwGK/7GOQLvGAkBE5IMIl4Bnp3fhTusQtGssAEREPolgCXAVuLCtTVzrILRrLABERD6KWAn49ooFcr91CCoOCwARkc8iUQIUyzYm8VXrGFQ8FgAiogBsKwEAbrPO4oObB7tw9hPzJGcdhIrHAkBEFJAn5kkOioesc3hoCxRfmrYJ5z3QJnnrMDQ6cesAREQRM9M6gBcEWFFwMf+ei+T5TuswNCYsAEREAZndrilX8D7rHCV4FYpfw8GP754vf7AOQ6VhASAiCoirmA7BeOscY7R6cBPex6X+8OAeACKioMQqevl/WlUjrrMOQd5hASAiCoqLk6wjlEKB85vb9T+tc5A3WACIiAJwyve0HoIjrHOUSgRXNl+pE6xzUOlYAIiIApDL40QAMescHpiKKiywDkGlYwEgIgqCheXOagAAIABJREFUU9H3/3cgwOdmt2vKOgeVhgWAiCgAjlb2/f83aCg4Ff04I4EFgIjId7Ou1n0V2N86h5dEcYp1BioNCwARkc/cBJqtM3hNgGOtM1BpWACIiHwmGp77/9u4wFTrDFQaFgAiIh+1takDxfHWObwmwJS2NuUcUsH4m0dE5KOVjTgCgibrHD6QZw6FWIegsWMBICLyUUxCtft/e+uWzpWCdQgaOxYAIiIfqYsTrTP4ZK11ACoNCwARkU/mXKXjIOHcLa/Aw9YZqDQsAERU8VoWYcXsdj3UOscb9SZxNIAq6xx+cAR3Wmeg0rAAEFEYzHQFTzYv0itmt2utdZhtHBeHWWfwhaC/JovfWseg0sStAxAN58vXnoOx7i9+9P6xv6jMxXq24sqVFMXnXMFHWhbpl6dtxI/b2sQ1TSTYy3R8vyiuWbpQNlvHoNLwex0Rhc0UKH64uhGPNy9S0/PqVUP5PbY7HsPV1iGodGH8w0lEBACHi+KBlg69Zea1urdFAHUwYDGun0TxxTsvkG7rHFQ6FgAiCjMBcI7j4NmWdv3qaTfo+IAHTwc5XgAW390qN1iHIG+wAFBZEqPzxRyHB5uFkQDjIPhKNotnZ7Xrh6AazG+04I+BjPOmYbHS84sq7husxkc9vy6ZYQEgoijZSwU3z1qEB0/q0KP8HswpYBWAQE/LU+CVLZswA4rrPbzsYgc45YGPyRYPr0nGWACIKHIUONYBHmnp0B+ffJ3u5tc4y1ulT4HH/Lr+cERwywNtku9slQtU8CEAr5ZwuU2i+HTnAvng8lYZ9CojlQcWACKKKgfAxwqK51o69CLf3mynWOTLdXfGxc+2/XTFfLklmcSBAD4PYFPR1xD0A/i6o9if9/zDiwWAiKJNUQPgmtVNuHd2u07y+vKbUlgC4EWvr7sTyztbZYd9B3fMk4HOBXJF7SbsLoKZUFwDxWMKvAIgByAP4FUInoDiegVOrs1iSucC+cryVukLKDcZ4EFAREQAoDjeFfx+dru+b3mrbPDqsk/Mk1xzu14mgp97dc2dyDuKS3b2D5e2SRbAfVt/vK6tTR3zA5PIBFcAiIj+7RAV3HX65Vrj5UVXtMpNAG728prD+NryVvnLaL+Ik390sQAQEW1HgaMGx+NGr69bSOICAKOeoIt0a+d8fMOna1NIsQAQEb3ZWc2L9FQvL3jvPOlFDu8F8KiX1wVwezKJ8yCiHl+XQo4FgIhoGKJon9OmSS+v2blQugpJNAOevEpXVdBeOwUfuGOehO7IYfIfCwAR0fD262+Ap6sAwNBKQOcCOVWBDwJYO6aLCP7mKI5fMV8uWjpXAj1oiMKDBYCIaGcc/46+XbFAFjuKgxVYiOL2BrgAHlTFnNrJeNvyVvmdX9koGvgYIBHRTqhi1ozrtPqBC8WXl/psfc7+agBXn7xIDyoAx4jiP1TQBMUEKDYC2KCCJyWH33culC4/clA0sQAQEe1cogp4KwI4zveu+fIcgOf8HodoG94CICIaSQFvs45A5AcWACKiEbiCPawzEPmBBYCIaAQydF4+UeiwABARjYyvwaVQYgEgIhqBAK9aZyDyAwsAEdEI4nGsss5A5AcWACKinRH88zf/Ja9YxyDyAwsAEdHOKJZZRyDyCwsAEdHwXEfxA+sQRH5hASAiGoYCS5a3SjFn9BNVJBYAIqI364kpPmcdgshPLABERDtSVXxqeau8bB2EyE8sAERE2xHF51e0yi+tcxD5jQWAiGhIAYIv3N0qV1oHIQoCCwARVTwFSn1W/yVXcXLnfLnck0BEFYAFgIi8lDUZcwsOFsFlUGwc5df2QvAtR/H2e1plhS/piMpU3DoAEYVKD4ApQY+54nOSAfDt5iu1HSm8X4A5AI6FoGmYf78LwGoAvyokceu986Q30LREZYIFgIi8I3gBGnABEPx920+3FoGbtv5Ay9U6FQlMVcVEEfQkYljHo32JhrAAEJFnFFgpwPSAB31oZ/+o82J5DcBrAaYhqhjcA0BEnlGDs/PV5Xn9RGPBAkBEnjl2E1YDWBfgkOumd+PhAMcjCg0WACLyTFubuAp8N7ABFVe2tYkb2HhEIcICQESeqtuEdgHWBDDUvwZrcF0A4xCFEgsAEXlqaZtkXeCzANTHYVQEFz/wMdni4xhEocYCQESeW7FAbgPwDd8GUHz97vnya9+uTxQBLAAhoqoTrDNQmVi/fpJ1hM75+H8Abvbh0r+Y1oWv+nBdokhhAQgJ3bx5b2QyvwMg1lnI3paU82K+q+tk0xAi2jkf50LwBQBebNRTKC6ftgnncuMfUelYAEJA0+kWFApPAjjSOguVB1VNZp3CbwZ7e/xbhi+GiHbOl8sVOAvAv0q40r8U+EBnq3yBkz+RN1gAKpiqiqbTnwdwJ4AG6zxUZlSl4Ga/NNjbtVpVTU/9XLFAbnMUB4vgsxjdyXyvQXGJozh4674CIvIIl4srlKqOx8DAT6B6tnUWP/y/f419C/mj9499K8Svzt0QylbsSOzllJM4XGprR/u2PM+1tanzcBOOURdnQDAdwIEK1AGAAL0AnodilThY9u6NeISf+In8wQJQgbS3twHx+O1QPdY6i19YALznQDISk6NStU3PWmchInth/V4XWrp58z6IxVaGefInf7jQCa6Lp3PdG463zkJE9lgAKoj2978dhcJDAA6xzkKVSdVN5AX3DvZsOsc6CxHZYgGoENrfPwMiDwHY0zoLVTZVdVy4v8j2dn/GOgsR2WEBqACaTs+EyF3YulGKqFSqKnk3d3Wur+tS6yxEZIMFoMxpf//7ANwGYJx1FgqfXCF/ea5v0yXWOYgoeCwAZUz7+t4Lx7kTAI/4Jd/kCoUrc33dn7XOQUTBYgEoU9rX9x7EYndBtdo6C4VfrpD7bra3+2LrHEQUHBaAMqQDA9PgOHdz8qcg5TX/P9lM98etcxBRMFgAyoz29BwA170NXPanoKlKIVf4YS7d02wdhYj8xwJQRrSvrwnx+HIAk62zUDSpuk4+n//NYH/X262zEJG/WADKhKqOg8jtAA60zkLRpuomtOA+rP39LKJEIcYCUAZUNYZ0+iaITLPOQgQArroTBt3BP6lqlXUWIvIHC0A5yGS+A5EzrWMQbc913cnZvu4HrHMQkT9YAIxpJvN+AHwGm8pSwc0fk+3ddJV1DiLyHguAIe3rOxiqPwFfy0xlLK/uZwa7N55hnYOIvMUCYEQ3bKiB49wKoNY6C9GIVMUVLNGNG/ewjkJE3mEBMKCqgqqqnwA41DoLUTFU3eRgXB5WVX7PIAoJ/mW2kE5fwE1/VGlcLeyZTff81DoHEXmDBSBg2tNzABznO9Y5iMaikM/9J08KJAoHFoAAqWoc8fhNPOOfKlkhn79VVcdb5yCi0rAABCmd/jKAY6xjEJXCVXdCrrfrDuscRFQaFoCA6MDAuyDyJescRF7Ia+GEbLr3POscRDR2LAABUNU4XPcHAOLWWYi84hZyP+CtAKLKxQIQhEzmYgDvtI5B5CXXdauyfd2/sM5BRGPDAuAzHRjYCyJfsc5B5IeCFk7L9vYebZ2DiEaPBcBvhUI7d/1TaKmKq/lbrWMQ0eixAPhI0+lZEHm/dQ4iP7la2HOwt7vNOgcRjQ4LgE9UNQmRRdY5iILguvnLuCGQqLKwAPglnT4fqgdYxyAKgkIT2d6uH1nnIKLisQD4QNevr+Yz/xQ1rrpzdcOGqdY5iKg4LAB+mDBhIYDdrGMQBUmhTi7h/Mw6BxEVhwXAY9rX1wTVz1rnILKQh3vCYP8mvuaaqAKwAHjNcS4DUGsdg8iEqqCgXAUgqgAsAB7Svr5GAOdb5yCyVFD3iMG+jYdY5yCikbEAeEmkFcAE6xhE1tTF960zENHIWAA8oqoTIHKBdQ6icqDqvk/XrZtinYOIdo4FwCuZzKcANFnHICoHCkh2XJIHYRGVMRYAD6hqAsBnrHMQlRPXzZ/J0wGJyhcLgBcymbMB7GMdIyxeGrQb+6FXk3aDh4yqxnJ9Xd+0zkFEwxPrAGGg6fRvAcywzlHJtijwVBp4vB9YnyvtWo/eX9o+zJpqF9MO2IIPHjyA+qSWFibiRGJd4yY2NlrnIKI3YwEokfb0HIB4/Hnw13JMBhV4tA94qA/Y7HpzzVILwDaxuOLwfbOY985+NI1jERirhDgzExOb7rPOQUQ7ilsHqHjx+Png5D9qORd4sB9Y3TtUAspRIS94/O8pPPnPJI55yyAuOCyDCXGPWkqEuCJfB8ACQFRmOHGVQFXjyGReBMAXoIzC3waAO7uBnrw/1/dqBeCNUinFKe8YwHmHDPhy/bASEbeqrqlGRPgLR1RGuAmwFOn0GeDkX7T+AvCz9cBNG/yb/P00OCi49fEJuKCzHq8OxKzjVAxVdbL93V+xzkFEO2IBKM1HrANUir8MANe9Cjy/2TpJ6V7bEMdFt9fjlufGWUepGFpw+XeFqMzwFsAY6YYNNRg3bj2AKuss5cxV4O5u4OH+4Mb06xbAcN6xfxb/fUwvElwQGJkC41xnT2lqesU6ChEN4QrAWI0bdzo4+Y9owAV+uj7YyT9of1qTxIV3N2AtbwmMTIBczPm8dQwi+jcWgLFSPds6QjnrzgM3rAXWbLFO4r8N3TF89u6JeKGXD9WMxIV7lnUGIvo3FoAx0PXrqyHSYp2jXG3MAT9aB3SXeKBPJRkYcHDZion448aEdZSy5cLdnS8IIiofLABjMW7cqQC4A2wY67ZO/n0VuMu/VNlBwbfur2MJGEGuKv4F6wxENIQFYCxETrGOUI5688DP1wOZgnUSO9ms4Nu/rePtgJ1wVU+zzkBEQ1gARklVBcCJ1jnKzYAL/GT9UAmIusFBwVfuq+PGwGEodF9V5fcdojLAv4ijlU6/DTz8ZwcFBX6xfujePw0ZGHDw3w/UIRfh1ZDhqGqs0N3NFTSiMsACMFoiJ1lHKDcruoF/Gb7Ct1xt7Irh24/WWscoOwVHP2adgYhYAMaCy//beWYg3M/5l+rJF1JY+jz3i25PRadbZyAiFoBRUdUERI6zzlEu+gvA7ZuAMn2ZX9lY8sQEvJjhfoBtXNXJqjreOgdR1LEAjMbAwGFQrbaOUS5+0wVs5ttxdymfF1yxkrcCXqcquUwfDwUiMsYCMBque7R1hHLxdAb4K1/uWrRX1sf58qDtaD5/snUGoqhjARgNERYAADkF7umxTlF5bvvjBPTn+FcOAFRwhHUGoqjjd6PRYQEA8FAfn/cfi8FBwQ1/DO5NhWVN3b2tIxBFHQtAkVR1AoBDrHNYSxeAlX3WKSrXw8+n8Co3BMJVrdL+/snWOYiijAWgWOn0kQAi/517dT+Q5ca/MSsUBD95hhvgASBXyH3AOgNRlLEAFO8d1gGsDSrwGJ/5L9kf1qTQnRXrGOYUykdqiQyxABRL5EDrCNYe7we28NN/yfJ5wU1/4V4AQA+yTkAUZSwAxYt8AXgibZ0gPFavSVlHMKeCPawzEEUZC0CxRCL9aeWlQb7sx0sDAw5WrU1axzClinrrDERRxgJQBFWNQ3Uf6xyWnspYJwifu/4e7YOBVN0kjwQmssMCUIy+vv0AJKxjWFHw1D8/PP9qAm7EX6SQ7900zToDUVSxABQjFtvfOoKlVweHnv8nb2Wzgic2RPs2gOs4x1hnIIoqFoDi7GYdwNLzm60ThNfvX472ZkABIn1rjcgSC0BxIn1i2Zot1gnC69m1kb2zBABQYHfrDERRxQJQnMgWAAXwatY6RXh19zrR3gegEtm/W0TWWACKM8U6gJWNOSAb5QnKZ4WC4JnuuHUMMwpttM5AFFUsAMWJ7KcUfvr339NR3giohTrrCERRxQJQnEnWAaxs4mt/ffdyX4TfMaXgOQBERlgAihPZb1I9PP3Pd5sy0f1rqA7fsElkJbrfeUanyjqAlR6uAPiuZyDCc6DLAkBkhQWgOJF9WLufBwD5bmBLhF8NLIjwfzyRLRaA4kS2APAJAP/lChGeA1X5PYjICP/yFSeyBSDnWicIPzfCqywKrgAQWWEBKE50C4B1gAgoRHkFgIjMsADQiDg1BYC/yERkgAWgOJE9DifJycl38Rg3WhBR8FgAihPdAsA/Ib6Lx6NbAGTodRNEZIDf3osT2QKQ4gqA7+KRfhJeWACIjLAAFGfQOoCVKv4J8V0qEeE5ULgCQGSF396Ls8U6gJX66L6oLjD1EyL9HCAfNCUywgJQnG7rAFaaEtYJwm9qbXTnQIFEdnWNyBoLQHE2WgewwgLgv71rI/zCBQcD1hGIoooFoDgsAOSbA+sjXAAU/dYRiKKKBaA4m6wDWGmM8ywAP8ViioMnRve8RQF6rDMQRRULQDFEIlsAYgLsE9mXIftvckMBqQg/BiiQLusMRFHFAlCc16wDWNqPBcA3h0yJ7qf/rV60DkAUVSwAxXDdf1hHsLQ/C4Bvpu8e2TOmhojzZ+sIRFHFAlCMePyf1hEsTU0C1RFepvZLMqk4YlK0C4CI+6h1BqKoYgEoRlXVSwAiu1VbALxjvHWK8Dl0ryyciG+wjNc0PG6dgSiqWACKICJ5AC9b57B0WLV1gvA59S2RPWASACDi5EQk2ksgRIZYAIr3gnUAS1OTwBSeCeCZ6moXR0Z8+R+QPusERFHGAlC8P1kHsHY4VwE8c8y+PAHXgf7TOgNRlLEAFEsk8gXgqGpgPP/ElCyeUJx3aMY6hjmBPGWdgSjK+O28eE9bB7CWdIBjaqxTVL5jDhhEXZJvwdV4/H7rDERRxgJQrPHjnwEQ4fe2DplWB1RFfOd6KWJxxcfenraOURaSBdxtnYEoylgAiiQimwE8Z53DWpUA766zTlG5jnnLIBqr+OlfHBmUujoeA0xkiAVgdB6xDlAO3lsL1MetU1SeqirFp9/Je/8AICo8ApjIGAvAaIistI5QDhICzK63TlF5PnREGjUJ1zpGWXBEVllnIIo6FoDRcF0WgK0OGQ8czNMBi7bn5BxO3z/aB/9sT4BbrDMQRR0LwGhUVz8LYKN1jHJxaj0fCyxGIqG4ZFq/dYyyIeK48dqGFdY5iKKO375HQUQUwMPWOcpFXRz4QNPQuwJo5z58dAb71ET+AZLXiWC9iPBeCJExFoDR47PL2zloHHBsrXWK8nXUWwbx/v03W8coK6K8/09UDlgARst1l1tHKDcnTgT2SVmnKD+T6gu49Gged/9GDvB96wxExAIwalJb+yxU11jnKCcxAf5zCrBb0jpJ+aiudvGtE7qRiFknKS8CyScmNt5jnYOIWADGxnE6rSOUmyoBzpsMTOT5AEhVKb52Qg+axvHAnzdyYrG/WGcgoiEsAGPD2wDDqIkBH5kc7ScDEgnFl07owX613PQ3LJVfW0cgoiER/lZdgvHj74MID3QfRlMC+ORuQ08IRE0qpbhsZi/e0ZC3jlKeRDQJp906BhENYQEYAxEZgOpvrHOUq6YEcP5uwJQI7QmornbxnVndOKwxZx2lbDni/Ivn/xOVDxaAsRJZbB2hnNXEgI9PicbTAZPqC7hmVhf25bP+IxLEbrLOQET/xjNcxkhVU8hk1gHgu/FG4Crwuz7ggR4gqC1xj94/IaCRgHfsn8WXjulFirv9Ryai4zTeIPX1PdZRiGgIVwDGSEQGAdxunaPcOQIcXwd8ZApQHaJJMpFQfOI9/fjadE7+xXAgazj5E5UXFoDS/Nw6QKU4oAr49G5DLxGqdHtOzuHKk7tx6r58uU+xYo7zQ+sMRLQj3gIogaoKBgaeh+oB1lkqyd8GgLu6gW6fNsv7dQsgVaU4650ZzDmQR/uOhkDyVRObxokIH48gKiMRfFjLOyKimsn8H4CvW2epJAePB/YfBzzUB6zqBQbL/LyceFxx9AGDuPCIDCbE+A6b0YqJ81tO/kTlhysAJdJMZipUXwTL1JgMKvCHNPBgL5D2aBO9VysAicTQxP/xt6fRWFXmLaWMxZE4Illf/6R1DiLaEQuABzSdvh3AadY5KllWgcf7gSfTwLoSH6UvtQDUVLt4176D+MjbMqhNcOIvheM4a6vqmqZa5yCiN+OnVm90gAWgJEkBptcO/VifA/6YGSoDXq0K7Eo8oThw9xxaDtiM43bPBjNoBMTEudo6AxENjysAHtF0+kkAh1nnCJvuHPDCln//2FLELfhiVgBiMUVTfQGHTMlh+u5ZHDU5C4d/GzzliGxJ1TVNEBFunCAqQ1wB8M7VAH5iHSJs6hPAUQngqJqhQ4U25oGNOWBTbujnm3JDtw8GFdhSGPq54wBOTJGMK+JxIBFXNFYXsFuNi71r8ziwPo+3TszxVb0+cxC7kZM/UfniZx6PqGoCmcwLAPayzhJ1m3MD1hEiT0QKVXVNtSLC3wyiMsWDgDwiIjkM7QUgijxHYndx8icqb1wB8JCqTkAmswbAZOssUcYVAFsCcauy7u4yZco66yxEtHNcAfCQiGQAXGmdg8iSI7HbOfkTlT+uAHhMVauQyfwdwB7WWaKKKwB2RMStkuQkqavrss5CRCPjCoDHRGQLVC+3zkFkwYGzlJM/UWXgCoAPVDWFTOZZAPtaZ4kirgDYEHFyVXWNDSKSts5CRLvGFQAfiMggVD9nnYMoSI7jXMXJn6hycAXAR5pOPwDgOOscUcMVgOA54nRXTWxqsM5BRMXjCoC/PgMgoNPsiewI5HzrDEQ0OiwAPpLq6qegeqN1DiI/xZzYX1ITG39pnYOIRocFwG+qXwCw3joGkR9EHFdTiTOtcxDR6LEA+ExqazcBWGidg8gPsViso6qq9jnrHEQ0etwEGBBNp28HcJp1jijgJsBgOCIbqiZO4rHXRBWKKwBBicXmA+i3jkHkCRF1JMlCS1TBWAACIuPGvbh1PwBRxYvBuSVZV/eIdQ4iGjveAgiQqgoymWXgrQBf8RaAvxzH2ZCqbdxNRFzrLEQ0dlwBCJCIKFQ/AWCtdRaisRCIK45zAid/osrHAhAwqanZAOCjANQ4CtGoOXC+lqpp+LN1DiIqHW8BGNF0+hoAF1nnCCPeAvBHTJzHUxObjrbOQUTeYAEwoqoJZDL3AnifdZawYQHwniNOf6qucXe+7IcoPHgLwIiI5ADMBfCKdRaikYiI62jsOE7+ROHCAmBIqqvXwXHmAMhaZyHamZjEWpP19U9a5yAib7EAGJPx41dD9bPWOYiGE5PYLcm6huuscxCR97gHoExoJtMO1QXWOcKAewC8ERPnydTEpiOscxCRP1gAyoSqOkinfwWR91tnqXQsAKVzHGd9qrZxLxHh7SmikOItgDIhIi6qqz8MgMerkikHMpByUu/g5E8UbiwAZURENkPkTAD/sM5C0STi5CQeO0ZqatZbZyEif7EAlBmZMOE1xGIzALxonYWiRUQK8VhsJk/6I4oGFoAyJOPGvQjXPQl8ZwAFRCBuwo2dmaip/711FiIKBgtAmZLa2ucAtADoss5C4SYi6iSS58UbGu6wzkJEwWEBKGNSXf00HGc2gG7rLBROAmjMiX8iVV13s3UWIgoWC0CZk/HjH4XqewG8Zp2FwkUgriOxDyVr62+0zkJEwWMBqABSU/MMXPd4AC9bZ6FwEBHXicXPSk1sXGydhYhs8CCgCqJbtuyPfP5eAPtZZylnPAhoZCJOLh6LzeSGP6Jo4wpABZGqqjUApgN43DoLVSYHknFizhGc/ImIKwAVSFUnIJ2+CSJnWGcpR1wBGJ4D57VULPkfUlu70ToLEdnjCkAFEpEMqqvPAtBunYUqQ0xif0xNbNybkz8RbcMCUKFEpCDV1RdBdT6AnHUeKl8xid2Smth4mIjkrbMQUflgAahwUlNz3dYnBPiYIO1ARApxlU+nJjZ+yDoLEZUf7gEICe3vnwSRWwCcYJ3FGvcAAI44vY7GZiTr65+yzkJE5YkFIERUNYFM5nIAn0GEf2+jXgBi4jyerGt8r4hssc5CROWLtwBCRERyUl29EEAzgFet81CwBOLGEGtLTWw6mpM/Ee1KZD8lhp32908C8L8QOd06S9CiuALgSGyjuHJiqqHhaessRFQZWABCTFUFAwPzoHoFgBrrPEGJVAEQ0VgsfnOqpv5c6yhEVFlYACJAM5nd4bqLIHKmdZYgRKUAOCIbnOSE05Pjxz9snYWIKg8LQIRof/8ciCwCMNk6i5/CXgAE4sZisf9N1jbMs85CRJWLmwAjRGpqlsJ1D4XqDwAUrPPQ6MWc2F9EEgdx8ieiUnEFIKK0v/+tELkaQIt1Fq+FcQXAEadHYvHzUzUTl1pnIaJwYAGIOO3vPxsiVyBErxgOUwEQcXIO5JrUxMZLrbMQUbiwANDQAUIDAx+D6lcA7GGdp1RhKAACcZ1YrDNZkA9LfX2PdR4iCh8WAHqdqiYxMPBRqLYBmGqdZ6wquQCIOK7jOJ1JjZ0rdXVd1nmIKLxYAOhNVHUCMplPA7gIwF7WeUarEguAiBQcid2ZdBKfkpqa9dZ5iCj8WABop1Q1gXT6/RC5BMC7rPMUq5IKgCPOZsdxfpaoqb9YRConOBFVPBYAKoqm0ydBdT5ETgYQt84zkkooAI44a2OOc3WituEK6yxEFE0sADQqmslMhepHoHo+RPa3zjOcci0AW5f5H5NE1cU8vY+IrLEA0JioqoNM5kQA5wE4HUCdcaTXlVMBEBEVia2JCX4Qr6m/SkTy1pmIiAAWAPKAqqYwMNAM1TkAzgBQa5mnHAqA4zjrHHGWJRD/ktTWbrTOQ0T0RiwA5ClVHYeBgRMAzIbrzra4TWBRAEScnOM4z0Ll1iScdj7CR0TljgWAfKV9fQfBcWZD9QSITAfQ5PeYQRQAEccVwXpRWeUA309MbLzH90GJiDzEAkCBUVVBOn0IHGc6VN8D4BgAB8Ljpwr8KADiyKCovOQ4sQedvP4y3tBwl+eDEBEFiAWATKlqFQYG3gbVdwAY+qF6AET2ApAYyzVLKQAiTg6QPgf6T4E8pfH4/cmPp3H4AAAAZUlEQVScexeP4yWisGEBoLKkqjFs2bIn8vl9IbIfRPaAaiOAoR+qjRBphGoMIrUAYhBJQLV6c24AEFFRBcRRAAWoQkQGIRgAnH5Rt1cgmwC8CHGeFnEfj9c0PC4iWdP/cCKigPx/So2LW69MLlYAAAAASUVORK5CYII=;" parent="1" vertex="1">
                    <mxGeometry x="62" y="440" width="110" height="110" as="geometry"/>
                </mxCell>
                <mxCell id="rwDkFacO4ixMFr2KppXv-38" value="Cloud System" style="text;html=1;align=center;verticalAlign=middle;whiteSpace=wrap;rounded=0;fontStyle=1;fontSize=16;fontColor=light-dark(#308ce2, #ededed);" parent="1" vertex="1">
                    <mxGeometry x="583.62" y="370" width="110" height="30" as="geometry"/>
                </mxCell>
                <mxCell id="LDbICWp428gaaFMlu-r1-39" value="Work Flow" style="text;html=1;align=center;verticalAlign=middle;whiteSpace=wrap;rounded=0;fontStyle=1;fontSize=40;fontColor=light-dark(#308ce2, #ededed);" parent="1" vertex="1">
                    <mxGeometry x="251" y="-30" width="240" height="30" as="geometry"/>
                </mxCell>
            </root>
        </mxGraphModel>
    </diagram>
</mxfile>